<?xml version="1.0" encoding="UTF-8"?>
<svg width="150px" height="60px" viewBox="0 0 150 60" version="1.1" xmlns="http://www.w3.org/2000/svg" xmlns:xlink="http://www.w3.org/1999/xlink">
    <!-- Generator: Sketch 63.1 (92452) - https://sketch.com -->
    <title>logo</title>
    <desc>Created with Sketch.</desc>
    <g id="Static-pages" stroke="none" stroke-width="1" fill="none" fill-rule="evenodd">
        <g id="UnderMaintenance" transform="translate(-568.000000, -30.000000)">
            <g id="logo" transform="translate(568.000000, 30.000000)">
                <g id="logo-name">
                    <path d="M5.48,42.5 L7.92,34.94 L18.36,34.94 L20.88,42.5 L25.6,42.5 L16.08,14.58 L10.4,14.58 L0.88,42.5 L5.48,42.5 Z M17.24,31.06 L9,31.06 L13.04,18.74 L13.24,18.74 L17.24,31.06 Z M33.96025,50.5 L33.96025,39.06 L34.16025,39.06 C34.6135833,40.2866667 35.3535833,41.2466667 36.38025,41.94 C37.4069167,42.6333333 38.6135833,42.98 40.00025,42.98 C42.64025,42.98 44.68025,42.0266667 46.12025,40.12 C47.56025,38.2133333 48.28025,35.54 48.28025,32.1 C48.28025,28.66 47.56025,25.9866667 46.12025,24.08 C44.68025,22.1733333 42.64025,21.22 40.00025,21.22 C38.6135833,21.22 37.4069167,21.56 36.38025,22.24 C35.3535833,22.92 34.6135833,23.8866667 34.16025,25.14 L34.16025,25.14 L33.96025,25.14 L33.96025,21.7 L29.60025,21.7 L29.60025,50.5 L33.96025,50.5 Z M38.68025,39.22 C37.3469167,39.22 36.2269167,38.8933333 35.32025,38.24 C34.4135833,37.5866667 33.96025,36.7266667 33.96025,35.66 L33.96025,35.66 L33.96025,28.54 C33.96025,27.4733333 34.4135833,26.6133333 35.32025,25.96 C36.2269167,25.3066667 37.3469167,24.98 38.68025,24.98 C40.20025,24.98 41.4135833,25.4666667 42.32025,26.44 C43.2269167,27.4133333 43.68025,28.7 43.68025,30.3 L43.68025,30.3 L43.68025,33.9 C43.68025,35.5 43.2269167,36.7866667 42.32025,37.76 C41.4135833,38.7333333 40.20025,39.22 38.68025,39.22 Z M57.6405,50.5 L57.6405,39.06 L57.8405,39.06 C58.2938333,40.2866667 59.0338333,41.2466667 60.0605,41.94 C61.0871667,42.6333333 62.2938333,42.98 63.6805,42.98 C66.3205,42.98 68.3605,42.0266667 69.8005,40.12 C71.2405,38.2133333 71.9605,35.54 71.9605,32.1 C71.9605,28.66 71.2405,25.9866667 69.8005,24.08 C68.3605,22.1733333 66.3205,21.22 63.6805,21.22 C62.2938333,21.22 61.0871667,21.56 60.0605,22.24 C59.0338333,22.92 58.2938333,23.8866667 57.8405,25.14 L57.8405,25.14 L57.6405,25.14 L57.6405,21.7 L53.2805,21.7 L53.2805,50.5 L57.6405,50.5 Z M62.3605,39.22 C61.0271667,39.22 59.9071667,38.8933333 59.0005,38.24 C58.0938333,37.5866667 57.6405,36.7266667 57.6405,35.66 L57.6405,35.66 L57.6405,28.54 C57.6405,27.4733333 58.0938333,26.6133333 59.0005,25.96 C59.9071667,25.3066667 61.0271667,24.98 62.3605,24.98 C63.8805,24.98 65.0938333,25.4666667 66.0005,26.44 C66.9071667,27.4133333 67.3605,28.7 67.3605,30.3 L67.3605,30.3 L67.3605,33.9 C67.3605,35.5 66.9071667,36.7866667 66.0005,37.76 C65.0938333,38.7333333 63.8805,39.22 62.3605,39.22 Z" id="App" fill="#181F25" fill-rule="nonzero"></path>
                    <g id="logo" transform="translate(80.000000, 0.000000)">
                        <g id="db-mark">
                            <g>
                                <rect id="Rectangle" fill="#016CFA" x="0" y="0" width="70" height="60" rx="5"></rect>
                                <path d="M27.17,44.5 L27.17,41.02 L26.97,41.02 C26.21,43.38 23.97,44.98 21.21,44.98 C15.97,44.98 13.05,41.02 13.05,34.02 C13.05,27.06 15.97,23.14 21.21,23.14 C23.97,23.14 26.25,24.66 26.97,27.06 L27.17,27.06 L27.17,14.9 L32.29,14.9 L32.29,44.5 L27.17,44.5 Z M22.85,40.74 C25.29,40.74 27.17,39.5 27.17,37.34 L27.17,30.7 C27.17,28.66 25.29,27.34 22.85,27.34 C20.21,27.34 18.41,29.3 18.41,32.26 L18.41,35.86 C18.41,38.82 20.21,40.74 22.85,40.74 Z M36.96,44.5 L36.96,14.9 L42.08,14.9 L42.08,27.06 L42.24,27.06 C43,24.66 45.24,23.14 48,23.14 C53.28,23.14 56.2,27.06 56.2,34.02 C56.2,41.02 53.28,44.98 48,44.98 C45.24,44.98 43.04,43.38 42.24,41.02 L42.08,41.02 L42.08,44.5 L36.96,44.5 Z M46.36,40.74 C49,40.74 50.84,38.82 50.84,35.86 L50.84,32.26 C50.84,29.3 49,27.34 46.36,27.34 C43.92,27.34 42.08,28.66 42.08,30.7 L42.08,37.34 C42.08,39.5 43.92,40.74 46.36,40.74 Z" id="db" fill="#FFFFFF" fill-rule="nonzero"></path>
                            </g>
                        </g>
                    </g>
                </g>
            </g>
        </g>
    </g>
</svg>