<?xml version="1.0" encoding="UTF-8"?>
<svg width="401px" height="287px" viewBox="0 0 401 287" version="1.1" xmlns="http://www.w3.org/2000/svg" xmlns:xlink="http://www.w3.org/1999/xlink">
    <!-- Generator: Sketch 63.1 (92452) - https://sketch.com -->
    <title>undraw_security</title>
    <desc>Created with Sketch.</desc>
    <defs>
        <linearGradient x1="49.9994739%" y1="100%" x2="49.9994739%" y2="0%" id="linearGradient-1">
            <stop stop-color="#808080" stop-opacity="0.25" offset="0%"></stop>
            <stop stop-color="#808080" stop-opacity="0.12" offset="54%"></stop>
            <stop stop-color="#808080" stop-opacity="0.1" offset="100%"></stop>
        </linearGradient>
        <linearGradient x1="49.9995454%" y1="100.007969%" x2="49.9995454%" y2="0.00176883159%" id="linearGradient-2">
            <stop stop-color="#808080" stop-opacity="0.25" offset="0%"></stop>
            <stop stop-color="#808080" stop-opacity="0.12" offset="54%"></stop>
            <stop stop-color="#808080" stop-opacity="0.1" offset="100%"></stop>
        </linearGradient>
    </defs>
    <g id="Device-pages" stroke="none" stroke-width="1" fill="none" fill-rule="evenodd">
        <g id="MyDevice/Userbanned" transform="translate(-439.000000, -189.000000)">
            <g id="undraw_security" transform="translate(440.000000, 189.000000)">
                <path d="M393.518325,192.397906 C384.244328,211.528796 365.413613,224.321117 345.898778,232.757417 C319.626527,244.118674 290.69459,248.624782 262.160558,246.719023 C257.159977,246.386271 252.17452,245.854567 247.204188,245.123909 C229.942045,242.605583 213.112671,237.704896 197.197208,230.561955 C192.603839,228.49331 188.103549,226.23502 183.696335,223.787086 C176.335165,219.707024 169.282053,215.094387 162.593368,209.986038 C160.910995,208.701571 159.251891,207.384526 157.616056,206.034904 C156.481675,205.099476 155.357766,204.143106 154.216405,203.21466 C151.808028,201.256545 149.329843,199.396161 146.565445,198.00349 C145.731345,197.582998 144.876238,197.20554 144.00349,196.8726 C135.249564,193.542757 125.155323,194.799302 116.041885,197.396161 C109.109948,199.371728 102.352531,202.076789 95.4275742,204.006981 C92.3473127,204.891665 89.208693,205.558811 86.034904,206.00349 C78.9489536,206.900485 71.753055,206.268493 64.9319372,204.150087 L64.3490401,203.968586 C63.3717277,203.661431 62.4025596,203.325189 61.4415358,202.95986 L60.8586387,202.736475 C59.927865,202.378127 59.0168703,201.993019 58.1256545,201.581152 L57.5427574,201.315881 C56.6119837,200.883072 55.7009889,200.425829 54.8097731,199.944154 C54.4886562,199.776614 54.1710297,199.595113 53.8568935,199.424084 C48.7862727,196.592098 44.1771576,193.003438 40.1884817,188.78185 C40.0732984,188.666667 39.965096,188.547993 39.8394415,188.43281 C39.2844677,187.832461 38.7399651,187.22164 38.2129145,186.596859 C38.017452,186.366492 37.8219895,186.136126 37.6300175,185.898778 C37.0040721,185.135544 36.4002327,184.354857 35.8184991,183.556719 C35.7312391,183.441536 35.6474695,183.322862 35.5636998,183.207679 C33.1803025,179.910438 31.2043553,176.337091 29.6788831,172.565445 C29.6300175,172.450262 29.5846422,172.331588 29.5427574,172.216405 C29.0773706,171.018034 28.6527051,169.799884 28.2687609,168.561955 C28.1116928,168.045375 27.9616056,167.514834 27.8289703,166.998255 C27.7835951,166.844677 27.7417103,166.687609 27.7033159,166.534031 C25.7766143,158.949389 25.556719,151.064572 25.556719,143.225131 C25.556719,142.310646 25.556719,141.397324 25.556719,140.485166 C25.6125654,127.804538 25.8080279,114.907504 27.6788831,102.401396 C27.6788831,102.314136 27.7033159,102.226876 27.7172775,102.143106 C28.3434419,97.9329142 29.1951618,93.7593703 30.2687609,89.6404887 C31.3923874,85.3186595 32.8283923,81.0841366 34.565445,76.9703316 C38.8691099,66.8481675 45.1273997,57.6369983 52.0767888,49.0994764 C69.5811518,27.6160558 92.5375218,9.58115183 119.406632,2.83071553 C148.359511,-4.43979058 180.537522,2.52705061 203.891798,21.1204188 C211.012216,26.7888307 217.410122,33.5008726 225.406632,37.8464223 C232.387435,41.6300175 240.558464,43.1972077 248.034904,40.2198953 C254.212914,37.7591623 258.233857,36.5375218 265.172775,36.9109948 C279.537913,37.7236556 293.699448,40.6898594 307.183246,45.7102967 C307.727749,45.9092496 308.272251,46.1151832 308.813264,46.3211169 C343.965096,59.7696335 374.181501,86.4886562 389.888307,120.823735 C390.304828,121.731239 390.708551,122.645724 391.099476,123.56719 C400.464223,145.441536 403.849913,171.078534 393.518325,192.397906 Z" id="Path" fill="#016CFA" fill-rule="nonzero" opacity="0.1"></path>
                <ellipse id="Oval" fill="#016CFA" fill-rule="nonzero" opacity="0.1" cx="41.9895288" cy="254.383944" rx="30.8132635" ry="4.94938918"></ellipse>
                <ellipse id="Oval" fill="#016CFA" fill-rule="nonzero" opacity="0.1" cx="318.415358" cy="280.876091" rx="54.6352531" ry="5.30541012"></ellipse>
                <rect id="Rectangle" fill="url(#linearGradient-1)" fill-rule="nonzero" x="40.5375218" y="37.609075" width="331.703316" height="187.898778" rx="12.49"></rect>
                <rect id="Rectangle" fill="#FFFFFF" fill-rule="nonzero" x="41.0645724" y="40.2513089" width="330.687609" height="184.631763" rx="12.49"></rect>
                <rect id="Rectangle" fill="#FFFFFF" fill-rule="nonzero" x="41.0645724" y="40.2513089" width="330.687609" height="184.631763" rx="12.49"></rect>
                <rect id="Rectangle" fill="#FFFFFF" fill-rule="nonzero" opacity="0.04" x="41.0645724" y="40.2513089" width="330.687609" height="184.631763" rx="12.49"></rect>
                <g id="logo/db-mark" transform="translate(69.000000, 62.000000)">
                    <g id="db-mark">
                        <rect id="Rectangle" fill="#016CFA" x="0" y="0" width="28" height="24" rx="2"></rect>
                        <path d="M10.868,17.8 L10.868,16.408 L10.788,16.408 C10.484,17.352 9.588,17.992 8.484,17.992 C6.388,17.992 5.22,16.408 5.22,13.608 C5.22,10.824 6.388,9.256 8.484,9.256 C9.588,9.256 10.5,9.864 10.788,10.824 L10.868,10.824 L10.868,5.96 L12.916,5.96 L12.916,17.8 L10.868,17.8 Z M9.14,16.296 C10.116,16.296 10.868,15.8 10.868,14.936 L10.868,12.28 C10.868,11.464 10.116,10.936 9.14,10.936 C8.084,10.936 7.364,11.72 7.364,12.904 L7.364,14.344 C7.364,15.528 8.084,16.296 9.14,16.296 Z M14.784,17.8 L14.784,5.96 L16.832,5.96 L16.832,10.824 L16.896,10.824 C17.2,9.864 18.096,9.256 19.2,9.256 C21.312,9.256 22.48,10.824 22.48,13.608 C22.48,16.408 21.312,17.992 19.2,17.992 C18.096,17.992 17.216,17.352 16.896,16.408 L16.832,16.408 L16.832,17.8 L14.784,17.8 Z M18.544,16.296 C19.6,16.296 20.336,15.528 20.336,14.344 L20.336,12.904 C20.336,11.72 19.6,10.936 18.544,10.936 C17.568,10.936 16.832,11.464 16.832,12.28 L16.832,14.936 C16.832,15.8 17.568,16.296 18.544,16.296 Z" id="db" fill="#FFFFFF" fill-rule="nonzero"></path>
                    </g>
                </g>
                <path d="M370.073298,38.1326353 L42.7434555,38.1326353 C41.816234,38.1326353 41.0645724,38.8842968 41.0645724,39.8115183 L41.0645724,46.9075044 L371.73822,46.9075044 L371.73822,39.8115183 C371.73822,38.8897219 370.995063,38.1403009 370.073298,38.1326353 Z" id="Path" fill="#5A5773" fill-rule="nonzero"></path>
                <g id="6c975d28-8d47-4ade-9154-b3b78f637b65" transform="translate(45.375218, 40.139616)" fill="#FFFFFF" fill-rule="nonzero">
                    <circle id="Oval" cx="2.29319372" cy="2.38045375" r="2.26876091"></circle>
                    <circle id="Oval" cx="8.40139616" cy="2.38045375" r="2.26876091"></circle>
                    <circle id="Oval" cx="14.5095986" cy="2.38045375" r="2.26876091"></circle>
                </g>
                <rect id="Rectangle" fill="#016CFA" fill-rule="nonzero" opacity="0.2" x="257" y="63" width="88.7434555" height="7.53228621"></rect>
                <rect id="Rectangle" fill="#5A5773" fill-rule="nonzero" opacity="0.1" x="68.3001745" y="93.6125654" width="276.216405" height="115.867365"></rect>
                <path d="M222.502134,104.72975 L219.197073,104.72975 L219.197073,98.3316743 C219.197073,91.1119611 213.421143,85.1101188 206.176839,85.0007292 C202.648586,84.9637857 199.251493,86.3319483 196.739617,88.8015242 C194.227741,91.2711001 192.808905,94.6377663 192.798049,98.1542201 L192.798049,104.72975 L189.500305,104.72975 C186.466462,104.739092 184.009374,107.187839 184,110.211384 L184,136.518366 C184.009374,139.541911 186.466462,141.990658 189.500305,142 L222.502134,142 C225.535579,141.990651 227.991965,139.541517 228,136.518366 L228,110.211384 C227.991965,107.188233 225.535579,104.739099 222.502134,104.72975 Z M207.928156,121.83099 L207.928156,131.25308 C207.934773,132.288366 207.134854,133.151471 206.098786,133.226955 C205.572057,133.251536 205.058184,133.060194 204.676671,132.697425 C204.295158,132.334657 204.079251,131.832076 204.079162,131.30656 L204.079162,121.826128 C202.241686,120.933069 201.265845,118.894285 201.725679,116.909096 C202.185512,114.923908 203.959322,113.517715 206.003659,113.517715 C208.047996,113.517715 209.821805,114.923908 210.281639,116.909096 C210.741473,118.894285 209.765631,120.933069 207.928156,121.826128 L207.928156,121.83099 Z M215.352957,104.72975 L196.647043,104.72975 L196.647043,98.1542201 C196.647043,93.0082724 200.832866,88.8366576 205.996341,88.8366576 C211.159816,88.8366576 215.34564,93.0082724 215.34564,98.1542201 L215.352957,104.72975 Z" id="Shape" fill="#000000" fill-rule="nonzero" opacity="0.1"></path>
                <path d="M222.502134,103.72975 L219.197073,103.72975 L219.197073,97.3316743 C219.197073,90.1119611 213.421143,84.1101188 206.176839,84.0007292 C202.648586,83.9637857 199.251493,85.3319483 196.739617,87.8015242 C194.227741,90.2711001 192.808905,93.6377663 192.798049,97.1542201 L192.798049,103.72975 L189.500305,103.72975 C186.466462,103.739092 184.009374,106.187839 184,109.211384 L184,135.518366 C184.009374,138.541911 186.466462,140.990658 189.500305,141 L222.502134,141 C225.535579,140.990651 227.991965,138.541517 228,135.518366 L228,109.211384 C227.991965,106.188233 225.535579,103.739099 222.502134,103.72975 L222.502134,103.72975 Z M207.928156,120.83099 L207.928156,130.25308 C207.934773,131.288366 207.134854,132.151471 206.098786,132.226955 C205.572057,132.251536 205.058184,132.060194 204.676671,131.697425 C204.295158,131.334657 204.079251,130.832076 204.079162,130.30656 L204.079162,120.826128 C202.241686,119.933069 201.265845,117.894285 201.725679,115.909096 C202.185512,113.923908 203.959322,112.517715 206.003659,112.517715 C208.047996,112.517715 209.821805,113.923908 210.281639,115.909096 C210.741473,117.894285 209.765631,119.933069 207.928156,120.826128 L207.928156,120.83099 Z M215.352957,103.72975 L196.647043,103.72975 L196.647043,97.1542201 C196.647043,92.0082724 200.832866,87.8366576 205.996341,87.8366576 C211.159816,87.8366576 215.34564,92.0082724 215.34564,97.1542201 L215.352957,103.72975 Z" id="Shape" fill="#016CFA" fill-rule="nonzero"></path>
                <rect id="Rectangle" fill="#5A5773" fill-rule="nonzero" opacity="0.1" x="316.558464" y="82.460733" width="27.9581152" height="6.60034904"></rect>
                <path d="M354.031414,282.474695 C353.847278,281.54938 353.532307,280.655002 353.095986,279.818499 L348.907504,273.5637 L348.931937,273.5637 C348.931937,273.5637 348.272251,270.422339 348.931937,268.879581 C349.591623,267.336824 346.579407,263.542757 346.579407,263.542757 C346.579407,263.542757 346.212914,262.589878 347.169284,261.417103 C348.125654,260.244328 346.579407,256.809773 346.579407,256.809773 C346.579407,256.809773 345.846422,249.636998 345.773124,248.541012 C345.699825,247.445026 345.109948,241.371728 345.109948,241.371728 L343.713787,228.495637 L341.228621,194.369983 L341.183246,193.731239 C341.490401,193.581152 341.65445,193.486911 341.65445,193.486911 L341.158813,174.617801 L341.588133,174.230366 C345.336824,170.837696 353.982548,162.984293 353.895288,162.813264 C353.808028,162.642234 352.848168,149.699825 352.736475,146.460733 C352.640476,144.158852 352.137045,141.892231 351.249564,139.766143 C351.033159,139.336824 350.408377,136.506108 350.150087,135.308901 C350.080279,134.980803 350.034904,134.774869 350.034904,134.774869 C350.034904,134.774869 347.500873,129.944154 347.720768,127.748691 C347.940663,125.553229 348.380454,123.90925 342.977312,123.141361 C342.977312,123.141361 338.439791,122.464223 335.73822,120.617801 C334.140486,119.511807 332.394256,118.637517 330.551483,118.020942 C330.551483,118.020942 329.036649,115.228621 327.982548,116.17452 C327.536187,115.178148 327.20253,114.13503 326.987784,113.064572 L326.95637,112.86911 C328.957318,111.473843 330.397279,109.412868 331.019197,107.054101 C331.054101,106.921466 331.082024,106.78534 331.113438,106.652705 C331.21817,106.6882 331.327529,106.708191 331.438045,106.712042 C332.356021,106.712042 332.921466,105.689354 333.780105,105.364747 C334.129145,105.228621 334.558464,105.207679 334.827225,104.931937 C335.006243,104.717119 335.089491,104.438366 335.057592,104.160558 C335.066283,104.065352 335.066283,103.969552 335.057592,103.874346 C335.059262,103.840626 335.059262,103.806844 335.057592,103.773124 L335.057592,103.808028 C334.823735,102.537522 333.839442,101.410122 333.947644,100.118674 C334.052356,98.904014 335.120419,97.8359511 335.033159,96.6527051 C335.031956,96.5591503 335.02379,96.4658149 335.008726,96.3734729 L335.008726,96.4153578 C334.878646,95.9534024 334.639198,95.5295801 334.310646,95.1797557 C333.934915,94.6678551 333.441736,94.2536806 332.8726,93.9720768 C332.387435,93.7591623 331.82548,93.7102967 331.371728,93.4554974 C330.038394,92.7294939 330.041885,90.8376963 329.249564,89.5462478 C328.557411,88.4470363 327.30776,87.8282774 326.013962,87.9441536 C325.022688,88.0418848 324.125654,88.5689354 323.144852,88.7399651 C321.804538,88.9773124 320.439791,88.5410122 319.169284,88.0418848 C317.898778,87.5427574 316.61082,86.9947644 315.246073,86.9947644 C313.881326,86.9947644 312.404887,87.6928447 311.993019,88.9808028 C311.773124,89.6788831 311.881326,90.4293194 311.713787,91.1378709 C311.413613,92.3874346 310.317627,93.2809773 309.183246,93.9022688 C308.485166,94.2897033 307.65445,94.7329843 307.438045,95.4659686 C307.438045,95.4450262 307.438045,95.4275742 307.438045,95.4101222 C307.422404,95.4686027 307.410743,95.5280757 307.403141,95.5881326 C307.396164,95.6659288 307.396164,95.7441934 307.403141,95.8219895 C307.403141,96.3246073 307.668412,96.8027923 307.846422,97.2809773 C308.178119,98.1907134 308.170683,99.1895437 307.82548,100.094241 C307.56719,100.757417 307.1274,101.340314 306.876091,102 C306.757664,102.307299 306.68021,102.628852 306.645724,102.95637 L306.645724,102.900524 C306.637052,103.049321 306.637052,103.198497 306.645724,103.347295 C306.641405,103.857033 306.761198,104.360165 306.994764,104.813264 C307.318258,105.445346 307.883435,105.919893 308.561955,106.129145 C309.260035,106.289703 309.696335,105.605585 310.43281,105.780105 C310.564618,105.811841 310.694072,105.85266 310.820244,105.902269 C310.844677,106.059337 310.86911,106.216405 310.897033,106.369983 C311.342338,108.719066 312.594192,110.838822 314.4363,112.363002 C314.4363,112.446771 314.464223,112.530541 314.474695,112.617801 L314.474695,112.617801 C314.697622,114.009379 314.794582,115.418228 314.764398,116.827225 C314.764398,116.827225 313.664921,115.21815 312.157068,118.324607 C312.157068,118.324607 308.223386,120.593368 306.86562,120.851658 C305.507853,121.109948 300.687609,122.788831 300.687609,122.788831 C299.960524,123.314583 299.085736,123.596812 298.188482,123.595113 C296.684119,123.595113 295.434555,126.886562 295.616056,128.677138 C295.797557,130.467714 295.507853,131.787086 294.108202,131.860384 C292.708551,131.933682 293.472949,134.771379 293.483421,134.820244 L293.354276,135.431065 C293.082024,136.680628 292.488656,139.361257 292.279232,139.780105 C291.391749,141.906352 290.887183,144.172765 290.788831,146.474695 C290.680628,149.713787 289.74171,162.60733 289.633508,162.827225 C289.560209,162.970332 295.483421,168.383944 299.647469,172.167539 L300.251309,172.712042 L298.335079,190.61082 C298.448151,192.006529 299.167742,193.2824 300.303665,194.101222 C300.303665,194.310646 300.303665,194.52356 300.282723,194.743455 C300.198953,196.837696 300.031414,199.371728 299.696335,200.034904 C299.109948,201.207679 299.256545,207.497382 299.256545,207.497382 C299.256545,207.497382 298.666667,220.300175 297.933682,221.692845 C297.200698,223.085515 297.050611,226.006981 297.270506,226.579407 C297.490401,227.151832 296.534031,242.527051 296.534031,242.527051 L295.801047,249.406632 C295.801047,249.406632 296.020942,255.989529 295.357766,256.136126 C294.69459,256.282723 294.328098,260.820244 294.328098,260.820244 C294.328098,260.820244 291.979058,264.038394 293.005236,265.207679 C294.031414,266.376963 292.855148,266.893543 292.746946,267.183246 C292.638743,267.472949 290.506108,268.579407 292.048866,272.670157 C292.063033,272.710555 292.079345,272.75017 292.097731,272.788831 C290.652705,274.795812 286.073298,281.270506 286.352531,282.254799 C286.558628,282.880959 286.995441,283.405135 287.574171,283.720768 C288.652705,284.366492 290.502618,284.666667 293.445026,283.720768 C298.331588,282.146597 297.982548,281.012216 297.982548,281.012216 C298.034503,279.910881 298.939342,279.042849 300.041885,279.036649 C302.062827,278.890052 303.570681,277.026178 303.570681,277.026178 L303.333333,276.143106 L303.008726,274.921466 C303.04712,274.572426 303.294939,273.961606 304.404887,273.623037 C306.097731,273.109948 305.65445,269.891798 305.65445,269.891798 C305.65445,269.891798 305.507853,266.527051 306.240838,266.08726 C306.973822,265.647469 306.684119,260.08726 306.684119,260.08726 C306.684119,260.08726 307.493892,256.062827 308.666667,253.354276 C309.839442,250.645724 311.242583,234.554974 311.242583,234.554974 C311.242583,234.554974 312.195462,226.652705 313.078534,224.383944 C313.961606,222.115183 314.771379,215.752182 314.771379,215.752182 C314.771379,215.752182 320.212914,205.21466 320.282723,202.8726 C320.282723,202.8726 320.980803,200.677138 321.678883,203.092496 C322.376963,205.507853 324.338569,211.287958 324.338569,211.287958 L326.247818,218.383944 L328.527051,228.991274 L330,237.919721 C330,237.919721 329.776614,241.284468 330.34904,242.457243 C330.921466,243.630017 331.745201,246.331588 331.30541,246.844677 C330.86562,247.357766 332.184991,249.773124 332.554974,250.282723 C332.924956,250.792321 332.554974,261.623037 332.554974,261.623037 C332.554974,261.623037 334.244328,270.841187 336.670157,272.443281 C336.839335,272.554453 337.019448,272.648018 337.207679,272.722513 C337.172775,273.720768 337.137871,275.057592 337.183246,275.755672 C337.177875,275.911696 337.203991,276.067204 337.260035,276.212914 C337.47993,276.506108 339.979058,278.481675 340.495637,278.481675 C341.012216,278.481675 342.844677,279.762653 342.921466,280.383944 C342.998255,281.005236 348.293194,283.636998 349.04363,283.713787 C349.794066,283.790576 353.431065,284.443281 353.930192,283.420593 C354.053652,283.12145 354.08878,282.793188 354.031414,282.474695 Z M341.022688,150.635253 L341.399651,150.95986 C341.399651,150.95986 341.787086,153.979058 342.062827,154.883072 C342.338569,155.787086 342.006981,157.546248 342.006981,157.546248 C342.032336,158.202792 342.163152,158.850981 342.394415,159.465969 C342.722513,160.125654 341.731239,161.560209 341.731239,161.560209 L340.848168,161.560209 L340.572426,150.25829 L341.022688,150.635253 Z M314.764398,116.890052 L314.764398,116.823735 C314.757417,116.844677 314.753927,116.86911 314.753927,116.890052 L314.764398,116.890052 Z M301.204188,160.397906 C301.068319,160.105518 301.048363,159.77249 301.148342,159.465969 C301.226816,159.300266 301.288779,159.127238 301.333333,158.949389 C301.441797,158.490872 301.509542,158.023669 301.535777,157.553229 C301.536297,157.547423 301.536297,157.541582 301.535777,157.535777 C301.504363,157.368237 301.22164,155.748691 301.483421,154.890052 C301.745201,154.031414 302.143106,150.966841 302.143106,150.966841 L302.394415,150.753927 L302.977312,150.247818 C302.977312,150.247818 302.977312,150.059337 303.019197,149.748691 C303.141361,152.401396 303.239092,155.333333 303.082024,155.47993 C302.788831,155.769634 301.720768,158.621291 301.979058,158.732984 C302.062827,158.771379 301.947644,159.91274 301.752182,161.448517 C301.532639,161.118819 301.348933,160.766618 301.204188,160.397906 L301.204188,160.397906 Z" id="Shape" fill="url(#linearGradient-2)" fill-rule="nonzero"></path>
                <path d="M329.336824,119.678883 L329.336824,124.020942 L320.429319,128.499127 C320.429319,128.499127 311.584642,123.148342 313.766143,121.019197 C315.162304,119.671902 314.893543,115.972077 314.516579,113.427574 L314.516579,113.427574 C314.296684,111.947644 314.041885,110.862129 314.041885,110.862129 C314.041885,110.862129 329.930192,106.324607 327.528796,109.769634 C326.726003,110.921466 326.663176,112.411867 326.931937,113.888307 C327.47644,116.816754 329.336824,119.678883 329.336824,119.678883 Z" id="Path" fill="#C37098" fill-rule="nonzero"></path>
                <path d="M304.935428,162.139616 L303.787086,176.282723 C303.787086,176.282723 302.066318,174.722513 299.839442,172.691099 C295.710297,168.924956 289.846422,163.539267 289.91623,163.396161 C290.024433,163.176265 290.963351,150.34555 291.064572,147.120419 C291.160005,144.831165 291.658632,142.576707 292.537522,140.460733 C292.746946,140.041885 293.336824,137.375218 293.584642,136.129145 C293.668412,135.74171 293.720768,135.490401 293.720768,135.490401 L295.647469,134.715532 C295.647469,134.715532 303.675393,143.671902 303.675393,143.835951 C303.675393,144 303.1274,150.879581 303.1274,150.879581 L302.558464,151.375218 L302.310646,151.588133 C302.310646,151.588133 301.926702,154.593368 301.65445,155.493892 C301.382199,156.394415 301.675393,157.958115 301.706806,158.125654 L301.706806,158.125654 C301.681129,158.595933 301.61456,159.063083 301.507853,159.521815 C301.462305,159.698233 301.400372,159.870009 301.322862,160.034904 C301.224493,160.340452 301.244424,160.671797 301.378709,160.963351 C301.533818,161.368026 301.735277,161.753374 301.979058,162.111693 L304.935428,162.139616 Z" id="Path" fill="#3F3D56" fill-rule="nonzero"></path>
                <path d="M353.588133,163.396161 C353.671902,163.56719 345.109948,171.382199 341.399651,174.757417 L339.717277,176.282723 L338.579407,162.139616 L341.528796,162.139616 C341.528796,162.139616 342.513089,160.719023 342.184991,160.062827 C341.956275,159.451026 341.827805,158.806319 341.804538,158.153578 C341.804538,158.153578 342.129145,156.408377 341.856894,155.504363 C341.584642,154.600349 341.200698,151.598604 341.200698,151.598604 L340.827225,151.277487 L340.383944,150.890052 C340.383944,150.890052 339.835951,144.010471 339.835951,143.846422 C339.835951,143.682373 347.863874,134.726003 347.863874,134.726003 L349.776614,135.490401 C349.776614,135.490401 349.818499,135.696335 349.888307,136.024433 C350.146597,137.21466 350.764398,140.031414 350.977312,140.460733 C351.856202,142.576707 352.354829,144.831165 352.450262,147.120419 C352.541012,150.34555 353.47644,163.176265 353.588133,163.396161 Z" id="Path" fill="#3F3D56" fill-rule="nonzero"></path>
                <path d="M353.623037,283.445026 C353.109948,284.464223 349.507853,283.794066 348.764398,283.73822 C348.020942,283.682373 342.771379,281.04014 342.69808,280.422339 C342.624782,279.804538 340.806283,278.530541 340.296684,278.530541 C339.787086,278.530541 337.312391,276.561955 337.092496,276.272251 C337.03677,276.127745 337.011806,275.973202 337.019197,275.818499 C336.942408,274.621291 337.092496,271.539267 337.092496,271.539267 L347.65096,272.122164 L352.78185,279.839442 C353.214298,280.672034 353.526873,281.561579 353.710297,282.481675 C353.77256,282.8046 353.742311,283.138545 353.623037,283.445026 L353.623037,283.445026 Z" id="Path" fill="#3F3D56" fill-rule="nonzero"></path>
                <path d="M353.623037,283.445026 C353.109948,284.464223 349.507853,283.794066 348.764398,283.73822 C348.020942,283.682373 342.771379,281.04014 342.69808,280.422339 C342.624782,279.804538 340.806283,278.530541 340.296684,278.530541 C339.787086,278.530541 337.312391,276.561955 337.092496,276.272251 C337.03677,276.127745 337.011806,275.973202 337.019197,275.818499 C336.942408,274.621291 337.092496,271.539267 337.092496,271.539267 L347.65096,272.122164 L352.78185,279.839442 C353.214298,280.672034 353.526873,281.561579 353.710297,282.481675 C353.77256,282.8046 353.742311,283.138545 353.623037,283.445026 L353.623037,283.445026 Z" id="Path" fill="#000000" fill-rule="nonzero" opacity="0.1"></path>
                <path d="M353.623037,283.445026 C353.109948,284.464223 349.507853,283.794066 348.764398,283.73822 C348.020942,283.682373 342.771379,281.04014 342.69808,280.422339 C342.624782,279.804538 340.806283,278.530541 340.296684,278.530541 C339.787086,278.530541 337.312391,276.561955 337.092496,276.272251 C337.03677,276.127745 337.011806,275.973202 337.019197,275.818499 L340.439791,277.982548 C340.439791,277.982548 342.624782,279.378709 343.207679,280.205934 C343.790576,281.033159 348.383944,282.753927 348.764398,282.788831 C349.04712,282.816754 352.062827,282.237347 353.710297,282.481675 C353.77256,282.8046 353.742311,283.138545 353.623037,283.445026 L353.623037,283.445026 Z" id="Path" fill="#000000" fill-rule="nonzero" opacity="0.1"></path>
                <path d="M303.710297,277.075044 C303.710297,277.075044 302.216405,278.931937 300.219895,279.075044 C299.125758,279.083267 298.229769,279.947037 298.181501,281.04014 C298.181501,281.04014 298.530541,282.17103 293.703316,283.73822 C290.788831,284.677138 288.95637,284.380454 287.888307,283.73822 C287.315113,283.421943 286.882525,282.900842 286.677138,282.279232 C286.34904,281.116928 292.792321,272.268761 292.792321,272.268761 L298.656195,271.919721 L302.844677,273.811518 L303.486911,276.209424 L303.710297,277.075044 Z" id="Path" fill="#3F3D56" fill-rule="nonzero"></path>
                <path d="M303.710297,277.075044 C303.710297,277.075044 302.216405,278.931937 300.219895,279.075044 C299.125758,279.083267 298.229769,279.947037 298.181501,281.04014 C298.181501,281.04014 298.530541,282.17103 293.703316,283.73822 C290.788831,284.677138 288.95637,284.380454 287.888307,283.73822 C287.315113,283.421943 286.882525,282.900842 286.677138,282.279232 C286.34904,281.116928 292.792321,272.268761 292.792321,272.268761 L298.656195,271.919721 L302.844677,273.811518 L303.486911,276.209424 L303.710297,277.075044 Z" id="Path" fill="#000000" fill-rule="nonzero" opacity="0.1"></path>
                <path d="M303.710297,277.075044 C303.710297,277.075044 302.216405,278.931937 300.219895,279.075044 C299.125758,279.083267 298.229769,279.947037 298.181501,281.04014 C298.181501,281.04014 298.530541,282.17103 293.703316,283.73822 C290.788831,284.677138 288.95637,284.380454 287.888307,283.73822 C290.635253,283.452007 296.705061,281.717277 297.312391,281.116928 C298.041885,280.387435 298.95288,278.383944 299.570681,278.34904 C300,278.321117 302.181501,277.008726 303.490401,276.195462 L303.710297,277.075044 Z" id="Path"></path>
                <path d="M303.710297,277.075044 C303.710297,277.075044 302.216405,278.931937 300.219895,279.075044 C299.125758,279.083267 298.229769,279.947037 298.181501,281.04014 C298.181501,281.04014 298.530541,282.17103 293.703316,283.73822 C290.788831,284.677138 288.95637,284.380454 287.888307,283.73822 C290.635253,283.452007 296.705061,281.717277 297.312391,281.116928 C298.041885,280.387435 298.95288,278.383944 299.570681,278.34904 C300,278.321117 302.181501,277.008726 303.490401,276.195462 L303.710297,277.075044 Z" id="Path" fill="#000000" fill-rule="nonzero" opacity="0.1"></path>
                <path d="M348.670157,268.95637 C348.013962,270.485166 348.670157,273.616056 348.670157,273.616056 C348.670157,273.616056 338.897033,274.125654 336.509599,272.52356 C334.122164,270.921466 332.43281,261.745201 332.43281,261.745201 C332.43281,261.745201 332.78185,250.970332 332.43281,250.460733 C332.08377,249.951134 330.757417,247.549738 331.193717,247.04014 C331.630017,246.530541 330.844677,243.835951 330.247818,242.670157 C329.65096,241.504363 329.898778,238.157068 329.898778,238.157068 L328.439791,229.270506 L326.184991,218.715532 L324.268761,211.65096 C324.268761,211.65096 322.303665,205.898778 321.636998,203.497382 C320.970332,201.095986 320.265271,203.277487 320.265271,203.277487 C320.195462,205.609075 314.806283,216.094241 314.806283,216.094241 C314.806283,216.094241 314.00349,222.429319 313.13089,224.684119 C312.25829,226.938918 311.308901,234.806283 311.308901,234.806283 C311.308901,234.806283 309.91274,250.823735 308.760908,253.518325 C307.609075,256.212914 306.816754,260.216405 306.816754,260.216405 C306.816754,260.216405 307.109948,265.752182 306.380454,266.188482 C305.65096,266.624782 305.769634,269.975567 305.769634,269.975567 C305.769634,269.975567 306.205934,273.176265 304.530541,273.689354 C302.855148,274.202443 303.13438,275.291449 303.13438,275.291449 C303.13438,275.291449 293.815009,276.820244 292.286213,272.739965 C290.757417,268.659686 292.86911,267.574171 292.984293,267.280977 C293.099476,266.987784 294.26178,266.481675 293.242583,265.312391 C292.223386,264.143106 294.551483,260.945899 294.551483,260.945899 C294.551483,260.945899 294.917976,256.43281 295.570681,256.286213 C296.223386,256.139616 296.010471,249.588133 296.010471,249.588133 L296.736475,242.743455 C296.736475,242.743455 297.685864,227.452007 297.465969,226.86911 C297.246073,226.286213 297.39267,223.378709 298.122164,221.982548 C298.851658,220.586387 299.431065,207.853403 299.431065,207.853403 C299.431065,207.853403 299.284468,201.595113 299.867365,200.429319 C300.216405,199.769634 300.363002,197.232112 300.446771,195.162304 C300.509599,193.581152 300.52356,192.272251 300.52356,192.272251 L308.677138,189.21466 L319.148342,185.867365 L327.958115,190.09075 L340.848168,192.565445 L341.008726,194.788831 L343.469459,228.753927 L344.86562,241.56719 C344.86562,241.56719 345.448517,247.609075 345.521815,248.701571 C345.595113,249.794066 346.321117,256.931937 346.321117,256.931937 C346.321117,256.931937 347.849913,260.352531 346.904014,261.518325 C345.958115,262.684119 346.321117,263.612565 346.321117,263.612565 C346.321117,263.612565 349.326353,267.427574 348.670157,268.95637 Z" id="Path" fill="#3F3D56" fill-rule="nonzero"></path>
                <path d="M327.535777,109.769634 C326.732984,110.921466 326.670157,112.411867 326.938918,113.888307 C323.168485,116.54827 318.084825,116.358187 314.52356,113.424084 L314.52356,113.424084 C314.303665,111.944154 314.048866,110.858639 314.048866,110.858639 C314.048866,110.858639 329.937173,106.328098 327.535777,109.769634 Z" id="Path" fill="#000000" fill-rule="nonzero" opacity="0.1"></path>
                <path d="M331.249682,105.315881 C331.249682,110.964029 326.670835,115.542757 321.022688,115.542757 C315.37454,115.542757 310.795812,110.964029 310.795812,105.315881 C310.795812,99.6677336 315.37454,95.0888872 321.022688,95.0888872 C323.73901,95.0759323 326.347859,96.1492051 328.268611,98.0699576 C330.189364,99.9907101 331.262637,102.599559 331.249682,105.315881 L331.249682,105.315881 Z" id="Path" fill="#C37098" fill-rule="nonzero"></path>
                <polygon id="Path" fill="#000000" fill-rule="nonzero" opacity="0.1" points="333.378709 122.310646 330.027923 181.979058 311.82548 178.157068 308.219895 154.237347 311.790576 122.125654 314.478185 122.471204 319.21815 123.075044 323.91274 123.364747 329.001745 122.799302"></polygon>
                <polygon id="Path" fill="#B9D7FF" fill-rule="nonzero" points="333.378709 122.746946 330.027923 182.415358 311.82548 178.593368 308.219895 154.673647 311.790576 122.565445 314.478185 122.907504 319.21815 123.511344 323.91274 123.801047 329.001745 123.235602"></polygon>
                <path d="M318.415358,124.34904 L324.970332,124.568935 L323.1274,127.148342 C323.1274,127.148342 323.256545,132.359511 324.132635,133.853403 C325.008726,135.347295 324.750436,158.425829 324.750436,158.425829 L323.005236,161.73822 L320.020942,158.024433 L320.059337,127.553229 L318.415358,124.34904 Z" id="Path" fill="#3F3D56" fill-rule="nonzero"></path>
                <path d="M318.415358,124.34904 L324.970332,124.568935 L323.1274,127.148342 C323.1274,127.148342 323.256545,132.359511 324.132635,133.853403 C325.008726,135.347295 324.750436,158.425829 324.750436,158.425829 L323.005236,161.73822 L320.020942,158.024433 L320.059337,127.553229 L318.415358,124.34904 Z" id="Path" fill="#000000" fill-rule="nonzero" opacity="0.1"></path>
                <polygon id="Path" fill="#000000" fill-rule="nonzero" opacity="0.1" points="328.680628 117.577661 322.565445 124.34904 326.059337 127.989529 331.849913 122.34555"></polygon>
                <polygon id="Path" fill="#1D62BE" fill-rule="nonzero" points="328.680628 117.141361 322.565445 123.91274 326.059337 127.553229 331.849913 121.90925"></polygon>
                <polygon id="Path" fill="#000000" fill-rule="nonzero" opacity="0.1" points="319.982548 124.020942 313.790576 117.832461 313.207679 121.071553 316.048866 128.17103"></polygon>
                <polygon id="Path" fill="#1D62BE" fill-rule="nonzero" points="320.198953 123.584642 314.010471 117.396161 313.427574 120.635253 316.268761 127.734729"></polygon>
                <path d="M341.04014,194.799302 C338.068246,196.215264 334.884938,197.136065 331.616056,197.525305 C325.609075,198.289703 321.678883,190.645724 321.678883,190.645724 L319.385689,193.630017 C318.656195,196.799302 307.553229,197.598604 303.04014,196.397906 C302.10369,196.166592 301.22307,195.750019 300.450262,195.172775 C300.513089,193.591623 300.527051,192.282723 300.527051,192.282723 L308.680628,189.225131 L319.151832,185.877836 L327.961606,190.101222 L340.851658,192.575916 L341.04014,194.799302 Z" id="Path" fill="#000000" fill-rule="nonzero" opacity="0.1"></path>
                <path d="M333.378709,122.750436 L330.031414,182.415358 L311.82548,178.593368 L308.212914,154.677138 L311.780105,122.565445 L314.467714,122.914485 C314.39901,124.08419 314.267347,125.249345 314.073298,126.404887 C313.636998,128.446771 316.331588,142.935428 316.331588,142.935428 C316.331588,142.935428 321.452007,159.183246 323.755672,156.841187 C326.059337,154.499127 329.340314,142.132635 329.340314,142.132635 C331.5637,137.546248 329.378709,124.680628 329.21466,124.422339 C329.100362,124.041869 329.030095,123.649542 329.005236,123.253054 L333.378709,122.750436 Z" id="Path" fill="#000000" fill-rule="nonzero" opacity="0.1"></path>
                <polygon id="Path" fill="#000000" fill-rule="nonzero" opacity="0.1" points="341.242583 168.921466 341.396161 174.767888 339.713787 176.293194 338.579407 162.139616 341.092496 162.139616"></polygon>
                <path d="M301.710297,158.136126 L301.710297,158.136126 C301.684619,158.606404 301.61805,159.073554 301.511344,159.532286 C301.511344,159.403141 301.511344,159.329843 301.483421,159.319372 C301.378709,159.291449 301.504363,158.757417 301.710297,158.136126 Z" id="Path" fill="#000000" fill-rule="nonzero" opacity="0.1"></path>
                <path d="M304.935428,162.139616 L303.787086,176.282723 C303.787086,176.282723 302.066318,174.722513 299.839442,172.691099 L300.104712,170.184991 C300.104712,170.184991 301.04363,164.027923 301.385689,160.991274 C301.540799,161.395949 301.742258,161.781298 301.986038,162.139616 L304.935428,162.139616 Z" id="Path" fill="#000000" fill-rule="nonzero" opacity="0.1"></path>
                <path d="M314.809773,117.612565 C314.809773,117.612565 313.720768,116.010471 312.226876,119.102967 C312.226876,119.102967 308.331588,121.361257 306.991274,121.616056 C305.65096,121.870855 300.883072,123.546248 300.883072,123.546248 C300.162995,124.06677 299.296888,124.346514 298.408377,124.34555 C296.914485,124.34555 295.675393,127.623037 295.856894,129.406632 C296.038394,131.190227 295.748691,132.502618 294.366492,132.575916 C292.984293,132.649215 293.745201,135.521815 293.745201,135.521815 L302.95637,146.080279 C302.95637,146.080279 303.539267,155.801047 303.249564,156.094241 C302.95986,156.387435 301.902269,159.235602 302.157068,159.333333 C302.411867,159.431065 300.760908,170.181501 300.760908,170.181501 L298.541012,191.04363 C298.541012,191.04363 298.541012,194.534031 303.057592,195.73822 C307.574171,196.942408 318.684119,196.146597 319.399651,192.977312 L321.692845,189.989529 C321.692845,189.989529 325.623037,197.636998 331.630017,196.8726 C337.636998,196.108202 341.462478,193.923211 341.462478,193.923211 L340.806283,168.921466 L340.369983,150.900524 L349.748691,135.490401 C349.748691,135.490401 347.235602,130.684119 347.455497,128.509599 C347.675393,126.335079 348.108202,124.687609 342.757417,123.923211 C342.757417,123.923211 338.244328,123.249564 335.584642,121.410122 C334.004028,120.312644 332.276783,119.443146 330.453752,118.827225 C330.453752,118.827225 328.95288,116.034904 327.90925,116.991274 C327.90925,116.991274 328.95637,120.938918 328.86911,121.528796 C328.78185,122.118674 329.033159,124.78534 329.197208,125.061082 C329.361257,125.336824 331.546248,138.184991 329.322862,142.771379 C329.322862,142.771379 326.059337,155.137871 323.73822,157.47993 C321.417103,159.82199 316.314136,143.574171 316.314136,143.574171 C316.314136,143.574171 313.619546,129.082024 314.055846,127.04363 C314.492147,125.005236 314.809773,117.612565 314.809773,117.612565 Z" id="Path" fill="#3F3D56" fill-rule="nonzero"></path>
                <circle id="Oval" fill="#3F3D56" fill-rule="nonzero" cx="322.600349" cy="163.74171" r="1.60209424"></circle>
                <circle id="Oval" fill="#3F3D56" fill-rule="nonzero" cx="322.600349" cy="171.294939" r="1.60209424"></circle>
                <circle id="Oval" fill="#000000" fill-rule="nonzero" opacity="0.1" cx="322.600349" cy="163.74171" r="1.60209424"></circle>
                <circle id="Oval" fill="#000000" fill-rule="nonzero" opacity="0.1" cx="322.600349" cy="171.294939" r="1.60209424"></circle>
                <path d="M336.998255,266.771379 C336.998255,266.771379 343.574171,267.280977 344.226876,267.790576 C344.879581,268.300175 336.998255,266.771379 336.998255,266.771379 Z" id="Path" stroke="#016CFA" fill="#000000" fill-rule="nonzero" opacity="0.1"></path>
                <path d="M297.846422,261.602094 C297.846422,261.602094 299.242583,263.347295 298.649215,264.150087 C298.055846,264.95288 297.846422,261.602094 297.846422,261.602094 Z" id="Path" stroke="#016CFA" fill="#000000" fill-rule="nonzero" opacity="0.1"></path>
                <path d="M299.521815,267.895288 C299.521815,267.895288 302.069808,266.219895 303.089005,267.333333 C304.108202,268.446771 299.521815,267.895288 299.521815,267.895288 Z" id="Path" stroke="#016CFA" fill="#000000" fill-rule="nonzero" opacity="0.1"></path>
                <path d="M331.249564,105.315881 C331.251524,106.188511 331.141254,107.057769 330.921466,107.902269 C330.480652,107.701186 330.210816,107.247749 330.244328,106.764398 C330.289703,106.34904 330.565445,105.968586 330.506108,105.556719 C330.418848,104.921466 329.65096,104.663176 329.246073,104.160558 C328.746946,103.553229 328.855148,102.670157 328.897033,101.884817 C328.938918,101.099476 328.739965,100.139616 328.00349,99.8708551 C327.783595,99.7905759 327.542757,99.7835951 327.329843,99.6928447 C326.750436,99.4485166 326.572426,98.7294939 326.184991,98.2338569 C325.410122,97.2356021 323.870855,97.2565445 322.69459,97.7312391 C322.182604,97.976705 321.658354,98.1957251 321.123909,98.3874346 C320.582925,98.5782563 319.986768,98.5339559 319.47993,98.2652705 C319.249564,98.1186736 319.064572,97.9162304 318.827225,97.7696335 C318.038394,97.2949389 317.005236,97.7696335 316.321117,98.3804538 C315.636998,98.991274 315.089005,99.8115183 314.226876,100.184991 C313.839442,100.359511 313.361257,100.464223 313.179756,100.841187 C313.089917,101.04641 313.051575,101.270474 313.068063,101.493892 C313.068063,102.851658 313.228621,104.230366 312.945899,105.560209 C312.764398,106.415358 312.164049,107.385689 311.294939,107.280977 C311.186636,107.264952 311.080223,107.238057 310.977312,107.200698 C310.263825,103.388175 311.768532,99.5001365 314.862686,97.1612056 C317.956841,94.8222747 322.107869,94.4350359 325.581256,96.1612978 C329.054642,97.8875596 331.252536,101.430192 331.256545,105.308901 L331.249564,105.315881 Z" id="Path" fill="#000000" fill-rule="nonzero" opacity="0.1"></path>
                <path d="M310.52007,106.621291 C310.78185,106.680628 311.029668,106.816754 311.298429,106.851658 C312.167539,106.95637 312.767888,105.986038 312.949389,105.13089 C313.232112,103.801047 313.085515,102.422339 313.075044,101.064572 C313.05555,100.841363 313.092769,100.616846 313.183246,100.411867 C313.382199,100.034904 313.860384,99.930192 314.230366,99.7556719 C315.075044,99.3787086 315.626527,98.5759162 316.324607,97.9511344 C317.022688,97.3263525 318.038394,96.8656195 318.827225,97.3403141 C319.061082,97.4799302 319.249564,97.6893543 319.47993,97.8359511 C319.989148,98.100697 320.584703,98.1448589 321.1274,97.9581152 C321.668412,97.7975567 322.17452,97.5148342 322.69459,97.3019197 C323.860384,96.8272251 325.403141,96.8097731 326.184991,97.8010471 C326.572426,98.3001745 326.750436,99.0157068 327.329843,99.2600349 C327.542757,99.3507853 327.783595,99.3612565 328.00349,99.4415358 C328.739965,99.7172775 328.928447,100.670157 328.897033,101.455497 C328.86562,102.240838 328.760908,103.123909 329.246073,103.731239 C329.65096,104.226876 330.418848,104.485166 330.506108,105.1274 C330.561955,105.539267 330.289703,105.923211 330.244328,106.335079 C330.223323,106.644287 330.327053,106.949025 330.532342,107.181205 C330.737632,107.413385 331.027371,107.553657 331.336824,107.570681 C332.244328,107.570681 332.806283,106.554974 333.65445,106.230366 C334.00349,106.094241 334.425829,106.073298 334.701571,105.797557 C334.909034,105.529299 334.988161,105.183437 334.917976,104.851658 C334.746946,103.514834 333.675393,102.352531 333.790576,101.012216 C333.898778,99.7277487 335.089005,98.6073298 334.837696,97.3438045 C334.709685,96.8779046 334.470081,96.4502119 334.139616,96.0977312 C333.765472,95.5906338 333.27775,95.1782224 332.715532,94.8935428 C332.230366,94.6841187 331.668412,94.6352531 331.225131,94.3804538 C329.905759,93.6579407 329.90925,91.7731239 329.13089,90.4886562 C328.449855,89.4064775 327.221633,88.7950597 325.947644,88.904014 C324.966841,89.0017452 324.076789,89.521815 323.106457,89.6963351 C321.776614,89.9336824 320.429319,89.4973822 319.169284,88.9982548 C317.90925,88.4991274 316.635253,87.9511344 315.284468,87.9511344 C313.933682,87.9511344 312.471204,88.6492147 312.059337,89.9267016 C311.842932,90.6247818 311.951134,91.3717277 311.783595,92.0732984 C311.490401,93.3193717 310.387435,94.2059337 309.277487,94.8237347 C308.513089,95.2495637 307.595113,95.7382199 307.504363,96.6073298 C307.445026,97.1588133 307.748691,97.6544503 307.940663,98.1884817 C308.26717,99.0919236 308.259741,100.08236 307.919721,100.980803 C307.664921,101.640489 307.239092,102.219895 306.980803,102.876091 C306.60999,103.77695 306.643029,104.793531 307.071553,105.668412 C307.400323,106.305758 307.977401,106.779291 308.666667,106.977312 C309.354276,107.141361 309.787086,106.460733 310.52007,106.621291 Z" id="Path" fill="#3F3D56" fill-rule="nonzero"></path>
                <g id="Group" opacity="0.1" transform="translate(306.457243, 95.986038)" fill="#000000" fill-rule="nonzero">
                    <path d="M6.4921466,8.38394415 C6.31064572,9.2390925 5.70680628,10.2094241 4.83769634,10.104712 C4.56893543,10.069808 4.32460733,9.93368237 4.05933682,9.87434555 C3.32984293,9.71378709 2.89703316,10.3979058 2.20942408,10.2233857 C1.51924596,10.0254611 0.941039875,9.55203907 0.610820244,8.91448517 C0.428269277,8.55921556 0.31794126,8.17128802 0.286212914,7.77312391 C0.21669219,8.39114759 0.329530901,9.01600712 0.610820244,9.57068063 C0.941039875,10.2082345 1.51924596,10.6816565 2.20942408,10.8795812 C2.90750436,11.0401396 3.32984293,10.3560209 4.05933682,10.530541 C4.31473144,10.6194525 4.57452735,10.6951777 4.83769634,10.7574171 C5.70680628,10.8656195 6.31064572,9.89528796 6.4921466,9.04013962 C6.63524459,8.28462985 6.69145634,7.51523144 6.65968586,6.7469459 C6.65631181,7.29671385 6.60020844,7.84489052 6.4921466,8.38394415 Z" id="Path"></path>
                    <path d="M1.71029668,3.12739965 C1.75475724,2.55544277 1.67620687,1.98059689 1.47993019,1.44153578 C1.32203719,1.0831011 1.18794767,0.714646419 1.07853403,0.338568935 C1.06354674,0.39719893 1.05189339,0.456630997 1.04363002,0.516579407 C0.984293194,1.06457243 1.29144852,1.56369983 1.47993019,2.09773124 C1.60180915,2.42928777 1.67927055,2.77551673 1.71029668,3.12739965 L1.71029668,3.12739965 Z" id="Path"></path>
                    <path d="M28.3769634,1.28795812 C28.2129145,2.27923211 27.4101222,3.21116928 27.3298429,4.2547993 C27.310491,4.43345071 27.310491,4.61366971 27.3298429,4.79232112 C27.504363,3.57417103 28.582897,2.495637 28.3769634,1.28795812 Z" id="Path"></path>
                    <path d="M28.4363002,8.65270506 C28.4067006,8.79865818 28.3379236,8.93379897 28.2373473,9.04363002 C27.9790576,9.31937173 27.539267,9.34031414 27.1902269,9.47643979 C26.3420593,9.80104712 25.7940663,10.8272251 24.8726003,10.8167539 C24.389666,10.7893986 23.9734281,10.4675079 23.8254799,10.0069808 C23.8042026,10.0826261 23.7878794,10.1595782 23.7766143,10.2373473 C23.7565813,10.5459746 23.8607509,10.8498045 24.0659382,11.0812138 C24.2711256,11.3126232 24.5603035,11.4524089 24.8691099,11.469459 C25.7801047,11.469459 26.3385689,10.4537522 27.1867365,10.1326353 C27.5357766,9.9965096 27.9616056,9.97556719 28.2338569,9.69982548 C28.4413206,9.43156748 28.5204476,9.08570599 28.4502618,8.7539267 C28.4467714,8.71204188 28.4397906,8.68411867 28.4363002,8.65270506 Z" id="Path"></path>
                    <path d="M24.0593368,8.36300175 C23.9720768,7.72774869 23.2041885,7.46945899 22.7993019,6.96684119 C22.55106,6.63669213 22.4163639,6.23505303 22.4153578,5.82198953 C22.3874346,6.47120419 22.3979058,7.13438045 22.7993019,7.62303665 C23.2006981,8.11169284 23.8115183,8.32111693 24.0069808,8.82373473 C24.0563695,8.67548817 24.0742034,8.51855004 24.0593368,8.36300175 L24.0593368,8.36300175 Z" id="Path"></path>
                    <path d="M22.4363002,4.70855148 C22.4642234,3.92321117 22.2757417,2.96335079 21.539267,2.69458988 C21.3228621,2.61431065 21.0820244,2.60383944 20.8691099,2.51657941 C20.2897033,2.27225131 20.1082024,1.55322862 19.7242583,1.05759162 C18.9458988,0.0628272251 17.4066318,0.0802792321 16.2338569,0.554973822 C15.7102967,0.767888307 15.2111693,1.05061082 14.6666667,1.21116928 C14.1256825,1.401991 13.5295258,1.35769061 13.0226876,1.08900524 C12.7923211,0.942408377 12.6038394,0.739965096 12.3699825,0.593368237 C11.5776614,0.118673647 10.5445026,0.593368237 9.86387435,1.20418848 C9.18324607,1.81500873 8.63176265,2.63176265 7.76963351,3.008726 C7.37870855,3.18324607 6.90401396,3.28795812 6.70157068,3.66492147 C6.61278865,3.87040266 6.57564071,4.09448867 6.59336824,4.31762653 C6.59336824,4.45375218 6.59336824,4.58987784 6.59336824,4.72600349 C6.59799355,4.58538736 6.63249874,4.44736661 6.69458988,4.32111693 C6.89703316,3.94415358 7.37172775,3.83944154 7.76265271,3.66492147 C8.60732984,3.28795812 9.15881326,2.48516579 9.85689354,1.86038394 C10.5549738,1.23560209 11.5706806,0.77486911 12.3630017,1.2495637 C12.5968586,1.38917976 12.7853403,1.59860384 13.0157068,1.7417103 C13.5220553,2.01208878 14.1189358,2.05644296 14.6596859,1.86387435 C15.1931784,1.67396842 15.7162996,1.45609835 16.2268761,1.21116928 C17.3961606,0.736474695 18.9354276,0.715532286 19.7172775,1.71029668 C20.1012216,2.20593368 20.2827225,2.92495637 20.8621291,3.16928447 C21.0750436,3.2600349 21.3158813,3.27050611 21.5322862,3.35078534 C22.1291449,3.57417103 22.3664921,4.2443281 22.4188482,4.90750436 L22.4363002,4.70855148 Z" id="Path"></path>
                </g>
                <g id="Group" opacity="0.1" transform="translate(311.692845, 101.570681)" fill="#000000" fill-rule="nonzero">
                    <path d="M0.0104712042,2.77835951 C0.051557721,1.58831938 0.87371132,0.568450645 2.02792321,0.27574171 C3.5843643,-0.104717127 5.21726748,-0.0308246246 6.73298429,0.488656195 C10.0453752,1.58464223 6.31413613,5.52879581 6.31413613,5.52879581 C6.31413613,5.52879581 3.83246073,7.97207679 1.51832461,6.26527051 C0.834815016,5.7486699 0.356280474,5.00675588 0.167539267,4.17102967 C0.0542312404,3.71572189 0.00142055376,3.24746714 0.0104712042,2.77835951 L0.0104712042,2.77835951 Z" id="Path"></path>
                    <path d="M18.2198953,2.77835951 C18.1783773,1.58731826 17.3545455,0.567132717 16.1989529,0.27574171 C14.6436173,-0.104034222 13.0120249,-0.0301462237 11.4973822,0.488656195 C8.18499127,1.58464223 11.9162304,5.52879581 11.9162304,5.52879581 C11.9162304,5.52879581 14.3944154,7.97207679 16.7120419,6.26527051 C17.3955515,5.7486699 17.874086,5.00675588 18.0628272,4.17102967 C18.1761353,3.71572189 18.2289459,3.24746714 18.2198953,2.77835951 L18.2198953,2.77835951 Z" id="Path"></path>
                    <polygon id="Path" points="6.10820244 0.167539267 6.10820244 0.331588133 12.1570681 0.331588133 12.1570681 0.136125654"></polygon>
                    <path d="M8.03839442,1.91623037 L8.23036649,1.91623037 L8.23036649,1.36125654 C8.23036649,1.36125654 8.84467714,0.883071553 9.86387435,1.36125654 L9.86387435,1.85689354 L10.2129145,1.85689354 L10.2129145,1.53228621 L10.0418848,1.53228621 C10.0418848,1.53228621 10.1116928,0.858638743 8.97382199,0.966841187 C8.97382199,0.966841187 8.05933682,0.879581152 8.08027923,1.45898778 L7.87085515,1.45898778 L8.03839442,1.91623037 Z" id="Path"></path>
                </g>
                <path d="M311.703316,104.122164 C311.744402,102.932124 312.566556,101.912255 313.720768,101.619546 C315.277456,101.241629 316.909637,101.315489 318.425829,101.832461 C321.73822,102.931937 318.006981,106.8726 318.006981,106.8726 C318.006981,106.8726 315.525305,109.315881 313.211169,107.609075 C312.526304,107.093734 312.047419,106.351276 311.860384,105.514834 C311.746713,105.059592 311.693897,104.591289 311.703316,104.122164 L311.703316,104.122164 Z" id="Path" fill="#000000" fill-rule="nonzero"></path>
                <path d="M329.91274,104.122164 C329.871222,102.931123 329.04739,101.910937 327.891798,101.619546 C326.336291,101.24153 324.705199,101.315396 323.190227,101.832461 C319.877836,102.931937 323.609075,106.8726 323.609075,106.8726 C323.609075,106.8726 326.08726,109.315881 328.404887,107.609075 C329.089752,107.093734 329.568637,106.351276 329.755672,105.514834 C329.869342,105.059592 329.922159,104.591289 329.91274,104.122164 Z" id="Path" fill="#000000" fill-rule="nonzero"></path>
                <polygon id="Path" fill="#016CFA" fill-rule="nonzero" points="317.801047 101.518325 317.801047 101.685864 323.849913 101.685864 323.849913 101.486911"></polygon>
                <path d="M319.731239,103.267016 L319.923211,103.267016 L319.923211,102.712042 C319.923211,102.712042 320.537522,102.237347 321.556719,102.712042 L321.556719,103.211169 L321.905759,103.211169 L321.905759,102.883072 L321.734729,102.883072 C321.734729,102.883072 321.804538,102.212914 320.666667,102.317627 C320.666667,102.317627 319.752182,102.233857 319.773124,102.809773 L319.5637,102.809773 L319.731239,103.267016 Z" id="Path" fill="#016CFA" fill-rule="nonzero"></path>
                <rect id="Rectangle" fill="#535461" fill-rule="nonzero" x="40.9982548" y="159.577661" width="1.98254799" height="44.6422339"></rect>
                <path d="M55.4415358,204.08377 L55.3158813,206.094241 L55.1413613,208.931937 L55.0680628,210.115183 L54.8935428,212.95637 L54.8167539,214.139616 L54.6422339,216.977312 L52.6422339,249.253054 C52.4651564,252.136197 50.0753119,254.383944 47.1867365,254.383944 L36.7923211,254.383944 C33.904404,254.383944 31.515619,252.135646 31.3403141,249.253054 L29.3298429,216.977312 L29.1553229,214.139616 L29.0820244,212.95637 L28.9109948,210.108202 L28.8376963,208.924956 L28.6631763,206.08726 L28.5375218,204.076789 C28.4893474,203.29689 28.7656932,202.531765 29.3011036,201.962644 C29.836514,201.393522 30.5833615,201.071552 31.3647469,201.071552 L52.617801,201.071552 C53.4002019,201.070842 54.1479155,201.39439 54.6830098,201.965201 C55.2181042,202.536013 55.4927302,203.303045 55.4415358,204.08377 L55.4415358,204.08377 Z" id="Path" fill="#3F3D56" fill-rule="nonzero"></path>
                <polygon id="Path" fill="#9D9CB5" fill-rule="nonzero" points="55.3158813 206.094241 55.1413613 208.931937 28.8342059 208.931937 28.6596859 206.094241"></polygon>
                <polygon id="Path" fill="#9D9CB5" fill-rule="nonzero" points="55.0680628 210.115183 54.8935428 212.95637 29.0855148 212.95637 28.9075044 210.115183"></polygon>
                <polygon id="Path" fill="#9D9CB5" fill-rule="nonzero" points="54.8167539 214.139616 54.6422339 216.977312 29.3368237 216.977312 29.1588133 214.139616"></polygon>
                <path d="M25.6335079,176.310646 C37.1797557,184.663176 41.9895288,197.731239 41.9895288,197.731239 C41.9895288,197.731239 28.0732984,197.253054 16.5095986,188.900524 C4.94589878,180.547993 0.153577661,167.47993 0.153577661,167.47993 C0.153577661,167.47993 14.0837696,167.958115 25.6335079,176.310646 Z" id="Path" fill="#016CFA" fill-rule="nonzero"></path>
                <path d="M0.171029668,167.47993 C0.171029668,167.47993 14.6143106,175.507853 19.2460733,182.139616 C23.877836,188.771379 41.9895288,197.734729 41.9895288,197.734729" id="Path" stroke="#535461" stroke-width="2"></path>
                <path d="M33.0855148,159.497382 C39.3682373,164.034904 41.9895288,171.155323 41.9895288,171.155323 C41.9895288,171.155323 34.4153578,170.897033 28.1291449,166.34904 C21.8429319,161.801047 19.2286213,154.691099 19.2286213,154.691099 C19.2286213,154.691099 26.8027923,154.931937 33.0855148,159.497382 Z" id="Path" fill="#016CFA" fill-rule="nonzero"></path>
                <path d="M19.2286213,154.673647 C19.2286213,154.673647 27.0890052,159.036649 29.609075,162.649215 C32.1291449,166.26178 41.9895288,171.137871 41.9895288,171.137871" id="Path" stroke="#535461" stroke-width="2"></path>
                <path d="M51.1239092,170.77836 C43.9022688,178.712042 42.3769634,189.078534 42.3769634,189.078534 C42.3769634,189.078534 52.5549738,186.582897 59.7731239,178.649215 C66.991274,170.715532 68.5200698,160.34555 68.5200698,160.34555 C68.5200698,160.34555 58.3420593,162.841187 51.1239092,170.77836 Z" id="Path" fill="#016CFA" fill-rule="nonzero"></path>
                <path d="M68.5200698,160.34555 C68.5200698,160.34555 59.1169284,168.478185 56.7260035,174.08377 C54.3350785,179.689354 42.3769634,189.092496 42.3769634,189.092496" id="Path" stroke="#535461" stroke-width="2"></path>
            </g>
        </g>
    </g>
</svg>