<?xml version="1.0" encoding="UTF-8"?>
<svg width="191px" height="145px" viewBox="0 0 191 145" version="1.1" xmlns="http://www.w3.org/2000/svg" xmlns:xlink="http://www.w3.org/1999/xlink">
    <!-- Generator: Sketch 63.1 (92452) - https://sketch.com -->
    <title>illo-error</title>
    <desc>Created with Sketch.</desc>
    <g id="Static-pages" stroke="none" stroke-width="1" fill="none" fill-rule="evenodd">
        <g id="Error-page" transform="translate(-545.000000, -175.000000)" fill-rule="nonzero">
            <g id="illo-error" transform="translate(545.000000, 175.000000)">
                <g id="illo">
                    <path d="M176.874191,118.900642 C176.267509,119.505448 175.647296,120.092992 175.01355,120.663275 C174.906986,120.761092 174.797039,120.855074 174.688784,120.954809 C172.428303,122.942984 170.055108,124.760674 167.584518,126.396145 L167.122741,126.701105 C167.011103,126.777825 166.901156,126.848791 166.784443,126.919756 C164.203226,128.609505 161.525595,130.164994 158.815825,131.63801 L158.78707,131.655272 L158.582399,131.764597 C156.396992,132.952472 154.178883,134.089201 151.928071,135.174783 L151.873943,135.197798 C150.859048,135.68241 149.844153,136.154236 148.829258,136.613275 C148.414843,136.805074 147.998736,136.983447 147.582629,137.165656 C146.799468,137.50514 146.014616,137.83887 145.222998,138.159174 L145.124891,138.20137 L144.955742,138.2685 L144.744306,138.356727 C142.679558,139.19297 140.587183,139.965281 138.46718,140.673658 L138.429967,140.685166 C136.951603,141.173614 135.463654,141.62562 133.96612,142.041185 L133.76145,142.098724 C131.562511,142.700973 129.32805,143.21883 127.080058,143.633116 L126.562461,143.727097 C124.918331,144.01991 123.262925,144.25902 121.596241,144.444425 C112.227069,145.47055 102.746258,144.636224 93.4345957,143.205404 C74.6319737,140.313076 56.078001,134.89092 39.1563178,126.392309 C35.9086537,124.762018 32.7241386,123.016648 29.6027726,121.156198 C29.5774002,121.140854 29.5554108,121.12551 29.5300384,121.112084 C27.6615039,119.998372 25.8183418,118.837988 24.000552,117.630933 C23.4677321,117.281859 22.9382952,116.925113 22.4122413,116.566449 C21.7649638,116.124033 21.1205054,115.676502 20.4788662,115.223857 C19.6331204,114.625444 18.7873745,114.011687 17.9416286,113.384505 L17.5458196,113.085298 L17.3935853,112.968301 C17.1787659,112.805272 16.9673294,112.642243 16.7542015,112.477296 C8.80419035,106.33973 5.09813199,98.9017667 1.74897837,89.5937641 C-2.12115469,78.8530234 0.355189194,65.2352985 9.94087279,58.8867535 C13.2358987,56.7002456 13.6824525,55.5130101 17.5525855,54.5329175 L17.9483946,54.4331821 C18.6030019,54.270153 19.2576092,54.1128779 19.9088335,53.9556027 C22.1906558,53.4070577 24.4843186,52.8623487 26.755992,52.2543461 C27.9400362,51.9378779 29.11224,51.6060657 30.2776778,51.2474017 L30.7546784,51.0977985 C33.5653404,50.2427873 36.3141523,49.1450472 38.9770197,47.8142006 L38.9939346,47.8142006 C39.2797967,47.6703514 39.5622758,47.5207482 39.8396805,47.3673091 C40.0189786,47.2714096 40.1982767,47.1755101 40.3775749,47.0700207 C43.2531108,45.4474017 46.2977959,43.1976001 48.6405119,40.5162509 C48.8282675,40.3014361 49.0109486,40.0827853 49.1885552,39.8641345 C49.3255661,39.6934334 49.4608854,39.5208144 49.5911303,39.3481953 C51.2335687,37.1770313 52.3702512,34.7661186 52.5867621,32.2075207 C52.659663,31.3477536 52.6254982,30.4806314 52.4852726,29.6316609 C52.2197084,28.0224678 51.9626017,26.4477985 51.7731546,24.911489 C51.4196328,22.0249149 51.2995369,19.2649281 51.7900695,16.6046768 C52.2890596,13.8926398 53.4206675,11.2822562 55.5807025,8.75051013 C55.9065965,8.36691224 56.257863,7.98331436 56.6345018,7.59971647 C58.3813647,5.86193739 60.3579665,4.44584907 62.4921376,3.40315563 C62.7560104,3.27528967 63.0215746,3.14742371 63.2888302,3.01955774 C69.2225832,0.296012771 76.3522208,-0.271712097 83.0133152,0.104213829 C89.2365542,0.467361776 95.4202104,1.44280963 101.494554,3.01955774 C101.976629,3.14230907 102.458704,3.27081436 102.937396,3.40315563 C108.104639,4.82248477 113.188947,6.60518732 118.160822,8.74092018 C131.080436,14.2513038 143.274399,21.9021636 154.666596,30.345153 C154.778235,30.4276265 154.889873,30.5101001 155.004894,30.5944916 C155.480767,30.946123 155.953821,31.2990331 156.424056,31.6532218 C157.334079,32.3373047 158.236207,33.0258629 159.130443,33.7188964 L159.734305,34.1849678 C160.032008,34.4151265 160.328019,34.6459246 160.622338,34.877362 L161.528978,35.5889361 C161.571677,35.6180373 161.612387,35.6507352 161.650765,35.6867535 L162.422086,36.2928382 C162.868639,36.6457482 163.31181,37.0005763 163.756673,37.3573223 L164.710674,38.1245181 C164.908578,38.2856292 165.108175,38.4448223 165.306079,38.6078514 L166.320974,39.4479308 L166.547634,39.6397297 C166.594996,39.6780895 166.642358,39.7164493 166.688028,39.758645 L166.716783,39.7797429 C169.467149,42.0679043 172.151546,44.4404572 174.666794,46.9549413 L174.991561,47.2809995 L175.02539,47.3155234 C175.299412,47.5917138 175.573434,47.8717403 175.842381,48.1536847 C179.127258,51.54469 182.070454,55.1888699 184.475755,59.2166477 C195.524579,77.821145 192.244776,103.581661 176.874191,118.900642 Z" id="Path" fill="#016CFA" opacity="0.1"></path>
                    <g id="Group" opacity="0.1" transform="translate(168.924623, 28.961640)" fill="#000000">
                        <path d="M0.683376884,1.91415344 C0.904130653,1.34834656 0.326331658,0.794047619 0.249547739,0.187962963 C0.173711862,0.35903683 0.140767125,0.546006133 0.153567839,0.732671958 C0.191959799,1.19107143 0.537487437,1.61686508 0.620030151,2.04074074 C0.645004254,2.00058529 0.66621004,1.95820925 0.683376884,1.91415344 Z" id="Path"></path>
                        <path d="M16.6467538,3.17043651 C16.3069849,4.06421958 15.6869548,4.83525132 15.494995,5.77506614 C15.4527638,5.96686508 15.4297286,6.15866402 15.4066935,6.35046296 C15.6120905,5.41448413 16.2244422,4.64537037 16.5584523,3.75350529 C16.7098008,3.35186614 16.8035102,2.93085009 16.836794,2.50297619 C16.7912587,2.73014539 16.7277116,2.95333595 16.6467538,3.17043651 L16.6467538,3.17043651 Z" id="Path"></path>
                    </g>
                    <ellipse id="Oval" fill="#E6E8EC" cx="141.96003" cy="53.8897487" rx="1" ry="1"></ellipse>
                    <path d="M81.6328241,95.9742725 C81.6328241,95.9742725 83.7443819,94.4609788 85.9384824,95.3988757 C85.9384824,95.3988757 85.3242111,96.6992725 82.5983819,96.6820106 L81.6328241,95.9742725 Z" id="Path" fill="#016CFA"></path>
                    <path d="M81.3698392,96.0625 C81.3698392,96.0625 80.8054774,98.6 82.521598,100.245635 C82.521598,100.245635 83.481397,99.1715608 82.3929849,96.6724206 L81.3698392,96.0625 Z" id="Path" fill="#016CFA"></path>
                    <path d="M78.5710653,93.7532407 C78.5710653,93.7532407 78.6497688,91.6108466 83.5044322,92.1344577 C83.5044322,92.1344577 83.5812161,93.5134921 81.9111658,94.2308201 C80.2411156,94.9481481 79.4444824,94.428373 78.5710653,93.7532407 Z" id="Path" fill="#016CFA"></path>
                    <path d="M78.2735276,93.7436508 C78.2735276,93.7436508 76.2579497,94.4763228 78.2504925,98.9318122 C78.2504925,98.9318122 79.5942111,98.5789021 79.7554573,96.7702381 C79.9167035,94.9615741 79.1834171,94.3727513 78.2735276,93.7436508 Z" id="Path" fill="#016CFA"></path>
                    <path d="M75.4248442,90.8244709 C75.4248442,90.8244709 75.0140503,87.3203042 79.9627739,87.4910053 C79.9627739,87.4910053 80.434995,90.6595238 76.3289749,91.6357804 L75.4248442,90.8244709 Z" id="Path" fill="#016CFA"></path>
                    <path d="M72.011799,86.9808201 C72.011799,86.9808201 72.5358492,82.9703042 77.5133668,83.9695767 C77.5133668,83.9695767 77.6630955,87.4219577 72.8525829,87.899537 L72.011799,86.9808201 Z" id="Path" fill="#016CFA"></path>
                    <path d="M69.4721709,82.9683862 C69.4721709,82.9683862 70.455005,79.0365079 75.3864523,80.0204365 C75.3864523,80.0204365 74.3575477,83.553373 69.8196181,83.6646164 L69.4721709,82.9683862 Z" id="Path" fill="#016CFA"></path>
                    <path d="M67.055397,79.0480159 C67.055397,79.0480159 68.015196,74.9780423 72.7700402,76.0080026 C72.7700402,76.0080026 71.3418593,79.8938492 67.3951658,79.7231481 L67.055397,79.0480159 Z" id="Path" fill="#016CFA"></path>
                    <path d="M65.4486935,75.2983466 C65.4486935,75.2983466 66.1109548,70.3441799 70.5567437,71.2609788 C70.5567437,71.2609788 69.4510553,75.7912698 65.8038191,76.0022487 L65.4486935,75.2983466 Z" id="Path" fill="#016CFA"></path>
                    <path d="M63.9053367,70.7507937 C63.9053367,70.7507937 64.7365226,65.7467593 69.2379799,67.0203042 C69.2379799,67.0203042 67.6735075,71.778836 64.2470251,71.4316799 L63.9053367,70.7507937 Z" id="Path" fill="#016CFA"></path>
                    <path d="M62.8937085,66.5082011 C62.8937085,66.5082011 64.3257286,61.4811508 67.7733266,61.4830682 C67.7733266,61.4830682 66.3144322,66.7901455 63.2200402,67.4921296 L62.8937085,66.5082011 Z" id="Path" fill="#016CFA"></path>
                    <path d="M62.1968945,62.348082 C62.1968945,62.348082 63.7325729,56.3044974 66.5505427,56.6574074 C66.5505427,56.6574074 65.5043618,61.2720899 62.3274271,63.2744709 L62.1968945,62.348082 Z" id="Path" fill="#016CFA"></path>
                    <path d="M61.6997186,57.3708995 C61.6997186,57.3708995 63.1624523,52.3265873 65.9228342,52.023545 C65.9228342,52.023545 64.9841508,56.9662037 61.8129749,58.6617063 L61.6997186,57.3708995 Z" id="Path" fill="#016CFA"></path>
                    <path d="M61.1871859,52.738955 C61.1871859,52.738955 63.058794,47.675463 64.8824121,47.493254 C64.8824121,47.493254 64.1740804,52.4359127 61.4002613,53.5502646 L61.1871859,52.738955 Z" id="Path" fill="#016CFA"></path>
                    <path d="M60.7917487,48.4234788 C60.7917487,48.4234788 61.8532864,42.959127 63.6596281,42.4412698 C63.6596281,42.4412698 63.5809246,46.8794974 60.9913869,48.8205026 L60.7917487,48.4234788 Z" id="Path" fill="#016CFA"></path>
                    <path d="M59.8876181,42.7903439 C59.8876181,42.7903439 61.0566533,38.423082 62.5097889,37.7095899 C62.5097889,37.7095899 62.4118894,42.8076058 60.2715377,43.8318122 L59.8876181,42.7903439 Z" id="Path" fill="#016CFA"></path>
                    <path d="M59.1754472,39.0943783 L58.6149246,31.4933862 C58.6149246,31.4933862 61.5922211,37.1322751 59.4230754,40.423545 L59.1754472,39.0943783 Z" id="Path" fill="#016CFA"></path>
                    <path d="M56.750995,31.6123016 C56.750995,31.6123016 54.5511357,26.1326058 54.0635578,25.8410714 C54.0635578,25.8410714 58.0947136,29.2934524 57.9027538,33.9484127 L56.750995,31.6123016 Z" id="Path" fill="#016CFA"></path>
                    <path d="M75.2885528,90.803373 C75.2885528,90.803373 71.7718492,90.4811508 72.0655477,95.4180556 C72.0655477,95.4180556 75.2482412,95.8016534 76.1235779,91.6856481 L75.2885528,90.803373 Z" id="Path" fill="#016CFA"></path>
                    <path d="M71.8409548,86.8542328 C71.8409548,86.8542328 67.7963618,86.996164 68.3204121,92.0328042 C68.3204121,92.0328042 71.7372965,92.5084656 72.6759799,87.7710317 L71.8409548,86.8542328 Z" id="Path" fill="#016CFA"></path>
                    <path d="M69.4452965,83.2982804 C69.4452965,83.2982804 65.7078392,81.7178571 63.5290955,86.2462302 C63.5290955,86.2462302 66.9747739,87.550463 69.7965829,84.0021825 L69.4452965,83.2982804 Z" id="Path" fill="#016CFA"></path>
                    <path d="M66.9747739,79.0882937 C66.9747739,79.0882937 63.1451759,77.402381 61.1046432,81.8233466 C61.1046432,81.8233466 65.0724523,83.020172 67.3107035,79.7634259 L66.9747739,79.0882937 Z" id="Path" fill="#016CFA"></path>
                    <path d="M65.5005226,75.403836 C65.5005226,75.403836 61.7515477,72.0895503 58.9988442,75.6915344 C58.9988442,75.6915344 62.8034874,78.3901455 65.6963216,76.1652778 L65.5005226,75.403836 Z" id="Path" fill="#016CFA"></path>
                    <path d="M64.1068945,70.6261243 C64.1068945,70.6261243 60.3310452,67.2332011 57.6090553,71.0365741 C57.6090553,71.0365741 61.8052965,73.777381 64.2643015,71.3607143 L64.1068945,70.6261243 Z" id="Path" fill="#016CFA"></path>
                    <path d="M63.2622714,66.3490079 C63.2622714,66.3490079 60.2888141,62.0488757 57.0274171,63.1574735 C57.0274171,63.1574735 60.1141307,67.7146164 63.2699497,67.3770503 L63.2622714,66.3490079 Z" id="Path" fill="#016CFA"></path>
                    <path d="M62.2775176,62.3173942 C62.2775176,62.3173942 59.238794,56.8703042 56.6051055,57.9367063 C56.6051055,57.9367063 58.8049648,62.1275132 62.3869347,63.247619 L62.2775176,62.3173942 Z" id="Path" fill="#016CFA"></path>
                    <path d="M61.8820804,57.0793651 C61.8820804,57.0793651 58.8107236,52.8195106 56.1117688,53.4582011 C56.1117688,53.4582011 58.6533166,57.7986111 62.2122513,58.3337302 L61.8820804,57.0793651 Z" id="Path" fill="#016CFA"></path>
                    <path d="M61.4904824,52.6296296 C61.4904824,52.6296296 59.052593,47.8116402 57.2193769,47.8346561 C57.2193769,47.8346561 58.4882312,52.6641534 61.3695477,53.4562831 L61.4904824,52.6296296 Z" id="Path" fill="#016CFA"></path>
                    <path d="M60.8781307,48.3122354 C60.8781307,48.3122354 58.1906935,43.4405423 56.3056482,43.503836 C56.3056482,43.503836 57.7491859,47.7023148 60.8109447,48.753373 L60.8781307,48.3122354 Z" id="Path" fill="#016CFA"></path>
                    <path d="M60.3003317,43.0780423 C60.3003317,43.0780423 58.2713166,39.0387566 56.7049246,38.6340608 C56.7049246,38.6340608 57.8317286,43.6074074 60.1371658,44.1770503 L60.3003317,43.0780423 Z" id="Path" fill="#016CFA"></path>
                    <path d="M58.9470151,38.9582011 L54.5204221,32.7515873 C54.5204221,32.7515873 55.8334271,38.9888889 59.6035176,40.1454365 L58.9470151,38.9582011 Z" id="Path" fill="#016CFA"></path>
                    <path d="M55.8123116,32.1608466 C55.8123116,32.1608466 50.8213568,28.994246 50.629397,28.461045 C50.629397,28.461045 53.2899598,33.0642196 57.9046734,33.714418 L55.8123116,32.1608466 Z" id="Path" fill="#016CFA"></path>
                    <path d="M55.4629447,30.6648148 C55.4629447,30.6648148 49.6772764,25.5188492 48.2529347,25.5783069 C48.2529347,25.5783069 52.8599698,25.6128307 55.585799,30.3732804 L55.4629447,30.6648148 Z" id="Path" fill="#016CFA"></path>
                    <path d="M60.2772965,43.8759259 L60.0738191,43.9104497 C58.7109045,35.7494048 57.0024623,30.9601852 55.2460302,30.4269841 L55.3055377,30.2351852 C57.1617889,30.7952381 58.8798291,35.5154101 60.2772965,43.8759259 Z" id="Path" fill="#444053"></path>
                    <path d="M62.5692965,63.4279101 L62.2640804,63.4662698 C62.1700201,62.6990741 62.0913166,61.9203704 62.0260503,61.1416667 C61.473206,54.3634921 60.7802312,48.1472884 60.0047136,43.496164 L60.1736382,43.2698413 C60.9414774,47.9286376 61.7803417,54.3289683 62.3351055,61.1071429 C62.3965327,61.8916005 62.4771558,62.6722222 62.5692965,63.4279101 Z" id="Path" fill="#444053"></path>
                    <path d="M87.5144724,99.6606481 C87.458804,99.6376323 81.9591558,97.4338624 76.1254975,91.892791 C72.7099821,88.6505282 69.8300864,84.8881147 67.5928844,80.7454365 C64.7960302,75.5668651 62.9647337,69.1377646 62.1930553,62.8544312 L62.5193869,62.9925265 C64.2470251,77.0935847 71.0692764,86.5185847 76.3961608,91.5820767 C82.1722312,97.0732804 87.6104523,99.2540344 87.664201,99.2789683 L87.5144724,99.6606481 Z" id="Path" fill="#444053"></path>
                    <g id="Group" opacity="0.7" transform="translate(75.632161, 16.111111)">
                        <path d="M15.7042312,77.2930556 C15.7042312,77.2930556 18.1728342,76.4779101 19.9849347,78.0199735 C19.9849347,78.0199735 19.0116985,79.0806217 16.4144824,78.2520503 L15.7042312,77.2930556 Z" id="Path" fill="#016CFA"></path>
                        <path d="M15.4258894,77.2968915 C15.4258894,77.2968915 14.1320804,79.5524471 15.2838392,81.6353836 C15.2838392,81.6353836 16.5181407,80.8931217 16.2244422,78.1830026 L15.4258894,77.2968915 Z" id="Path" fill="#016CFA"></path>
                        <path d="M13.4410251,74.2626323 C13.4410251,74.2626323 14.1551156,72.2391534 18.6239397,74.1839947 C18.6239397,74.1839947 18.2860905,75.5265873 16.4778291,75.7183862 C14.6695678,75.9101852 14.0744925,75.1660053 13.4410251,74.2626323 Z" id="Path" fill="#016CFA"></path>
                        <path d="M13.1607638,74.1801587 C13.1607638,74.1801587 11.0165729,74.2818122 11.5943719,79.1266534 C11.5943719,79.1266534 12.9726432,79.1880291 13.6732965,77.5117063 C14.3739497,75.8353836 13.8422211,75.035582 13.1607638,74.1801587 Z" id="Path" fill="#016CFA"></path>
                        <path d="M11.3083518,70.5359788 C11.3083518,70.5359788 11.9610151,67.068254 16.6333166,68.702381 C16.6333166,68.702381 16.1399799,71.8670635 11.9303015,71.5793651 L11.3083518,70.5359788 Z" id="Path" fill="#016CFA"></path>
                        <path d="M9.19487437,65.8464947 C9.19487437,65.8464947 10.8898794,62.173545 15.3375879,64.6074735 C15.3375879,64.6074735 14.4564925,67.9390212 9.71892462,66.9723545 L9.19487437,65.8464947 Z" id="Path" fill="#016CFA"></path>
                        <path d="M7.96441206,61.260582 C7.96441206,61.260582 10.0759698,57.7986111 14.4910452,60.2037698 C14.4910452,60.2037698 12.4562714,63.2725529 8.09110553,62.0373677 L7.96441206,61.260582 Z" id="Path" fill="#016CFA"></path>
                        <path d="M6.82609045,56.7993386 C6.82609045,56.7993386 8.94916583,53.1973545 13.1895578,55.5948413 C13.1895578,55.5948413 10.6691256,58.8803571 6.94702513,57.5435185 L6.82609045,56.7993386 Z" id="Path" fill="#016CFA"></path>
                        <path d="M6.40953769,52.740873 C6.40953769,52.740873 8.52109548,48.204828 12.4831457,50.4047619 C12.4831457,50.4047619 10.0778894,54.3999339 6.53239196,53.5176587 L6.40953769,52.740873 Z" id="Path" fill="#016CFA"></path>
                        <path d="M6.28860302,47.9420635 C6.28860302,47.9420635 8.57292462,43.4117725 12.4908241,45.9665344 C12.4908241,45.9665344 9.57879397,50.0441799 6.40953769,48.6843254 L6.28860302,47.9420635 Z" id="Path" fill="#016CFA"></path>
                        <path d="M6.5880603,43.5863095 C6.5880603,43.5863095 9.4521005,39.2132937 12.7422915,40.239418 C12.7422915,40.239418 9.76883417,44.8732804 6.59957789,44.6239418 L6.5880603,43.5863095 Z" id="Path" fill="#016CFA"></path>
                        <path d="M7.1601005,39.4108466 C7.1601005,39.4108466 10.4234171,34.0960979 13.0110352,35.2737434 C13.0110352,35.2737434 10.6364925,39.3667328 7.01229146,40.3353175 L7.1601005,39.4108466 Z" id="Path" fill="#016CFA"></path>
                        <path d="M8.16980905,34.5103836 C8.16980905,34.5103836 11.068402,30.1316138 13.790392,30.6609788 C13.790392,30.6609788 11.4235276,35.1011243 7.88954774,35.7781746 L8.16980905,34.5103836 Z" id="Path" fill="#016CFA"></path>
                        <path d="M9.05666332,29.9378968 C9.05666332,29.9378968 12.3526131,25.6588624 14.1474372,26.0271164 C14.1474372,26.0271164 11.999407,30.5343915 9.02019095,30.7760582 L9.05666332,29.9378968 Z" id="Path" fill="#016CFA"></path>
                        <path d="M9.96463317,25.6991402 C9.96463317,25.6991402 12.6040804,20.7986772 14.4852864,20.840873 C14.4852864,20.840873 13.0878191,25.0604497 10.0356583,26.1383598 L9.96463317,25.6991402 Z" id="Path" fill="#016CFA"></path>
                        <path d="M10.7804623,20.0525794 C10.7804623,20.0525794 13.1953166,16.2319444 14.7962613,15.9806878 C14.7962613,15.9806878 13.183799,20.8197751 10.8361307,21.1592593 L10.7804623,20.0525794 Z" id="Path" fill="#016CFA"></path>
                        <path d="M11.1989347,16.310582 L12.9265729,8.88988095 C12.9265729,8.88988095 14.0917688,15.1559524 11.0453668,17.6608466 L11.1989347,16.310582 Z" id="Path" fill="#016CFA"></path>
                        <path d="M11.1125528,8.44874339 C11.1125528,8.44874339 10.6441709,2.56243386 10.2621709,2.1385582 C10.2621709,2.1385582 13.0897387,6.63816138 11.5099095,11.0188492 L11.1125528,8.44874339 Z" id="Path" fill="#016CFA"></path>
                        <path d="M11.1854975,70.4707672 C11.1854975,70.4707672 7.9221809,69.1147487 6.73586935,73.9231481 C6.73586935,73.9231481 9.65557789,75.2446429 11.7268241,71.5659392 L11.1854975,70.4707672 Z" id="Path" fill="#016CFA"></path>
                        <path d="M9.0701005,65.6738757 C9.0701005,65.6738757 5.16755779,64.6074735 4.16552764,69.5789021 C4.16552764,69.5789021 7.28487437,71.05 9.59415075,66.8054894 L9.0701005,65.6738757 Z" id="Path" fill="#016CFA"></path>
                        <path d="M7.84155779,61.5674603 C7.84155779,61.5674603 4.74524623,58.9474868 1.31492462,62.6242725 C1.31492462,62.6242725 4.21543719,64.893254 7.96633166,62.344246 L7.84155779,61.5674603 Z" id="Path" fill="#016CFA"></path>
                        <path d="M6.73586935,56.8146825 C6.73586935,56.8146825 3.58388945,54.0662037 0.318653266,57.6854497 C0.318653266,57.6854497 3.74897487,60.0062169 6.85680402,57.5607804 L6.73586935,56.8146825 Z" id="Path" fill="#016CFA"></path>
                        <path d="M6.42681407,52.8578704 C6.42681407,52.8578704 3.83343719,48.578836 0.134371859,51.1988095 C0.134371859,51.1988095 2.9619397,54.9082011 6.38650251,53.642328 L6.42681407,52.8578704 Z" id="Path" fill="#016CFA"></path>
                        <path d="M6.51895477,47.8806878 C6.51895477,47.8806878 3.92365829,43.5210979 0.184281407,46.3462963 C0.184281407,46.3462963 3.37465327,50.211045 6.44217085,48.6344577 L6.51895477,47.8806878 Z" id="Path" fill="#016CFA"></path>
                        <path d="M6.98349749,43.5460317 C6.98349749,43.5460317 5.42670352,38.5592593 1.98102513,38.6455688 C1.98102513,38.6455688 3.57237186,43.9162037 6.6840402,44.5395503 L6.98349749,43.5460317 Z" id="Path" fill="#016CFA"></path>
                        <path d="M7.24648241,39.4050926 C7.24648241,39.4050926 5.96611055,33.3020503 3.13470352,33.537963 C3.13470352,33.537963 3.98700503,38.1929233 7.07371859,40.3257275 L7.24648241,39.4050926 Z" id="Path" fill="#016CFA"></path>
                        <path d="M8.42895477,34.2859788 C8.42895477,34.2859788 6.76466332,29.2992063 3.99660302,29.1074074 C3.99660302,29.1074074 5.13300503,34.0097884 8.36944724,35.5767857 L8.42895477,34.2859788 Z" id="Path" fill="#016CFA"></path>
                        <path d="M9.37915578,29.9225529 C9.37915578,29.9225529 8.48654271,24.5982143 6.72819095,24.0784392 C6.72819095,24.0784392 6.50167839,29.0652116 9.01827136,30.6801587 L9.37915578,29.9225529 Z" id="Path" fill="#016CFA"></path>
                        <path d="M10.089407,25.6185847 C10.089407,25.6185847 8.97028141,20.1676587 7.15626131,19.6728175 C7.15626131,19.6728175 7.28295477,24.109127 9.89552764,26.0232804 L10.089407,25.6185847 Z" id="Path" fill="#016CFA"></path>
                        <path d="M11.087598,20.4515212 C11.087598,20.4515212 10.352392,15.9921958 8.9760402,15.1367725 C8.9760402,15.1367725 8.57100503,20.2213624 10.6019397,21.4507937 L11.087598,20.4515212 Z" id="Path" fill="#016CFA"></path>
                        <path d="M11.0223317,16.1149471 L8.64394975,8.87453704 C8.64394975,8.87453704 8.03927638,15.221164 11.2949146,17.4460317 L11.0223317,16.1149471 Z" id="Path" fill="#016CFA"></path>
                        <path d="M10.0529347,8.69424603 C10.0529347,8.69424603 6.23101508,4.1869709 6.21373869,3.61924603 C6.21373869,3.61924603 7.38277387,8.79781746 11.5886131,10.7963624 L10.0529347,8.69424603 Z" id="Path" fill="#016CFA"></path>
                        <path d="M10.1642714,7.16177249 C10.1642714,7.16177249 6.17342714,0.52744709 4.78939698,0.161111111 C4.78939698,0.161111111 9.18143719,1.56507937 10.3562312,6.92010582 L10.1642714,7.16177249 Z" id="Path" fill="#016CFA"></path>
                        <path d="M10.8265327,21.205291 L10.6230553,21.1765212 C11.7517789,12.9809524 11.5406231,7.89828042 10.0279799,6.86832011 L10.1450754,6.69953704 C11.7479397,7.79087302 11.9840503,12.8044974 10.8265327,21.205291 Z" id="Path" fill="#444053"></path>
                        <path d="M7.19465327,40.5539683 L6.89135678,40.4983466 C7.02956784,39.7407407 7.18505528,38.963955 7.3578191,38.2082672 C8.84742714,31.5739418 10.0452563,25.4325397 10.6806432,20.7545635 L10.9090754,20.5896164 C10.2640905,25.2675926 9.15072362,31.6257275 7.65727638,38.2677249 C7.48835176,39.0349206 7.33094472,39.8001984 7.19465327,40.5539683 Z" id="Path" fill="#444053"></path>
                        <path d="M20.2210452,82.5598545 C20.1749749,82.5234127 15.5794573,78.7814153 11.6615578,71.7596561 C9.36214798,67.649384 7.73003368,63.2005984 6.82609045,58.5792328 C5.69736683,52.8022487 5.86629146,46.1123016 6.99693467,39.8941799 L7.26759799,40.1224206 C4.72413065,54.1007275 8.41935678,65.1253307 12.0032462,71.5429233 C15.8827538,78.5013889 20.4245226,82.2031085 20.470593,82.2395503 L20.2210452,82.5598545 Z" id="Path" fill="#444053"></path>
                    </g>
                    <g id="Group" opacity="0.1" transform="translate(18.236181, 106.256614)" fill="#000000">
                        <path d="M7.93945729,0.702 L8.26003015,0.736 L8.26003015,0.9 L6.47096482,0.7 C4.6799799,0.512 1.94263317,0.244 0.136291457,0.166 C1.38594975,0.05 5.52268342,0.448 7.93945729,0.702 Z" id="Path"></path>
                    </g>
                    <g id="Group" opacity="0.1" transform="translate(18.620101, 63.677249)" fill="#000000">
                        <path d="M0.032,0.312632275 C0.0384853724,0.236714846 0.0525497883,0.161569086 0.074,0.0882275132 C0.396,0.575396825 0.798,1.04722222 0.836,1.62261905 C0.845186217,1.75457438 0.833725929,1.88710514 0.802,2.01580688 C0.444,1.46342593 -0.018,0.947486772 0.032,0.312632275 Z" id="Path"></path>
                    </g>
                    <g id="Group" opacity="0.5" transform="translate(130.340704, 112.394180)" fill="#016CFA">
                        <path d="M5.33264322,0.193716931 C5.33264322,0.193716931 -0.537487437,-0.159193122 0.149728643,3.9510582 C0.0773637138,4.37847564 0.287972876,4.80398289 0.671859296,5.00595238 C0.671859296,5.00595238 0.671859296,4.70099206 1.27269347,4.80456349 C1.48374471,4.84056577 1.69838598,4.85087022 1.9119196,4.83525132 C2.19977421,4.81652295 2.47354336,4.70400784 2.69127638,4.51494709 L2.69127638,4.51494709 C2.69127638,4.51494709 4.34021106,3.83406085 4.98327638,1.13736772 C4.98327638,1.13736772 5.45741709,0.550462963 5.43822111,0.398941799 L4.44770854,0.82281746 C4.44770854,0.82281746 4.78747739,1.53630952 4.52065327,2.12896825 C4.52065327,2.12896825 4.4880201,0.847751323 4.2979799,0.878439153 C4.25958794,0.878439153 3.78352764,1.12585979 3.78352764,1.12585979 C3.78352764,1.12585979 4.35940704,2.36871693 3.92557789,3.27400794 C3.92557789,3.27400794 4.09258291,1.7396164 3.60116583,1.21600529 L2.90435176,1.62261905 C2.90435176,1.62261905 3.58388945,2.90767196 3.12318593,3.95489418 C3.12318593,3.95489418 3.24220101,2.34761905 2.75654271,1.7223545 L2.12499497,2.21335979 C2.12499497,2.21335979 2.76422111,3.4792328 2.37454271,4.35 C2.37454271,4.35 2.32463317,2.47804233 1.99062312,2.33611111 C1.99062312,2.33611111 1.43777889,2.82328042 1.35331658,3.02466931 C1.35331658,3.02466931 1.79098492,3.94338624 1.52032161,4.42863757 C1.52032161,4.42863757 1.35331658,3.18002646 1.21702513,3.17619048 C1.21702513,3.17619048 0.666100503,4.00092593 0.608512563,4.5667328 C0.63507202,4.04337336 0.798558927,3.5361289 1.08265327,3.09563492 C0.765173106,3.15643564 0.472322377,3.30840378 0.239949749,3.53293651 C0.239949749,3.53293651 0.32441206,2.95753968 1.21894472,2.89616402 C1.21894472,2.89616402 1.67388945,2.27089947 1.79482412,2.23253968 C1.79482412,2.23253968 0.906050251,2.1577381 0.366643216,2.39748677 C0.366643216,2.39748677 0.84078392,1.84510582 1.95607035,2.09636243 L2.5799397,1.58809524 C2.5799397,1.58809524 1.41090452,1.42698413 0.913728643,1.60343915 C0.913728643,1.60343915 1.48960804,1.11626984 2.74886432,1.47109788 L3.42840201,1.06640212 C3.42840201,1.06640212 2.43021106,0.851587302 1.83513568,0.928306878 C1.83513568,0.928306878 2.46284422,0.590740741 3.6280402,0.95707672 L4.11369849,0.738425926 C4.11369849,0.738425926 3.38233166,0.59457672 3.16733668,0.573478836 C2.95234171,0.552380952 2.94274372,0.491005291 2.94274372,0.491005291 C3.40564984,0.41448968 3.8807219,0.467600054 4.31525628,0.644444444 C4.31525628,0.644444444 5.3499196,0.258928571 5.33264322,0.193716931 Z" id="Path"></path>
                    </g>
                    <g id="Group" opacity="0.5" transform="translate(124.006030, 83.816138)" fill="#016CFA">
                        <path d="M1.13448241,0.0671296296 C1.13448241,0.0671296296 -1.84665327,5.13253968 2.13459296,6.38306878 C2.48300302,6.64174581 2.95818907,6.64793197 3.31322613,6.3984127 C3.31322613,6.3984127 3.04640201,6.25072751 3.40536683,5.77123016 C3.53281508,5.59948588 3.63975694,5.41345998 3.7240201,5.21693122 C3.83607608,4.95136785 3.85963233,4.65682523 3.79120603,4.37685185 L3.79120603,4.37685185 C3.79120603,4.37685185 3.93133668,2.59887566 1.81977889,0.803637566 C1.81977889,0.803637566 1.51072362,0.113161376 1.36867337,0.0613756614 L1.29572864,1.13544974 C1.29572864,1.13544974 2.08468342,1.15846561 2.49355779,1.66481481 C2.49355779,1.66481481 1.34179899,1.11243386 1.27653266,1.29464286 C1.26501508,1.33300265 1.26309548,1.87003968 1.26309548,1.87003968 C1.26309548,1.87003968 2.63752764,1.91607143 3.2441206,2.71779101 C3.2441206,2.71779101 1.95415075,1.87387566 1.26117588,2.07334656 L1.30724623,2.87890212 C1.30724623,2.87890212 2.76230151,2.85588624 3.48790955,3.74199735 C3.48790955,3.74199735 2.10771859,2.90575397 1.33028141,3.05343915 L1.48192965,3.83981481 C1.48192965,3.83981481 2.90243216,3.83981481 3.49942714,4.5859127 C3.49942714,4.5859127 1.80826131,3.78227513 1.5299196,4.01051587 C1.5299196,4.01051587 1.7218794,4.72400794 1.85241206,4.89087302 C1.85241206,4.89087302 2.87171859,4.91772487 3.18077387,5.37996032 C3.18077387,5.37996032 1.99254271,4.96183862 1.92535678,5.08075397 C1.92535678,5.08075397 2.41293467,5.9457672 2.88515578,6.25456349 C2.43068527,5.9926558 2.05278569,5.61639542 1.78906533,5.16322751 C1.69423951,5.47587188 1.69423951,5.80957785 1.78906533,6.12222222 C1.78906533,6.12222222 1.30724623,5.78082011 1.66813065,4.97142857 C1.66813065,4.97142857 1.31492462,4.28287037 1.3360402,4.15628307 C1.3360402,4.15628307 0.867658291,4.91388889 0.835025126,5.49887566 C0.835025126,5.49887566 0.558603015,4.82566138 1.28805025,3.94530423 L1.11912563,3.15892857 C1.11912563,3.15892857 0.445346734,4.12943122 0.376241206,4.65112434 C0.376241206,4.65112434 0.201557789,3.92037037 1.09225126,2.95753968 L1.03850251,2.16924603 C1.03850251,2.16924603 0.393517588,2.95945767 0.193879397,3.52334656 C0.193879397,3.52334656 0.176603015,2.81177249 1.03082412,1.94100529 L1.05769849,1.40972222 C1.05769849,1.40972222 0.596994975,1.99662698 0.481819095,2.17691799 C0.366643216,2.35720899 0.307135678,2.33994709 0.307135678,2.33994709 C0.448089554,1.89347024 0.710633515,1.49500348 1.06537688,1.18915344 C1.06537688,1.18915344 1.19974874,0.0805555556 1.13448241,0.0671296296 Z" id="Path"></path>
                    </g>
                    <g id="Group" opacity="0.5" transform="translate(105.385930, 43.346561)" fill="#016CFA">
                        <path d="M1.10952764,0.122751323 C1.10952764,0.122751323 -1.86968844,5.19007937 2.10963819,6.43869048 C2.45764191,6.69856555 2.93360925,6.70476188 3.28827136,6.45403439 C3.28827136,6.45403439 3.02144724,6.30634921 3.38233166,5.82685185 C3.50922877,5.65508923 3.61553238,5.46905287 3.69906533,5.27255291 C3.81206971,5.00722164 3.83565081,4.71236826 3.76625126,4.43247354 L3.76625126,4.43247354 C3.76625126,4.43247354 3.90830151,2.65449735 1.79482412,0.859259259 C1.79482412,0.859259259 1.48576884,0.170701058 1.34371859,0.118915344 L1.27077387,1.19107143 C1.27077387,1.19107143 2.06164824,1.2140873 2.46860302,1.72043651 C2.46860302,1.72043651 1.31684422,1.16805556 1.25349749,1.35026455 C1.2400603,1.38862434 1.2400603,1.92566138 1.2400603,1.92566138 C1.2400603,1.92566138 2.61257286,1.97169312 3.21916583,2.7734127 C3.21916583,2.7734127 1.92919598,1.92949735 1.23622111,2.12896825 L1.28421106,2.93452381 C1.28421106,2.93452381 2.73734673,2.91150794 3.46295477,3.79761905 C3.46295477,3.79761905 2.08276382,2.96329365 1.30532663,3.10906085 L1.45697487,3.89543651 C1.45697487,3.89543651 2.87747739,3.89543651 3.47639196,4.64345238 C3.47639196,4.64345238 1.78330653,3.83789683 1.50496482,4.06805556 C1.50496482,4.06805556 1.69692462,4.77962963 1.82937688,4.94649471 C1.82937688,4.94649471 2.84676382,4.97334656 3.1558191,5.43558201 C3.1558191,5.43558201 1.96758794,5.01746032 1.90232161,5.13637566 C1.90232161,5.13637566 2.3879799,6.00330688 2.8621206,6.31018519 C2.40724305,6.04900232 2.02869812,5.67341955 1.76411055,5.2207672 C1.67226361,5.52992975 1.67226361,5.85909141 1.76411055,6.16825397 C1.76411055,6.16825397 1.28229146,5.82685185 1.64317588,5.00787037 C1.64317588,5.00787037 1.28996985,4.31931217 1.31108543,4.19272487 C1.31108543,4.19272487 0.842703518,4.95033069 0.810070352,5.53531746 C0.810070352,5.53531746 0.533648241,4.86210317 1.26501508,3.98174603 L1.09417085,3.19537037 C1.09417085,3.19537037 0.42039196,4.16587302 0.35320603,4.68756614 C0.35320603,4.68756614 0.176603015,3.95681217 1.06729648,2.99398148 L1.01354774,2.20568783 C1.01354774,2.20568783 0.368562814,2.99589947 0.168924623,3.55978836 C0.168924623,3.55978836 0.151648241,2.84821429 1.00586935,1.97936508 L1.03274372,1.44616402 C1.03274372,1.44616402 0.572040201,2.03306878 0.456864322,2.21335979 C0.341688442,2.39365079 0.282180905,2.37638889 0.282180905,2.37638889 C0.426450729,1.92910816 0.692287711,1.53068684 1.0500201,1.22559524 C1.0500201,1.22559524 1.17479397,0.145767196 1.10952764,0.122751323 Z" id="Path"></path>
                    </g>
                    <g id="Group" opacity="0.5" transform="translate(35.896482, 4.986772)" fill="#016CFA">
                        <path d="M6.41529648,0.105489418 C6.41529648,0.105489418 -4.6799799,8.16104497 2.66440201,14.5421958 C2.66440201,14.5421958 3.49558794,16.0535714 5.17139698,15.6718915 C5.17139698,15.6718915 4.73756784,15.1080026 5.95651256,14.4175265 C6.38858241,14.1694797 6.78942338,13.8707106 7.15050251,13.5275794 C7.63888237,13.067984 7.96432175,12.4620834 8.07766834,11.8013889 L8.07766834,11.8013889 C8.07766834,11.8013889 10.0394975,8.13035714 7.19657286,2.32652116 C7.19657286,2.32652116 7.17929648,0.563888889 6.92015075,0.320304233 L5.76839196,2.54900794 C5.76839196,2.54900794 7.43652261,3.33346561 7.83771859,4.79689153 C7.83771859,4.79689153 5.87780905,2.53558201 5.58027136,2.87890212 C5.52076382,2.94603175 5.01974874,4.08723545 5.01974874,4.08723545 C5.01974874,4.08723545 7.91642211,5.46435185 8.46542714,7.74292328 C8.46542714,7.74292328 6.4920804,4.73551587 4.81819095,4.51686508 L4.16744724,6.28333333 C4.16744724,6.28333333 7.29831156,7.58948413 8.0239196,10.1595899 C8.0239196,10.1595899 5.85093467,7.09080688 4.05035176,6.67843915 L3.64339698,8.50244709 C3.64339698,8.50244709 6.67252261,9.83544974 7.2618392,11.9778439 C7.2618392,11.9778439 4.38244221,8.6827381 3.57813065,8.92632275 C3.57813065,8.92632275 3.30554774,10.6218254 3.44951759,11.1070767 C3.44951759,11.1070767 5.60330653,12.1140212 5.83365829,13.3894841 C5.83365829,13.3894841 3.68178894,11.3909392 3.42840201,11.5827381 C3.42840201,11.5827381 3.66259296,13.8843254 4.39971859,14.9910053 C4.39971859,14.9910053 3.19229146,13.4393519 3.06943719,11.6383598 C3.06943719,11.6383598 2.24592965,12.5973545 2.1998593,13.6733466 C2.1998593,13.6733466 1.48576884,12.4937831 3.01952764,11.0783069 C3.01952764,11.0783069 2.91011055,9.27539683 3.07327638,9.0260582 C3.07327638,9.0260582 1.36099497,10.2094577 0.74480402,11.4369709 C0.74480402,11.4369709 0.781276382,9.74146825 3.16349749,8.53888889 L3.5320603,6.69953704 C3.5320603,6.69953704 1.18823116,8.14378307 0.556683417,9.19292328 C0.556683417,9.19292328 0.861899497,7.4667328 3.66259296,6.2353836 L4.28454271,4.49960317 C4.28454271,4.49960317 2.17298492,5.59093915 1.21318593,6.60939153 C1.21318593,6.60939153 1.84089447,5.075 4.47650251,4.00667989 L5.02742714,2.89424603 C5.02742714,2.89424603 3.49174874,3.71898148 3.07903518,3.99517196 C2.66632161,4.27136243 2.55114573,4.1869709 2.55114573,4.1869709 C3.27020233,3.3620308 4.20465141,2.7530893 5.2501005,2.4281746 C5.2501005,2.4281746 6.54390955,0.195634921 6.41529648,0.105489418 Z" id="Path"></path>
                    </g>
                    <g id="Group" opacity="0.5" transform="translate(14.780905, 29.920635)" fill="#016CFA">
                        <path d="M16.7523317,1.75304233 C16.7523317,1.75304233 2.39949749,-4.2771164 0.518291457,6.59596561 C0.518291457,6.59596561 -0.462623116,8.29146825 0.902211055,9.69160053 C0.902211055,9.69160053 1.19590955,8.93974868 2.58377889,9.71653439 C3.07880016,9.9900824 3.60462293,10.2038408 4.15017085,10.3533069 C4.88693189,10.556369 5.66979162,10.5146335 6.38074372,10.2343915 L6.38074372,10.2343915 C6.38074372,10.2343915 11.0991156,9.97929894 15.0707638,3.80912698 C15.0707638,3.80912698 16.7715276,2.75806878 16.8579095,2.36296296 L14.0111457,2.5547619 C14.0111457,2.5547619 14.2299799,4.63578042 13.0513467,5.88439153 C13.0513467,5.88439153 14.0975276,2.65449735 13.594593,2.56435185 C13.4928543,2.54517196 12.0915477,2.72929894 12.0915477,2.72929894 C12.0915477,2.72929894 12.4543518,6.34854497 10.5558693,8.22050265 C10.5558693,8.22050265 12.3180603,4.53988095 11.5502211,2.79451058 L9.4521005,3.19920635 C9.4521005,3.19920635 10.0279799,7.00641534 7.95097487,9.21977513 C7.95097487,9.21977513 9.65749749,5.30707672 8.99907538,3.32003968 L6.98733668,3.99517196 C6.98733668,3.99517196 7.47299497,7.71798942 5.73575879,9.55734127 C5.73575879,9.55734127 7.25224121,4.83716931 6.53815075,4.1869709 C6.53815075,4.1869709 4.72988945,4.91964286 4.34213065,5.33776455 C4.34213065,5.33776455 4.63007035,8.02294974 3.52438191,8.99153439 C3.52438191,8.99153439 4.2039196,5.73095238 3.86798995,5.59669312 C3.86798995,5.59669312 1.76603015,7.1771164 1.12488442,8.54080688 C1.12488442,8.54080688 1.92535678,6.45787037 3.60308543,5.28022487 C3.60308543,5.28022487 2.1941005,5.04047619 1.10760804,5.63121693 C1.10760804,5.63121693 1.83513568,4.24834656 4.11177889,4.90429894 C4.11177889,4.90429894 5.79910553,3.73624339 6.13695477,3.75350529 C6.13695477,3.75350529 3.98316583,2.79451058 2.42637186,2.91342593 C2.42637186,2.91342593 4.09450251,1.95443122 6.66292462,3.55595238 L8.66506533,2.83095238 C8.66506533,2.83095238 5.88356784,1.40588624 4.4880201,1.41164021 C4.4880201,1.41164021 6.34235176,0.694312169 9.18719598,2.68902116 L11.2411658,2.2651455 C11.2411658,2.2651455 8.93764824,0.85542328 7.38277387,0.529365079 C7.38277387,0.529365079 9.24670352,0.233994709 11.832402,2.16924603 L13.2375477,2.05224868 C13.2375477,2.05224868 11.5367839,1.0510582 11.0223317,0.807473545 C10.5078794,0.563888889 10.5309146,0.406613757 10.5309146,0.406613757 C11.7553651,0.619027428 12.8965476,1.16755789 13.8268643,1.99087302 C13.8268643,1.99087302 16.7388945,1.93141534 16.7523317,1.75304233 Z" id="Path"></path>
                    </g>
                    <g id="Group" opacity="0.5" transform="translate(8.830151, 8.630952)" fill="#016CFA">
                        <path d="M14.1090452,7.81772487 C14.1090452,7.81772487 9.02019095,-3.9337963 1.70460302,1.45575397 C1.70460302,1.45575397 0.155487437,1.90456349 0.168837709,3.50800265 C0.168837709,3.50800265 0.771678392,3.22797619 1.15175879,4.48042328 C1.29346561,4.92405713 1.48674501,5.34955922 1.72763819,5.74821429 C2.04921468,6.28870355 2.53852227,6.70958644 3.12126633,6.94695767 L3.12126633,6.94695767 C3.12126633,6.94695767 6.06976884,9.48253968 11.9514171,8.07665344 C11.9514171,8.07665344 13.5619598,8.41997354 13.8383819,8.23584656 L12.0397186,6.72638889 C12.0397186,6.72638889 10.9839397,8.08816138 9.56727638,8.15337302 C9.56727638,8.15337302 12.0301206,6.82996032 11.7824925,6.49047619 C11.7325829,6.42142857 10.7958191,5.73478836 10.7958191,5.73478836 C10.7958191,5.73478836 8.94724623,8.09007937 6.76466332,8.12652116 C6.76466332,8.12652116 9.91088442,6.9412037 10.4483719,5.47010582 L8.97028141,4.51111111 C8.97028141,4.51111111 7.11403015,7.10615079 4.62047236,7.24232804 C4.62047236,7.24232804 7.86459296,5.8901455 8.60747739,4.3327381 L7.02764824,3.59814815 C7.02764824,3.59814815 5.19251256,6.09153439 3.11742714,6.18551587 C3.11742714,6.18551587 6.70899497,4.24451058 6.65332663,3.45238095 C6.65332663,3.45238095 5.16179899,2.85780423 4.68957789,2.89232804 C4.68957789,2.89232804 3.33242211,4.64728836 2.12115578,4.59742063 C2.12115578,4.59742063 4.38436181,3.0457672 4.25958794,2.77533069 C4.25958794,2.77533069 2.10963819,2.51832011 0.952120603,2.96712963 C0.952120603,2.96712963 2.61449246,2.18458995 4.28262312,2.44160053 C4.28262312,2.44160053 3.58196985,1.49603175 2.60297487,1.2332672 C2.60297487,1.2332672 3.82575879,0.82473545 4.80283417,2.50873016 C4.80283417,2.50873016 6.47096482,2.77724868 6.66484422,2.97671958 C6.66484422,2.97671958 5.93539698,1.17572751 4.93720603,0.364417989 C4.93720603,0.364417989 6.47288442,0.748015873 7.08907538,3.15892857 L8.6919397,3.87050265 C8.6919397,3.87050265 7.85307538,1.43849206 7.01996985,0.650198413 C7.01996985,0.650198413 8.53069347,1.27929894 9.08353769,4.08339947 L10.5405126,5.0021164 C10.5405126,5.0021164 9.97615075,2.85396825 9.24094472,1.77414021 C9.24094472,1.77414021 10.5155578,2.66025132 10.9493869,5.28214286 L11.851598,6.01097884 C11.851598,6.01097884 11.4100905,4.44973545 11.2430854,4.01243386 C11.0760804,3.57513228 11.1816583,3.49457672 11.1816583,3.49457672 C11.7871414,4.31748365 12.151986,5.29224336 12.2355176,6.31018519 C12.2355176,6.31018519 14.0015477,7.91937831 14.1090452,7.81772487 Z" id="Path"></path>
                    </g>
                    <g id="Group" opacity="0.5" transform="translate(116.135678, 18.220899)" fill="#016CFA">
                        <path d="M5.98530653,4.34232804 C5.98530653,4.34232804 4.78555779,-1.41164021 0.994351759,0.335648148 C0.561732399,0.376995409 0.205105905,0.692267917 0.111336683,1.11626984 C0.111336683,1.11626984 0.408874372,1.04530423 0.464542714,1.64371693 C0.485616392,1.85607848 0.531354565,2.06526791 0.600834171,2.26706349 C0.696711308,2.53920652 0.877777195,2.77325161 1.11720603,2.93452381 L1.11720603,2.93452381 C1.11720603,2.93452381 2.20753769,4.34616402 4.97751759,4.25793651 C4.97751759,4.25793651 5.67049246,4.56097884 5.81254271,4.50343915 L5.14260302,3.65952381 C5.14260302,3.65952381 4.54176884,4.17354497 3.90062312,4.07189153 C3.90062312,4.07189153 5.12916583,3.70555556 5.05238191,3.52910053 C5.03510553,3.49265873 4.6780603,3.09755291 4.6780603,3.09755291 C4.6780603,3.09755291 3.6299598,3.98558201 2.64136683,3.79953704 C2.64136683,3.79953704 4.16360804,3.55787037 4.54368844,2.94603175 L3.96780905,2.38022487 C3.96780905,2.38022487 2.90435176,3.37374339 1.77178894,3.20304233 C1.77178894,3.20304233 3.35545729,2.89616402 3.83343719,2.2651455 L3.19229146,1.78564815 C3.19229146,1.78564815 2.13651256,2.73313492 1.19398995,2.58544974 C1.19398995,2.58544974 2.98881407,2.04457672 3.03680402,1.68399471 C3.03680402,1.68399471 2.42253266,1.27929894 2.20561809,1.2505291 C2.20561809,1.2505291 1.43777889,1.91415344 0.894532663,1.77989418 C0.894532663,1.77989418 2.04629146,1.29272487 2.02517588,1.15846561 C2.02517588,1.15846561 1.08265327,0.843915344 0.520211055,0.937896825 C1.03271722,0.826906036 1.56533203,0.851365955 2.06548744,1.00886243 C1.92438163,0.718111339 1.7007288,0.47530115 1.42242211,0.310714286 C1.42242211,0.310714286 2.0098191,0.239748677 2.2939196,1.07791005 C2.2939196,1.07791005 3.01760804,1.35218254 3.08671357,1.46150794 C3.08671357,1.46150794 2.92546734,0.584986772 2.55306533,0.118915344 C2.55306533,0.118915344 3.20956784,0.431547619 3.26139698,1.57466931 L3.9159799,2.04265873 C3.9159799,2.04265873 3.76433166,0.872685185 3.46295477,0.439219577 C3.46295477,0.439219577 4.08298492,0.863095238 4.07146734,2.16541005 L4.64734673,2.71395503 C4.64734673,2.71395503 4.59359799,1.69550265 4.36324623,1.14312169 C4.36324623,1.14312169 4.85274372,1.65906085 4.80475377,2.86931217 L5.14260302,3.28167989 C5.14260302,3.28167989 5.09077387,2.53941799 5.05622111,2.32268519 C5.02166834,2.10595238 5.07541709,2.08293651 5.07541709,2.08293651 C5.2716333,2.50964276 5.34539903,2.98241023 5.28849246,3.44854497 C5.28849246,3.44854497 5.92771859,4.37685185 5.98530653,4.34232804 Z" id="Path"></path>
                    </g>
                    <g id="Group" opacity="0.5" transform="translate(95.404020, 124.861111)" fill="#016CFA">
                        <path d="M6.05825126,4.36534392 C6.05825126,4.36534392 4.86042211,-1.38862434 1.06729648,0.358664021 C0.634196851,0.399807234 0.276902226,0.714985228 0.182361809,1.13928571 C0.182361809,1.13928571 0.479899497,1.06832011 0.535567839,1.6667328 C0.556314804,1.87932303 0.602722202,2.08862534 0.673778894,2.29007937 C0.769150796,2.56195243 0.949517532,2.79596372 1.18823116,2.95753968 L1.18823116,2.95753968 C1.18823116,2.95753968 2.27856281,4.36917989 5.05046231,4.28095238 C5.05046231,4.28095238 5.74343719,4.58399471 5.88356784,4.52645503 L5.21554774,3.68253968 C5.21554774,3.68253968 4.61471357,4.19656085 3.97164824,4.09490741 C3.97164824,4.09490741 5.20019095,3.72857143 5.12340704,3.5521164 C5.10805025,3.5156746 4.74908543,3.12056878 4.74908543,3.12056878 C4.74908543,3.12056878 3.70098492,4.00859788 2.71239196,3.82255291 C2.71239196,3.82255291 4.23655276,3.58088624 4.61471357,2.96904762 L4.03883417,2.39365079 C4.03883417,2.39365079 2.98689447,3.39100529 1.85049246,3.21455026 C1.85049246,3.21455026 3.4341608,2.90767196 3.9121407,2.27665344 L3.27099497,1.79715608 C3.27099497,1.79715608 2.21713568,2.74464286 1.27461307,2.59695767 C1.27461307,2.59695767 3.06943719,2.05800265 3.11742714,1.69550265 C3.11742714,1.69550265 2.50123618,1.29080688 2.28624121,1.26203704 C2.28624121,1.26203704 1.51840201,1.92566138 0.973236181,1.79140212 C0.973236181,1.79140212 2.12499497,1.3042328 2.1038794,1.16997354 C2.1038794,1.16997354 1.16135678,0.85542328 0.598914573,0.949404762 C1.11205758,0.838340757 1.64530976,0.862799562 2.14611055,1.02037037 C2.0043471,0.730067208 1.78085067,0.487426823 1.50304523,0.322222222 C1.50304523,0.322222222 2.08852261,0.251256614 2.37262312,1.08941799 C2.37262312,1.08941799 3.09823116,1.36369048 3.16733668,1.47301587 C3.16733668,1.47301587 3.00609045,0.596494709 2.63368844,0.13042328 C2.63368844,0.13042328 3.29019095,0.443055556 3.3401005,1.58617725 L3.99660302,2.05416667 C3.99660302,2.05416667 3.84303518,0.884193122 3.54165829,0.450727513 C3.54165829,0.450727513 4.16360804,0.874603175 4.15209045,2.17691799 L4.72796985,2.72546296 C4.72796985,2.72546296 4.67422111,1.70701058 4.44194975,1.15462963 C4.44194975,1.15462963 4.93336683,1.67056878 4.88537688,2.88082011 L5.22322613,3.29318783 C5.22322613,3.29318783 5.16947739,2.55092593 5.13492462,2.33419312 C5.10037186,2.11746032 5.1541206,2.09636243 5.1541206,2.09636243 C5.3504701,2.52234792 5.42424964,2.99453975 5.36719598,3.46005291 C5.36719598,3.46005291 6.00450251,4.39411376 6.05825126,4.36534392 Z" id="Path"></path>
                    </g>
                </g>
                <g id="exclamation" transform="translate(59.000000, 36.000000)">
                    <path d="M42,4 C49.6731153,4 56.7740058,5.91825005 63.3028846,9.75480769 C69.6298393,13.3894413 74.6105587,18.3701607 78.2451923,24.6971154 C82.08175,31.2259942 84,38.3268847 84,46 C84,53.6731153 82.08175,60.7740058 78.2451923,67.3028846 C74.6105587,73.6298393 69.6298393,78.6105587 63.3028846,82.2451923 C56.7740058,86.08175 49.6731153,88 42,88 C34.3268847,88 27.2259942,86.08175 20.6971154,82.2451923 C14.3701607,78.5432507 9.38944125,73.5288778 5.75480769,67.2019231 C1.91825005,60.6730443 7.10542736e-15,53.6058073 7.10542736e-15,46 C7.10542736e-15,38.3941927 1.91825005,31.3269557 5.75480769,24.7980769 C9.45674928,18.4711222 14.4711222,13.4567493 20.7980769,9.75480769 C27.3269557,5.91825005 34.3941927,4 42,4 Z" id="Path-Copy-2" fill="#603B3B"></path>
                    <path d="M42,0 C49.6731153,0 56.7740058,1.91825005 63.3028846,5.75480769 C69.6298393,9.38944125 74.6105587,14.3701607 78.2451923,20.6971154 C82.08175,27.2259942 84,34.3268847 84,42 C84,49.6731153 82.08175,56.7740058 78.2451923,63.3028846 C74.6105587,69.6298393 69.6298393,74.6105587 63.3028846,78.2451923 C56.7740058,82.08175 49.6731153,84 42,84 C34.3268847,84 27.2259942,82.08175 20.6971154,78.2451923 C14.3701607,74.5432507 9.38944125,69.5288778 5.75480769,63.2019231 C1.91825005,56.6730443 0,49.6058073 0,42 C0,34.3941927 1.91825005,27.3269557 5.75480769,20.7980769 C9.45674928,14.4711222 14.4711222,9.45674928 20.7980769,5.75480769 C27.3269557,1.91825005 34.3941927,0 42,0 Z" id="Path" fill="#FD6E6E"></path>
                    <path d="M42,75.7211538 C48.0577226,75.7211538 53.7115122,74.1730924 58.9615385,71.0769231 C64.0769487,68.1153698 68.1153698,64.0769487 71.0769231,58.9615385 C74.1730924,53.7115122 75.7211538,48.0577226 75.7211538,42 C75.7211538,35.9422774 74.1730924,30.2884878 71.0769231,25.0384615 C68.1153698,19.9230513 64.0769487,15.8846302 58.9615385,12.9230769 C53.7115122,9.8269076 48.0577226,8.27884615 42,8.27884615 C35.9422774,8.27884615 30.2884878,9.8269076 25.0384615,12.9230769 C19.9230513,15.8846302 15.8846302,19.9230513 12.9230769,25.0384615 C9.8269076,30.2884878 8.27884615,35.9422774 8.27884615,42 C8.27884615,48.0577226 9.8269076,53.7115122 12.9230769,58.9615385 C15.8846302,64.0769487 19.9230513,68.1153698 25.0384615,71.0769231 C30.2884878,74.1730924 35.9422774,75.7211538 42,75.7211538 Z" id="Path" fill="#E5F0FE"></path>
                    <path d="M42,54.6201923 C44.2861402,54.6201923 46.1394231,56.4734751 46.1394231,58.7596154 L46.1394231,58.9615385 C46.1394231,61.2476787 44.2861402,63.1009615 42,63.1009615 C39.7138598,63.1009615 37.8605769,61.2476787 37.8605769,58.9615385 L37.8605769,58.7596154 C37.8605769,56.4734751 39.7138598,54.6201923 42,54.6201923 Z M42,20.8990385 C44.2861402,20.8990385 46.1394231,22.7523213 46.1394231,25.0384615 L46.1394231,42 C46.1394231,44.2861402 44.2861402,46.1394231 42,46.1394231 C39.7138598,46.1394231 37.8605769,44.2861402 37.8605769,42 L37.8605769,25.0384615 C37.8605769,22.7523213 39.7138598,20.8990385 42,20.8990385 Z" id="Combined-Shape" fill="#FD6E6E"></path>
                </g>
            </g>
        </g>
    </g>
</svg>