<?xml version="1.0" encoding="UTF-8"?>
<svg width="93px" height="70px" viewBox="0 0 93 70" version="1.1" xmlns="http://www.w3.org/2000/svg" xmlns:xlink="http://www.w3.org/1999/xlink">
    <!-- Generator: Sketch 63.1 (92452) - https://sketch.com -->
    <title>icon-nodevice</title>
    <desc>Created with Sketch.</desc>
    <g id="Device-pages" stroke="none" stroke-width="1" fill="none" fill-rule="evenodd">
        <g id="MyDevice/Error" transform="translate(-48.000000, -197.000000)">
            <g id="icon-nodevice" transform="translate(48.000000, 197.000000)">
                <path d="M82.3846154,54.9090909 L82.3846154,27.875 L67.1538462,27.875 L67.1538462,54.9090909 L82.3846154,54.9090909 Z M86.3456932,20.25 C87.3558319,20.25 88.2174078,20.6159963 88.9304468,21.348 C89.6434858,22.0800037 90,22.9644948 90,24.0015 L90,62.0655 C90,63.1025052 89.6434858,64.017496 88.9304468,64.8105 C88.2174078,65.603504 87.3558319,66 86.3456932,66 L64.0633349,66 C63.0531962,66 62.1619108,65.603504 61.3894519,64.8105 C60.6169929,64.017496 60.2307692,63.1025052 60.2307692,62.0655 L60.2307692,24.0015 C60.2307692,22.9644948 60.6169929,22.0800037 61.3894519,21.348 C62.1619108,20.6159963 63.0531962,20.25 64.0633349,20.25 L86.3456932,20.25 Z M14.9299631,12.6706587 L14.9299631,54.5853293 L52.5246893,54.5853293 L52.5246893,66 L0,66 L0,54.5853293 L7.55492106,54.5853293 L7.55492106,12.6706587 C7.55492106,10.6007881 8.27443016,8.80489022 9.71346994,7.28293413 C11.1525097,5.76097043 12.8913234,5 14.9299631,5 L82.3846154,5 L82.3846154,12.6706587 L14.9299631,12.6706587 Z" id="" fill="#2B2D38" fill-rule="nonzero" opacity="0.300000012"></path>
                <rect id="Rectangle" fill="#FFFFFF" transform="translate(47.500000, 34.000000) rotate(35.000000) translate(-47.500000, -34.000000) " x="-6" y="31" width="107" height="6"></rect>
                <rect id="Rectangle-Copy-2" fill="#201C1C" transform="translate(46.500000, 37.500000) rotate(35.000000) translate(-46.500000, -37.500000) " x="-7" y="35" width="107" height="5"></rect>
            </g>
        </g>
    </g>
</svg>