<?xml version="1.0" encoding="UTF-8"?>
<svg width="11px" height="11px" viewBox="0 0 11 11" version="1.1" xmlns="http://www.w3.org/2000/svg" xmlns:xlink="http://www.w3.org/1999/xlink">
    <!-- Generator: Sketch 63.1 (92452) - https://sketch.com -->
    <title></title>
    <desc>Created with Sketch.</desc>
    <g id="Device-pages" stroke="none" stroke-width="1" fill="none" fill-rule="evenodd">
        <g id="upload-box--s1" transform="translate(-27.000000, -258.000000)" fill="#3D464D" fill-rule="nonzero">
            <g id="info-msg" transform="translate(27.000000, 244.000000)">
                <g id="Group-3" transform="translate(0.068176, 12.000000)">
                    <path d="M5.492,6.3 L5.492,5.292 L4.508,5.292 L4.508,6.3 L5.492,6.3 Z M5.492,10.308 L5.492,7.308 L4.508,7.308 L4.508,10.308 L5.492,10.308 Z M5,2.808 C5.91200456,2.808 6.75599612,3.03599772 7.532,3.492 C8.28400376,3.92400216 8.87599784,4.51599624 9.308,5.268 C9.76400228,6.04400388 9.992,6.88799544 9.992,7.8 C9.992,8.71200456 9.76400228,9.55599612 9.308,10.332 C8.87599784,11.0840038 8.28400376,11.6759978 7.532,12.108 C6.75599612,12.5640023 5.91200456,12.792 5,12.792 C4.08799544,12.792 3.24400388,12.5640023 2.468,12.108 C1.71599624,11.6679978 1.12400216,11.0720038 0.692,10.32 C0.23599772,9.54399612 0.008,8.70400452 0.008,7.8 C0.008,6.89599548 0.23599772,6.05600388 0.692,5.28 C1.1320022,4.52799624 1.72799624,3.9320022 2.48,3.492 C3.25600388,3.03599772 4.09599548,2.808 5,2.808 Z" id=""></path>
                </g>
            </g>
        </g>
    </g>
</svg>