<?xml version="1.0" encoding="UTF-8"?>
<svg width="13px" height="10px" viewBox="0 0 13 10" version="1.1" xmlns="http://www.w3.org/2000/svg" xmlns:xlink="http://www.w3.org/1999/xlink">
    <!-- Generator: Sketch 55.2 (78181) - https://sketchapp.com -->
    <title></title>
    <desc>Created with Sketch.</desc>
    <g id="Home" stroke="none" stroke-width="1" fill="none" fill-rule="evenodd">
        <g id="appdb-web" transform="translate(-1008.000000, -40.000000)" fill="#D86B24" fill-rule="nonzero">
            <g id="header" transform="translate(30.000000, 26.000000)">
                <g id="secondary-nav" transform="translate(766.000000, 0.000000)">
                    <g id="Group-3" transform="translate(212.000000, 8.000000)">
                        <path d="M6.125,12.5 C4.9583275,12.5 4.375,11.9166725 4.375,10.75 C4.375,9.5833275 4.9583275,9 6.125,9 C7.2916725,9 7.875,9.5833275 7.875,10.75 C7.875,11.9166725 7.2916725,12.5 6.125,12.5 Z M3.41796875,9.3828125 C3.1809884,9.82031469 3.0625,10.2760393 3.0625,10.75 C3.0625,11.2239607 3.1809884,11.6796853 3.41796875,12.1171875 C3.6549491,12.5546897 3.95572734,12.8919259 4.3203125,13.1289062 L3.69140625,13.8125 C3.41796738,13.5755196 3.25390652,13.4296878 3.19921875,13.375 C2.52473621,12.6822882 2.1875,11.807297 2.1875,10.75 C2.1875,9.69270305 2.52473621,8.8177118 3.19921875,8.125 C3.25390652,8.07031223 3.41796738,7.92448035 3.69140625,7.6875 L4.3203125,8.37109375 C3.95572734,8.6080741 3.6549491,8.94531031 3.41796875,9.3828125 Z M8.83203125,12.1171875 C9.0690116,11.6796853 9.1875,11.2239607 9.1875,10.75 C9.1875,10.2760393 9.0690116,9.82031469 8.83203125,9.3828125 C8.5950509,8.94531031 8.29427266,8.6080741 7.9296875,8.37109375 L8.55859375,7.6875 C8.83203262,7.92448035 8.99609348,8.07031223 9.05078125,8.125 C9.72526379,8.8177118 10.0625,9.69270305 10.0625,10.75 C10.0625,11.807297 9.72526379,12.6822882 9.05078125,13.375 C8.99609348,13.4296878 8.83203262,13.5755196 8.55859375,13.8125 L7.9296875,13.1289062 C8.29427266,12.8919259 8.5950509,12.5546897 8.83203125,12.1171875 Z M0.875,10.75 C0.875,11.4791703 1.02994637,12.1809862 1.33984375,12.8554688 C1.61328262,13.4752635 2.04166375,14.0130186 2.625,14.46875 L1.99609375,15.125 C1.77734266,14.9427074 1.62239629,14.7968755 1.53125,14.6875 C1.07551855,14.2135393 0.701824375,13.6210973 0.41015625,12.9101562 C0.136717383,12.2356737 0,11.5156288 0,10.75 C0,9.98437117 0.136717383,9.26432629 0.41015625,8.58984375 C0.701824375,7.8789027 1.07551855,7.2864607 1.53125,6.8125 C1.62239629,6.70312445 1.77734266,6.55729258 1.99609375,6.375 L2.625,7.03125 C2.40624891,7.21354258 2.16927211,7.45963387 1.9140625,7.76953125 C1.76822844,7.95182383 1.58593859,8.24348758 1.3671875,8.64453125 C1.22135344,8.89974086 1.10286504,9.23697707 1.01171875,9.65625 C0.920572461,10.0572937 0.875,10.4218734 0.875,10.75 Z M10.9101562,12.8554688 C11.2200536,12.1809862 11.375,11.4791703 11.375,10.75 C11.375,10.0208297 11.2200536,9.31901379 10.9101562,8.64453125 C10.6367174,8.02473648 10.2083363,7.48698145 9.625,7.03125 L10.2539062,6.375 C10.4726573,6.55729258 10.6276037,6.70312445 10.71875,6.8125 C11.1744814,7.2864607 11.5481756,7.8789027 11.8398438,8.58984375 C12.1132826,9.28255555 12.25,10.0026004 12.25,10.75 C12.25,11.5156288 12.1132826,12.2356737 11.8398438,12.9101562 C11.5481756,13.6210973 11.1744814,14.2135393 10.71875,14.6875 C10.645833,14.7786463 10.4908866,14.9244782 10.2539062,15.125 L9.625,14.46875 C10.2083363,14.0130186 10.6367174,13.4752635 10.9101562,12.8554688 Z" id=""></path>
                    </g>
                </g>
            </g>
        </g>
    </g>
</svg>