<?xml version="1.0" encoding="UTF-8"?>
<svg width="16px" height="17px" viewBox="0 0 16 17" version="1.1" xmlns="http://www.w3.org/2000/svg" xmlns:xlink="http://www.w3.org/1999/xlink">
    <!-- Generator: Sketch 55.2 (78181) - https://sketchapp.com -->
    <title>field-type</title>
    <desc>Created with Sketch.</desc>
    <g id="Home" stroke="none" stroke-width="1" fill="none" fill-rule="evenodd">
        <g id="appdb-web" transform="translate(-478.000000, -39.000000)" fill="#9DA9B2">
            <g id="header" transform="translate(30.000000, 26.000000)">
                <g id="logo+search-bar" transform="translate(0.000000, 2.000000)">
                    <g id="select-box" transform="translate(112.000000, 0.000000)">
                        <g id="icon/search" transform="translate(330.000000, 5.200000)">
                            <path d="M17.4285714,16.0571429 L16.6971429,16.0571429 L16.4228571,15.7828571 C17.3371429,14.7771429 17.8857143,13.4057143 17.8857143,11.9428571 C17.8857143,8.65142857 15.2342857,6 11.9428571,6 C8.65142857,6 6,8.65142857 6,11.9428571 C6,15.2342857 8.65142857,17.8857143 11.9428571,17.8857143 C13.4057143,17.8857143 14.7771429,17.3371429 15.7828571,16.4228571 L16.0571429,16.6971429 L16.0571429,17.4285714 L20.6285714,22 L22,20.6285714 L17.4285714,16.0571429 L17.4285714,16.0571429 Z M11.9428571,16.0571429 C9.65714286,16.0571429 7.82857143,14.2285714 7.82857143,11.9428571 C7.82857143,9.65714286 9.65714286,7.82857143 11.9428571,7.82857143 C14.2285714,7.82857143 16.0571429,9.65714286 16.0571429,11.9428571 C16.0571429,14.2285714 14.2285714,16.0571429 11.9428571,16.0571429 L11.9428571,16.0571429 Z" id="icon-search"></path>
                        </g>
                    </g>
                </g>
            </g>
        </g>
    </g>
</svg>