<?xml version="1.0" encoding="UTF-8"?>
<svg width="12px" height="11px" viewBox="0 0 12 11" version="1.1" xmlns="http://www.w3.org/2000/svg" xmlns:xlink="http://www.w3.org/1999/xlink">
    <!-- Generator: Sketch 55.2 (78181) - https://sketchapp.com -->
    <title></title>
    <desc>Created with Sketch.</desc>
    <g id="Home" stroke="none" stroke-width="1" fill="none" fill-rule="evenodd">
        <g id="appdb-web" transform="translate(-794.000000, -110.000000)" fill="#000000" fill-rule="nonzero">
            <g id="main-nav" transform="translate(0.000000, 91.000000)">
                <g id="Stacked-Group-2" transform="translate(29.000000, 10.000000)">
                    <g id="cat-3" transform="translate(758.000000, 2.000000)">
                        <g id="Group-8">
                            <path d="M15.656,17.744 L15.656,15.056 L18.344,15.056 L18.344,17.744 L15.656,17.744 Z M15.656,13.744 L15.656,11.056 L18.344,11.056 L18.344,13.744 L15.656,13.744 Z M11.656,9.744 L11.656,7.056 L14.344,7.056 L14.344,9.744 L11.656,9.744 Z M15.656,7.056 L18.344,7.056 L18.344,9.744 L15.656,9.744 L15.656,7.056 Z M11.656,13.744 L11.656,11.056 L14.344,11.056 L14.344,13.744 L11.656,13.744 Z M7.656,13.744 L7.656,11.056 L10.344,11.056 L10.344,13.744 L7.656,13.744 Z M7.656,17.744 L7.656,15.056 L10.344,15.056 L10.344,17.744 L7.656,17.744 Z M11.656,17.744 L11.656,15.056 L14.344,15.056 L14.344,17.744 L11.656,17.744 Z M7.656,9.744 L7.656,7.056 L10.344,7.056 L10.344,9.744 L7.656,9.744 Z" id=""></path>
                        </g>
                    </g>
                </g>
            </g>
        </g>
    </g>
</svg>