<?xml version="1.0" encoding="UTF-8"?>
<svg width="12px" height="10px" viewBox="0 0 12 10" version="1.1" xmlns="http://www.w3.org/2000/svg" xmlns:xlink="http://www.w3.org/1999/xlink">
    <!-- Generator: Sketch 63.1 (92452) - https://sketch.com -->
    <title>icon-twitter</title>
    <desc>Created with Sketch.</desc>
    <g id="Home" stroke="none" stroke-width="1" fill="none" fill-rule="evenodd" opacity="0.699999988">
        <g id="appdb-web" transform="translate(-721.000000, -1553.000000)" fill="#01BCFA" fill-rule="nonzero">
            <g id="footer" transform="translate(0.000000, 1530.000000)">
                <g id="Group-6">
                    <g transform="translate(351.000000, 15.000000)">
                        <g id="Stacked-Group" transform="translate(130.000000, 0.000000)">
                            <g id="Padding-Group-6-Copy" transform="translate(235.000000, 0.000000)">
                                <path d="M17,9.19791667 C16.6949137,9.68403021 16.2881381,10.1180536 15.779661,10.5 L15.779661,10.8125 C15.779661,12.6354258 15.1398369,14.2890551 13.8601695,15.7734375 C12.5805021,17.2578199 10.8813665,18 8.76271186,18 C7.40677288,18 6.15254814,17.6180594 5,16.8541667 C5.2711878,16.8888891 5.4661011,16.90625 5.58474576,16.90625 C6.72034466,16.90625 7.73728364,16.5416703 8.63559322,15.8125 C8.11016686,15.7951388 7.63559534,15.6258697 7.21186441,15.3046875 C6.78813347,14.9835053 6.5,14.5711831 6.34745763,14.0677083 C6.55084847,14.1024307 6.70338932,14.1197917 6.80508475,14.1197917 C6.97457712,14.1197917 7.1949139,14.0850698 7.46610169,14.015625 C6.90677686,13.8940966 6.43644258,13.6033009 6.05508475,13.1432292 C5.67372691,12.6831574 5.48305085,12.1493086 5.48305085,11.5416667 L5.48305085,11.515625 C5.85593407,11.7239594 6.22881169,11.828125 6.60169492,11.828125 C5.87287771,11.3420115 5.50847458,10.6388935 5.50847458,9.71875 C5.50847458,9.28472005 5.61864297,8.86805755 5.83898305,8.46875 C7.14407432,10.1180638 8.83049814,10.9947911 10.8983051,11.0989583 C10.8644066,10.9774299 10.8474576,10.7864596 10.8474576,10.5260417 C10.8474576,9.81423255 11.0847434,9.21528021 11.559322,8.72916667 C12.0339007,8.24305312 12.6186406,8 13.3135593,8 C14.0084781,8 14.6016925,8.26909453 15.0932203,8.80729167 C15.6016975,8.72048568 16.1271159,8.51215443 16.6694915,8.18229167 C16.5,8.78993359 16.135596,9.25867891 15.5762712,9.58854167 C16.1016975,9.53645807 16.5762691,9.40625104 17,9.19791667 Z" id="icon-twitter"></path>
                            </g>
                        </g>
                    </g>
                </g>
            </g>
        </g>
    </g>
</svg>