<?xml version="1.0" encoding="UTF-8"?>
<svg width="40px" height="27px" viewBox="0 0 40 27" version="1.1" xmlns="http://www.w3.org/2000/svg" xmlns:xlink="http://www.w3.org/1999/xlink">
    <!-- Generator: Sketch 63.1 (92452) - https://sketch.com -->
    <title></title>
    <desc>Created with Sketch.</desc>
    <defs>
        <linearGradient x1="50%" y1="0%" x2="50%" y2="97.5374789%" id="linearGradient-1">
            <stop stop-color="#CD73EE" offset="0%"></stop>
            <stop stop-color="#5737C5" offset="100%"></stop>
        </linearGradient>
    </defs>
    <g id="Home" stroke="none" stroke-width="1" fill="none" fill-rule="evenodd" opacity="0.600000024">
        <g id="appdb-web" transform="translate(-869.000000, -375.000000)" fill="url(#linearGradient-1)" fill-rule="nonzero">
            <g id="Your-Device" transform="translate(852.000000, 353.000000)">
                <path d="M53.64,43.9476048 L53.64,32.1047904 L47,32.1047904 L47,43.9476048 L53.64,43.9476048 Z M55.36,28.7904192 C55.8133356,28.7904192 56.1999984,28.9520942 56.52,29.2754491 C56.8400016,29.598804 57,29.9895187 57,30.4476048 L57,47.261976 C57,47.7200622 56.8400016,48.1242497 56.52,48.4745509 C56.1999984,48.8248521 55.8133356,49 55.36,49 L45.36,49 C44.9066644,49 44.5066684,48.8248521 44.16,48.4745509 C43.8133316,48.1242497 43.64,47.7200622 43.64,47.261976 L43.64,30.4476048 C43.64,29.9895187 43.8133316,29.598804 44.16,29.2754491 C44.5066684,28.9520942 44.9066644,28.7904192 45.36,28.7904192 L55.36,28.7904192 Z M23.64,25.3952096 L23.64,43.9476048 L40.36,43.9476048 L40.36,49 L17,49 L17,43.9476048 L20.36,43.9476048 L20.36,25.3952096 C20.36,24.4790373 20.6799968,23.6841317 21.32,23.010479 C21.9600032,22.336823 22.7333288,22 23.64,22 L53.64,22 L53.64,25.3952096 L23.64,25.3952096 Z" id=""></path>
            </g>
        </g>
    </g>
</svg>