<?xml version="1.0" encoding="UTF-8"?>
<svg width="16px" height="15px" viewBox="0 0 16 15" version="1.1" xmlns="http://www.w3.org/2000/svg" xmlns:xlink="http://www.w3.org/1999/xlink">
    <!-- Generator: Sketch 63.1 (92452) - https://sketch.com -->
    <title>icon-new</title>
    <desc>Created with Sketch.</desc>
    <g id="Home" stroke="none" stroke-width="1" fill="none" fill-rule="evenodd">
        <g id="appdb-web" transform="translate(-670.000000, -184.000000)" fill="#525D66" fill-rule="nonzero">
            <g id="section" transform="translate(45.000000, 176.000000)">
                <g id="toggle" transform="translate(564.000000, 1.000000)">
                    <g transform="translate(0.000000, 4.000000)" id="Group-10">
                        <g transform="translate(61.000000, 0.000000)">
                            <path d="M8.656,11.056 L8.656,7.056 L7.344,7.056 L7.344,11.056 L8.656,11.056 Z M8.656,13.744 L8.656,12.4 L7.344,12.4 L7.344,13.744 L8.656,13.744 Z M15.344,10.4 L13.712,12.24 L13.936,14.704 L11.536,15.248 L10.288,17.376 L8,16.4 L5.712,17.376 L4.464,15.28 L2.064,14.704 L2.288,12.24 L0.656,10.4 L2.288,8.528 L2.064,6.08 L4.464,5.552 L5.712,3.424 L8,4.4 L10.288,3.424 L11.536,5.552 L13.936,6.08 L13.712,8.56 L15.344,10.4 Z" id="icon-new"></path>
                        </g>
                    </g>
                </g>
            </g>
        </g>
    </g>
</svg>