<?xml version="1.0" encoding="UTF-8"?>
<svg width="42px" height="30px" viewBox="0 0 42 30" version="1.1" xmlns="http://www.w3.org/2000/svg" xmlns:xlink="http://www.w3.org/1999/xlink">
    <!-- Generator: Sketch 63.1 (92452) - https://sketch.com -->
    <title></title>
    <desc>Created with Sketch.</desc>
    <defs>
        <linearGradient x1="50%" y1="-2.48949813e-15%" x2="50%" y2="100%" id="linearGradient-1">
            <stop stop-color="#F5B34E" offset="0%"></stop>
            <stop stop-color="#E78215" offset="99.8574747%"></stop>
        </linearGradient>
    </defs>
    <g id="Home" stroke="none" stroke-width="1" fill="none" fill-rule="evenodd" opacity="0.699999988">
        <g id="appdb-web" transform="translate(-867.000000, -200.000000)" fill="url(#linearGradient-1)" fill-rule="nonzero">
            <g id="Latest-News" transform="translate(852.000000, 183.000000)">
                <g transform="translate(15.000000, 10.000000)" id="">
                    <path d="M21,28 C16.99998,28 15,26.00002 15,22 C15,17.99998 16.99998,16 21,16 C25.00002,16 27,17.99998 27,22 C27,26.00002 25.00002,28 21,28 Z M11.71875,17.3125 C10.9062459,18.8125075 10.5,20.3749919 10.5,22 C10.5,23.6250081 10.9062459,25.1874925 11.71875,26.6875 C12.5312541,28.1875075 13.5624937,29.3437459 14.8125,30.15625 L12.65625,32.5 C11.7187453,31.6874959 11.1562509,31.1875009 10.96875,31 C8.65623844,28.6249881 7.5,25.6250181 7.5,22 C7.5,18.3749819 8.65623844,15.3750119 10.96875,13 C11.1562509,12.8124991 11.7187453,12.3125041 12.65625,11.5 L14.8125,13.84375 C13.5624937,14.6562541 12.5312541,15.8124925 11.71875,17.3125 Z M30.28125,26.6875 C31.0937541,25.1874925 31.5,23.6250081 31.5,22 C31.5,20.3749919 31.0937541,18.8125075 30.28125,17.3125 C29.4687459,15.8124925 28.4375062,14.6562541 27.1875,13.84375 L29.34375,11.5 C30.2812547,12.3125041 30.8437491,12.8124991 31.03125,13 C33.3437616,15.3750119 34.5,18.3749819 34.5,22 C34.5,25.6250181 33.3437616,28.6249881 31.03125,31 C30.8437491,31.1875009 30.2812547,31.6874959 29.34375,32.5 L27.1875,30.15625 C28.4375062,29.3437459 29.4687459,28.1875075 30.28125,26.6875 Z M3,22 C3,24.5000125 3.53124469,26.9062384 4.59375,29.21875 C5.53125469,31.3437606 7,33.1874922 9,34.75 L6.84375,37 C6.09374625,36.3749969 5.56250156,35.8750019 5.25,35.5 C3.68749219,33.8749919 2.406255,31.8437622 1.40625,29.40625 C0.468745313,27.0937384 0,24.6250131 0,22 C0,19.3749869 0.468745313,16.9062616 1.40625,14.59375 C2.406255,12.1562378 3.68749219,10.1250081 5.25,8.5 C5.56250156,8.12499812 6.09374625,7.62500312 6.84375,7 L9,9.25 C8.24999625,9.87500312 7.43750437,10.7187447 6.5625,11.78125 C6.0624975,12.4062531 5.43750375,13.4062431 4.6875,14.78125 C4.1874975,15.6562544 3.78125156,16.8124928 3.46875,18.25 C3.15624844,19.6250069 3,20.8749944 3,22 Z M37.40625,29.21875 C38.4687553,26.9062384 39,24.5000125 39,22 C39,19.4999875 38.4687553,17.0937616 37.40625,14.78125 C36.4687453,12.6562394 35.00001,10.8125078 33,9.25 L35.15625,7 C35.9062538,7.62500312 36.4374984,8.12499812 36.75,8.5 C38.3125078,10.1250081 39.593745,12.1562378 40.59375,14.59375 C41.5312547,16.9687619 42,19.4374872 42,22 C42,24.6250131 41.5312547,27.0937384 40.59375,29.40625 C39.593745,31.8437622 38.3125078,33.8749919 36.75,35.5 C36.5,35.8125016 35.9687541,36.3124966 35.15625,37 L33,34.75 C35.00001,33.1874922 36.4687453,31.3437606 37.40625,29.21875 Z"></path>
                </g>
            </g>
        </g>
    </g>
</svg>