<?xml version="1.0" encoding="UTF-8"?>
<svg width="14px" height="14px" viewBox="0 0 14 14" version="1.1" xmlns="http://www.w3.org/2000/svg" xmlns:xlink="http://www.w3.org/1999/xlink">
    <!-- Generator: Sketch 63.1 (92452) - https://sketch.com -->
    <title>l</title>
    <desc>Created with Sketch.</desc>
    <g id="Home" stroke="none" stroke-width="1" fill="none" fill-rule="evenodd" opacity="0.699999988">
        <g id="appdb-web" transform="translate(-588.000000, -1548.000000)" fill="#01BCFA" fill-rule="nonzero">
            <g id="footer" transform="translate(0.000000, 1530.000000)">
                <g id="Group-6">
                    <g transform="translate(351.000000, 15.000000)">
                        <g id="Stacked-Group" transform="translate(130.000000, 0.000000)">
                            <g id="Padding-Group-6-Copy-2" transform="translate(101.000000, 0.000000)">
                                <path d="M13,16.65625 C14.8333333,16.65625 16.4010417,16.0052083 17.703125,14.703125 C19.0052083,13.4010417 19.65625,11.8333333 19.65625,10 C19.65625,8.16666667 19.0052083,6.59895833 17.703125,5.296875 C16.4010417,3.99479167 14.8333333,3.34375 13,3.34375 C11.1666667,3.34375 9.59375,4 8.28125,5.3125 C6.98958333,6.60416667 6.34375,8.16666667 6.34375,10 C6.34375,11.8333333 6.99479167,13.4010417 8.296875,14.703125 C9.59895833,16.0052083 11.1666667,16.65625 13,16.65625 Z M14.28125,7.34375 L11.71875,7.34375 C11.9895833,6.42708333 12.4166667,5.54166667 13,4.6875 C13.5833333,5.54166667 14.0104167,6.42708333 14.28125,7.34375 L14.28125,7.34375 Z M10.34375,7.34375 L8.375,7.34375 C9.04166667,6.17708333 10.0104167,5.38541667 11.28125,4.96875 C10.8645833,5.71875 10.5520833,6.51041667 10.34375,7.34375 L10.34375,7.34375 Z M17.625,7.34375 L15.65625,7.34375 C15.4479167,6.51041667 15.1354167,5.71875 14.71875,4.96875 C15.9895833,5.38541667 16.9583333,6.17708333 17.625,7.34375 L17.625,7.34375 Z M18.15625,11.34375 L15.90625,11.34375 C15.96875,10.90625 16,10.4583333 16,10 C16,9.54166667 15.96875,9.09375 15.90625,8.65625 L15.90625,8.65625 L18.15625,8.65625 C18.28125,9.23958333 18.34375,9.6875 18.34375,10 C18.34375,10.3125 18.28125,10.7604167 18.15625,11.34375 L18.15625,11.34375 Z M14.5625,11.34375 L11.4375,11.34375 C11.375,10.90625 11.34375,10.4583333 11.34375,10 C11.34375,9.54166667 11.375,9.09375 11.4375,8.65625 L11.4375,8.65625 L14.5625,8.65625 C14.625,9.09375 14.65625,9.54166667 14.65625,10 C14.65625,10.4583333 14.625,10.90625 14.5625,11.34375 L14.5625,11.34375 Z M10.09375,11.34375 L7.84375,11.34375 C7.71875,10.7604167 7.65625,10.3125 7.65625,10 C7.65625,9.6875 7.71875,9.23958333 7.84375,8.65625 L7.84375,8.65625 L10.09375,8.65625 C10.03125,9.09375 10,9.54166667 10,10 C10,10.4583333 10.03125,10.90625 10.09375,11.34375 L10.09375,11.34375 Z M14.71875,15.03125 C15.1354167,14.28125 15.4479167,13.4895833 15.65625,12.65625 L15.65625,12.65625 L17.625,12.65625 C16.9583333,13.8229167 15.9895833,14.6145833 14.71875,15.03125 Z M13,15.3125 C12.4166667,14.4583333 11.9895833,13.5729167 11.71875,12.65625 L11.71875,12.65625 L14.28125,12.65625 C14.0104167,13.5729167 13.5833333,14.4583333 13,15.3125 Z M11.28125,15.03125 C10.0104167,14.6145833 9.04166667,13.8229167 8.375,12.65625 L8.375,12.65625 L10.34375,12.65625 C10.5520833,13.4895833 10.8645833,14.28125 11.28125,15.03125 Z" id="l"></path>
                            </g>
                        </g>
                    </g>
                </g>
            </g>
        </g>
    </g>
</svg>