<?xml version="1.0" encoding="UTF-8"?>
<svg width="12px" height="12px" viewBox="0 0 12 12" version="1.1" xmlns="http://www.w3.org/2000/svg" xmlns:xlink="http://www.w3.org/1999/xlink">
    <!-- Generator: Sketch 63.1 (92452) - https://sketch.com -->
    <title></title>
    <desc>Created with Sketch.</desc>
    <g id="App-Details-page" stroke="none" stroke-width="1" fill="none" fill-rule="evenodd">
        <g id="Browse/Search-Results" transform="translate(-436.000000, -283.000000)" fill="#525D66" fill-rule="nonzero">
            <g id="search-results" transform="translate(235.000000, 248.000000)">
                <g id="app-tile--horizontal" transform="translate(10.000000, 0.000000)">
                    <g id="Stacked-Group" transform="translate(115.000000, 30.000000)">
                        <g id="price" transform="translate(76.000000, 0.000000)">
                            <path d="M10.4464286,5.80357143 L11.25,5.80357143 L11.25,9.41964286 L5.22321429,16.25 L4.59542411,15.6473214 L4.01785714,16.25 L0,12.2321429 L6.42857143,5 L10.4464286,5 L10.4464286,5.80357143 Z M4.01785714,15.672433 L4.31919643,15.3710937 L4.59542411,15.0697545 L10.0446429,8.84207589 L10.0446429,5.40178571 L6.60435268,5.40178571 L0.552455357,12.2321429 L4.01785714,15.672433 Z M10.8482143,9.24386161 L10.8482143,6.20535714 L10.4464286,6.20535714 L10.4464286,9.01785714 L4.89676339,15.3710938 L5.22321429,15.672433 L10.8482143,9.24386161 Z M8.61328125,7.98828125 C8.46261085,8.13895165 8.27009046,8.21428571 8.03571429,8.21428571 C7.80133811,8.21428571 7.60881772,8.13895165 7.45814732,7.98828125 C7.30747693,7.83761085 7.23214286,7.64509046 7.23214286,7.41071429 C7.23214286,7.17633811 7.30747693,6.98381772 7.45814732,6.83314732 C7.60881772,6.68247693 7.80133811,6.60714286 8.03571429,6.60714286 C8.27009046,6.60714286 8.46261085,6.68247693 8.61328125,6.83314732 C8.76395165,6.98381772 8.83928571,7.17633811 8.83928571,7.41071429 C8.83928571,7.64509046 8.76395165,7.83761085 8.61328125,7.98828125 Z M8.4375,7.41071429 C8.4375,7.1428558 8.30357277,7.00892857 8.03571429,7.00892857 C7.7678558,7.00892857 7.63392857,7.1428558 7.63392857,7.41071429 C7.63392857,7.67857277 7.7678558,7.8125 8.03571429,7.8125 C8.30357277,7.8125 8.4375,7.67857277 8.4375,7.41071429 Z" id=""></path>
                        </g>
                    </g>
                </g>
            </g>
        </g>
    </g>
</svg>