<?xml version="1.0" encoding="UTF-8"?>
<svg width="60px" height="57px" viewBox="0 0 60 57" version="1.1" xmlns="http://www.w3.org/2000/svg" xmlns:xlink="http://www.w3.org/1999/xlink">
    <!-- Generator: Sketch 63.1 (92452) - https://sketch.com -->
    <title>icon-balance</title>
    <desc>Created with Sketch.</desc>
    <defs>
        <linearGradient x1="0%" y1="5.04897863%" x2="100%" y2="94.9510214%" id="linearGradient-1">
            <stop stop-color="#181F25" offset="0%"></stop>
            <stop stop-color="#708090" offset="100%"></stop>
        </linearGradient>
    </defs>
    <g id="Device-pages" stroke="none" stroke-width="1" fill="none" fill-rule="evenodd">
        <g id="My-Referrals" transform="translate(-562.000000, -445.000000)" fill="url(#linearGradient-1)" fill-rule="nonzero">
            <g id="funds-&amp;-reward" transform="translate(445.000000, 400.000000)">
                <g id="Funds-Balance">
                    <g id="Group-2" transform="translate(117.000000, 45.000000)">
                        <path d="M41.0366625,33.147914 C42.3514604,33.147914 43.4766072,32.6927985 44.4121365,31.7825537 C45.3476659,30.872309 45.8154235,29.7598043 45.8154235,28.4450063 C45.8154235,27.1302083 45.3476659,26.0050616 44.4121365,25.0695322 C43.4766072,24.1340029 42.3514604,23.6662453 41.0366625,23.6662453 C39.7218645,23.6662453 38.6093598,24.1340029 37.699115,25.0695322 C36.7888703,26.0050616 36.3337547,27.1302083 36.3337547,28.4450063 C36.3337547,29.7598043 36.7888703,30.872309 37.699115,31.7825537 C38.6093598,32.6927985 39.7218645,33.147914 41.0366625,33.147914 Z M28.4450063,41.0366625 L28.4450063,15.8533502 L60,15.8533502 L60,41.0366625 L28.4450063,41.0366625 Z M56.8900126,47.4083439 L56.8900126,50.5183312 C56.8900126,52.2376824 56.2579077,53.7294501 54.9936789,54.9936789 C53.7294501,56.2579077 52.2376824,56.8900126 50.5183312,56.8900126 L6.37168142,56.8900126 C4.60176106,56.8900126 3.09735133,56.2579077 1.85840708,54.9936789 C0.619462832,53.7294501 0,52.2376824 0,50.5183312 L0,6.37168142 C0,4.65233021 0.619462832,3.16056258 1.85840708,1.89633375 C3.09735133,0.63210493 4.60176106,0 6.37168142,0 L50.5183312,0 C52.2376824,0 53.7294501,0.63210493 54.9936789,1.89633375 C56.2579077,3.16056258 56.8900126,4.65233021 56.8900126,6.37168142 L56.8900126,9.48166877 L28.4450063,9.48166877 C26.675086,9.48166877 25.1706762,10.1137737 23.931732,11.3780025 C22.6927877,12.6422314 22.0733249,14.133999 22.0733249,15.8533502 L22.0733249,41.0366625 C22.0733249,42.7560137 22.6927877,44.2477813 23.931732,45.5120101 C25.1706762,46.7762389 26.675086,47.4083439 28.4450063,47.4083439 L56.8900126,47.4083439 Z" id="icon-balance"></path>
                    </g>
                </g>
            </g>
        </g>
    </g>
</svg>