<?xml version="1.0" encoding="UTF-8"?>
<svg width="108px" height="108px" viewBox="0 0 108 108" version="1.1" xmlns="http://www.w3.org/2000/svg" xmlns:xlink="http://www.w3.org/1999/xlink">
    <!-- Generator: Sketch 63.1 (92452) - https://sketch.com -->
    <title>icon roulette</title>
    <desc>Created with Sketch.</desc>
    <g id="Device-pages" stroke="none" stroke-width="1" fill="none" fill-rule="evenodd">
        <g id="MyDevice/PRO_Roulette" transform="translate(-451.000000, -221.000000)" fill-rule="nonzero">
            <g id="icon-roulette" transform="translate(451.000000, 221.000000)">
                <path d="M78.9984159,19.3598754 C78.9948619,19.2423824 78.98805,19.1254813 78.9753146,19.0094681 C78.9702797,18.9647793 78.9625793,18.9206824 78.9563597,18.8759936 C78.9454014,18.7999339 78.9332583,18.7241702 78.918746,18.6489983 C78.9071953,18.5903998 78.8956446,18.5320972 78.8820208,18.4740906 C78.8660276,18.4072054 78.8473688,18.3409121 78.8281177,18.2749147 C78.7990929,18.1731072 78.7668103,18.0727794 78.7306775,17.9736354 C78.7173498,17.9366414 78.7037259,17.8993514 78.6889174,17.8629493 C78.5935504,17.6184928 78.4765629,17.3838027 78.3394358,17.1600629 C78.3341047,17.1514803 78.3290698,17.1428976 78.3234425,17.134315 C77.7583485,16.2218944 76.8707244,15.5036185 75.7600837,15.1804387 C73.4452122,14.5068516 71.0296426,15.7767824 70.2530826,18.0298663 C70.2290927,18.0991191 70.2015488,18.1663003 70.1808169,18.2379207 C69.486,20.6221115 70.8546056,23.125571 73.2405581,23.8198748 C75.6268068,24.5141786 78.1247119,23.1397767 78.8195287,20.7555859 C78.8586233,20.6238872 78.8888327,20.4915966 78.9148958,20.359306 C78.9217077,20.3264553 78.9276311,20.2930127 78.9338507,20.259866 C78.9563597,20.1305349 78.9750184,20.0012038 78.9859768,19.8727606 C78.9874576,19.8544115 78.9874576,19.8366544 78.9889385,19.8186013 C78.9969351,19.7070273 79.0004891,19.5963412 78.9998968,19.4856551 C79.000193,19.4436299 78.9998968,19.4019006 78.9984159,19.3598754 Z" id="Path" fill="#092CD7"></path>
                <path d="M67.2699821,64.6073242 C67.1095459,64.5827914 66.946508,64.5637424 66.7805793,64.5637424 C66.5394913,64.5637424 66.305052,64.5926045 66.0789959,64.642536 L65.7433806,64.3074466 L57.9727739,56.5392011 L57.8516517,56.4179801 C58.5960181,54.9708323 58.6648178,53.2685432 58.0580508,51.7763705 C58.0184476,51.6759302 57.9710394,51.5780876 57.9244984,51.4802449 L58.0490895,51.3561377 L65.8257668,43.6017461 L66.0437289,43.3844141 C67.028316,43.5440218 68.0738978,43.2516483 68.8358977,42.4943057 C69.9936404,41.3383769 70.0823862,39.5217937 69.1108074,38.2605181 C69.0281321,38.1511306 68.9359174,38.0434748 68.8358977,37.9436118 C67.5798698,36.6857997 65.5375597,36.6857997 64.2797974,37.9415914 C64.0664605,38.1548827 63.8930159,38.3889546 63.7507914,38.6386122 C63.3894485,39.283681 63.2683263,40.0265926 63.383956,40.7380444 L63.1709083,40.951047 L55.3687924,48.73026 L55.2629912,48.8358955 C53.7077713,48.1068378 51.8854468,48.1325251 50.3519076,48.9204616 L50.3079683,48.8765911 L42.539385,41.1100774 L42.3723,40.9432542 C42.5457446,40.0762355 42.3618934,39.1532242 41.8166992,38.4097354 C41.7204375,38.2789899 41.6186833,38.1505534 41.5013191,38.0333731 C40.2435568,36.7775813 38.2009576,36.7738292 36.9431952,38.029621 C36.7625238,38.2100094 36.6122051,38.4059833 36.4835671,38.6114818 C35.7126059,39.853997 35.8623464,41.5052001 36.9411717,42.5823352 C37.7338135,43.3737352 38.8401009,43.6669745 39.8645803,43.4580126 L40.0261729,43.619352 L47.82164,51.4127075 L47.8699155,51.4611959 C47.1440498,52.9646249 47.1356667,54.7249269 47.841008,56.2355714 L47.7412774,56.3348572 L39.8874172,64.1657335 L39.6422822,64.4104844 C39.5867799,64.404712 39.5312776,64.3948989 39.4754863,64.3923013 C38.5984348,64.3501625 37.7060624,64.6572557 37.0351209,65.3274347 C36.1178881,66.2394783 35.8695732,67.5665596 36.288731,68.7069028 C36.4425185,69.1331967 36.6888098,69.5326487 37.0310738,69.8743765 C38.2905706,71.1319 40.3294118,71.1319 41.5889086,69.8784172 C42.3971604,69.0711431 42.6850785,67.9432106 42.453819,66.9053279 L42.6402719,66.7188785 L50.3712755,59.0106663 L50.486038,58.8963722 C52.0057017,59.6239868 53.7861105,59.6242754 55.305196,58.8949291 L55.4318106,59.0216339 L63.1983703,66.7861273 L63.609434,67.196547 C63.5747451,67.3858826 63.5539317,67.5798362 63.5539317,67.7795622 C63.5539317,68.0349922 63.5865971,68.2788773 63.6409431,68.5152582 C63.9754021,69.9384504 65.2510871,71 66.7768213,71 C68.0634911,71 69.1787399,70.245255 69.692714,69.1508026 C69.8913081,68.7377853 70,68.2736821 70,67.785046 C70,67.2961213 69.891019,66.8317295 69.692714,66.4164033 C69.2446488,65.4653957 68.3441823,64.7727043 67.2699821,64.6073242 Z" id="Path" fill="#016CFA"></path>
                <path d="M54,0 C24.2240928,0 0,24.2243832 0,54 C0,83.7756168 24.2240928,108 54,108 C83.7756168,108 108,83.7756168 108,54 C108,24.2243832 83.7756168,0 54,0 Z M104.514686,54 C104.514686,58.2901309 103.975624,62.4562426 102.964012,66.4358901 L83.3050994,61.1684192 C83.8676872,58.8698547 84.168005,56.4693448 84.168005,53.9997096 C84.168005,51.5303647 83.8679776,49.1298548 83.3050994,46.8312904 L102.964012,41.5638194 C103.975334,45.5440478 104.514686,49.7098691 104.514686,54 Z M3.48531381,54 C3.48531381,49.7098691 4.02466613,45.5437574 5.03598802,41.5641099 L24.6946101,46.8315808 C24.1323128,49.1304357 23.8317045,51.5306552 23.8317045,54.0002904 C23.8317045,56.4699257 24.1323128,58.8704356 24.6946101,61.1690001 L5.03598802,66.4367615 C4.02466613,62.4562426 3.48531381,58.2901309 3.48531381,54 Z M78.0120695,47.2768297 C78.0155548,47.2887378 78.0187497,47.300646 78.022235,47.3125541 C78.1026877,47.6018352 78.1787837,47.8934398 78.2490709,48.186787 C78.6966432,50.053463 78.9400343,51.9982681 78.9400343,54.0002904 C78.9400343,56.0026032 78.6966432,57.9476988 78.2487804,59.8143748 C78.1787837,60.1071411 78.1029781,60.3975839 78.0228159,60.6859937 C78.0187497,60.6999349 78.0149739,60.7138762 78.0109077,60.7278174 C77.6841596,61.893074 77.2752161,63.0237679 76.7895957,64.1135094 C76.7895957,64.1137998 76.7893053,64.1140902 76.7890148,64.1143807 C76.4227664,64.9363339 76.0135325,65.7350516 75.5636366,66.5076295 C75.5624748,66.5093722 75.561313,66.5111148 75.5604417,66.5131479 C74.3585893,68.5755824 72.869489,70.4509716 71.1480344,72.084422 C68.3339339,74.7544629 64.9011903,76.7762353 61.0873856,77.9089623 C60.5802725,78.0599926 60.0658982,78.1927249 59.546296,78.3118065 C59.472814,78.3283617 59.3996224,78.3463692 59.3255595,78.3629244 C59.104823,78.4111379 58.8829247,78.4552853 58.6598646,78.4979803 C58.5160954,78.525282 58.3717453,78.5508409 58.2271048,78.575819 C58.0336699,78.6089295 57.8402349,78.6432018 57.6453478,78.672246 C57.3220849,78.7198787 56.996789,78.7617024 56.6694599,78.7965556 C56.5378893,78.8107873 56.4048665,78.8209528 56.2724246,78.8331514 C56.0142209,78.8566772 55.7557268,78.8770082 55.4951996,78.8924017 C55.374085,78.8996628 55.2529703,78.9072143 55.1315652,78.9124422 C54.7560227,78.9295784 54.3793183,78.9411961 54,78.9411961 C53.6203912,78.9411961 53.2436869,78.9295784 52.8681443,78.9124422 C52.7467392,78.9069238 52.625915,78.8996628 52.5050908,78.8924017 C52.2448541,78.8770082 51.9854886,78.8566772 51.7275754,78.8331514 C51.5951335,78.8209528 51.4621107,78.8107873 51.3302496,78.7965556 C51.003211,78.7617024 50.6779151,78.7198787 50.3543618,78.672246 C50.1594746,78.6432018 49.9660397,78.6089295 49.7723143,78.5755286 C49.6279643,78.5508409 49.4839046,78.525282 49.3404259,78.4979803 C49.1170753,78.4555757 48.8940153,78.4111379 48.6729883,78.3623436 C48.6009585,78.3466596 48.5300904,78.3292331 48.4586415,78.3126778 C47.9367157,78.1933058 47.4197275,78.0599926 46.9105813,77.9083814 C43.0967766,76.7756544 39.6643234,74.7533011 36.8499325,72.0823889 C35.9899313,71.2659542 35.1880187,70.3896882 34.4508748,69.4599807 C34.4500035,69.458819 34.4488417,69.4573668 34.4479704,69.4559145 C33.7119883,68.5270784 33.0407749,67.5445104 32.4410105,66.515181 C32.438687,66.5111148 32.4363634,66.5070486 32.4340399,66.502692 C31.9861771,65.7335994 31.5783954,64.9377861 31.2133087,64.1190278 C31.212147,64.1164138 31.2106947,64.1135094 31.209533,64.1111858 C31.0878374,63.8381696 30.9710794,63.5622489 30.8589685,63.2842951 C30.8583876,63.2825525 30.8578067,63.2805194 30.8569354,63.2787767 C30.523507,62.4498529 30.2336451,61.5988554 29.9893827,60.7286888 C29.9853165,60.7141666 29.9812503,60.6999349 29.9771841,60.6859937 C29.8970219,60.3975839 29.8212163,60.1074316 29.7512196,59.8146652 C29.3033568,57.9479892 29.0599657,56.0028937 29.0599657,54.0005809 C29.0599657,51.9982681 29.3036472,50.0531725 29.7512196,48.1864966 C29.8212163,47.8940206 29.8967314,47.6038683 29.9771841,47.3154586 C29.9812503,47.3012269 29.9853165,47.2869952 29.9893827,47.272473 C30.2333547,46.4025968 30.5229262,45.5518898 30.8563545,44.7232564 C30.8572258,44.7209329 30.8580972,44.7186093 30.8589685,44.7165762 C30.970789,44.4386224 31.087547,44.1635731 31.2089521,43.8908473 C31.2104043,43.8876524 31.2118565,43.8844575 31.2133087,43.8809722 C31.5778145,43.0630853 31.9855962,42.2684337 32.4328781,41.4996316 C32.4357826,41.494694 32.4383965,41.4897565 32.441301,41.4851094 C33.0404845,40.4569419 33.711117,39.4755356 34.4462277,38.5469899 C34.4479704,38.5446663 34.4500035,38.5423428 34.4517462,38.5400193 C35.1885996,37.6106022 35.9899313,36.7346267 36.8493516,35.9190633 C39.6657756,33.2464085 43.1011333,31.2231838 46.9184232,30.0904568 C47.4223415,29.9408788 47.9335209,29.8090177 48.4499282,29.6908075 C48.5251529,29.6736714 48.5997967,29.655083 48.6750214,29.6388182 C48.8948866,29.5906047 49.1164945,29.5464574 49.3383928,29.5040528 C49.4833237,29.4764607 49.6288356,29.4509017 49.7743474,29.4259236 C49.9672015,29.3925227 50.1594746,29.3585409 50.3537809,29.3297871 C50.6773342,29.2821544 51.0029206,29.2403307 51.3305401,29.2051871 C51.4621107,29.1909554 51.5945526,29.1810803 51.7267041,29.1688817 C51.9851982,29.1453559 52.2442732,29.1250249 52.5048004,29.109341 C52.6256246,29.1020799 52.7464488,29.0948188 52.8678539,29.0893004 C53.2433965,29.0721643 53.6201008,29.0605466 53.9997096,29.0605466 C54.3793183,29.0605466 54.7560227,29.0724547 55.1315652,29.0893004 C55.2529703,29.0948188 55.3737945,29.1020799 55.4946187,29.109341 C55.7551459,29.1247344 56.0145114,29.1453559 56.272715,29.1688817 C56.4048665,29.1810803 56.5375989,29.1912458 56.6688791,29.2051871 C56.9964986,29.2403307 57.3220849,29.2821544 57.6456382,29.3297871 C57.8399445,29.3585409 58.0322176,29.3925227 58.2250717,29.4259236 C58.3705835,29.4509017 58.5160954,29.4764607 58.6607359,29.5040528 C58.8832151,29.5464574 59.1042421,29.5906047 59.3243977,29.6388182 C59.3996224,29.6553735 59.4742662,29.6736714 59.5492005,29.6908075 C60.0656078,29.8090177 60.5767872,29.9411692 61.080415,30.0904568 C64.8971241,31.2228933 68.33132,33.2452467 71.1471631,35.9170302 C72.008326,36.7340458 72.81111,37.6114736 73.5491252,38.5426332 C73.5494156,38.5426332 73.5497061,38.5429237 73.5497061,38.5429237 C74.2868499,39.473212 74.9589346,40.4572323 75.5595704,41.4877234 C75.5610226,41.4903374 75.5624748,41.4929514 75.563927,41.4952749 C76.013242,42.2669815 76.422476,43.0651184 76.7884339,43.8864906 C76.7887244,43.8870715 76.7890148,43.8876524 76.7890148,43.8882333 C76.9115817,44.1624113 77.0289206,44.4392033 77.1413219,44.7186093 C77.1413219,44.7186093 77.1413219,44.7186093 77.1413219,44.7186093 C77.476493,45.5498567 77.7672262,46.4037585 78.0120695,47.2768297 Z M74.8488568,32.2156269 C71.393749,28.9074832 67.1556074,26.412289 62.4443345,25.0361709 L67.7120959,5.37725833 C75.9191386,7.69470157 83.2824449,12.0408879 89.2292616,17.8349317 L74.8488568,32.2156269 Z M45.5556655,25.0361709 C40.8441021,26.4119985 36.6059605,28.9077736 33.1508528,32.2159173 L18.770448,17.8355126 C24.7172647,12.0411783 32.0808614,7.69499201 40.2881946,5.37725833 L45.5556655,25.0361709 Z M33.1505623,75.7837922 C36.6056701,79.0922264 40.8438117,81.587711 45.5553751,82.9638291 L40.2879041,102.622742 C32.080571,100.305008 24.7169742,95.9588217 18.7701575,90.164197 L33.1505623,75.7837922 Z M62.4443345,82.9638291 C67.1556074,81.5882919 71.393749,79.0925168 74.8488568,75.7843731 L89.2292616,90.1647779 C83.2824449,95.9591121 75.9188481,100.305298 67.711515,102.622742 L62.4443345,82.9638291 Z" id="Shape" fill="#3D464D"></path>
            </g>
        </g>
    </g>
</svg>