<?xml version="1.0" encoding="UTF-8"?>
<svg width="14px" height="10px" viewBox="0 0 14 10" version="1.1" xmlns="http://www.w3.org/2000/svg" xmlns:xlink="http://www.w3.org/1999/xlink">
    <!-- Generator: Sketch 55.2 (78181) - https://sketchapp.com -->
    <title>d</title>
    <desc>Created with Sketch.</desc>
    <g id="Symbols" stroke="none" stroke-width="1" fill="none" fill-rule="evenodd">
        <g id="btn/link-device::unlinked" transform="translate(-10.000000, -10.000000)" fill="#FFFFFF" fill-rule="nonzero">
            <g id="btn/link-device/unlinked-state">
                <g id="Group-13" transform="translate(10.000000, 8.000000)">
                    <path d="M12.8242188,9.92578125 L12.8242188,5.82421875 L10.5,5.82421875 L10.5,9.92578125 L12.8242188,9.92578125 Z M13.4257812,4.67578125 C13.5898446,4.67578125 13.726562,4.7304682 13.8359375,4.83984375 C13.945313,4.9492193 14,5.08593668 14,5.25 L14,11.0742188 C14,11.2382821 13.945313,11.3795567 13.8359375,11.4980469 C13.726562,11.6165371 13.5898446,11.6757812 13.4257812,11.6757812 L9.92578125,11.6757812 C9.76171793,11.6757812 9.6204433,11.6165371 9.50195312,11.4980469 C9.38346295,11.3795567 9.32421875,11.2382821 9.32421875,11.0742188 L9.32421875,5.25 C9.32421875,5.08593668 9.38346295,4.9492193 9.50195312,4.83984375 C9.6204433,4.7304682 9.76171793,4.67578125 9.92578125,4.67578125 L13.4257812,4.67578125 Z M2.32421875,3.5 L2.32421875,9.92578125 L8.17578125,9.92578125 L8.17578125,11.6757812 L0,11.6757812 L0,9.92578125 L1.17578125,9.92578125 L1.17578125,3.5 C1.17578125,3.19010262 1.2897124,2.91666785 1.51757812,2.6796875 C1.74544385,2.44270715 2.01432137,2.32421875 2.32421875,2.32421875 L12.8242188,2.32421875 L12.8242188,3.5 L2.32421875,3.5 Z" id="d"></path>
                </g>
            </g>
        </g>
    </g>
</svg>