<?xml version="1.0" encoding="UTF-8"?>
<svg width="16px" height="16px" viewBox="0 0 16 16" version="1.1" xmlns="http://www.w3.org/2000/svg" xmlns:xlink="http://www.w3.org/1999/xlink">
    <!-- Generator: Sketch 55.2 (78181) - https://sketchapp.com -->
    <title>icon-search</title>
    <desc>Created with Sketch.</desc>
    <g id="Mobile-layouts-📱" stroke="none" stroke-width="1" fill="none" fill-rule="evenodd">
        <g id="m-LinkDevice" transform="translate(-302.000000, -26.000000)" fill="#3D464D">
            <g id="header/mobile">
                <g id="select-box" transform="translate(302.000000, 26.000000)">
                    <g id="field-type">
                        <path d="M11.4285714,10.0571429 L10.6971429,10.0571429 L10.4228571,9.78285714 C11.3371429,8.77714286 11.8857143,7.40571429 11.8857143,5.94285714 C11.8857143,2.65142857 9.23428571,0 5.94285714,0 C2.65142857,0 0,2.65142857 0,5.94285714 C0,9.23428571 2.65142857,11.8857143 5.94285714,11.8857143 C7.40571429,11.8857143 8.77714286,11.3371429 9.78285714,10.4228571 L10.0571429,10.6971429 L10.0571429,11.4285714 L14.6285714,16 L16,14.6285714 L11.4285714,10.0571429 L11.4285714,10.0571429 Z M5.94285714,10.0571429 C3.65714286,10.0571429 1.82857143,8.22857143 1.82857143,5.94285714 C1.82857143,3.65714286 3.65714286,1.82857143 5.94285714,1.82857143 C8.22857143,1.82857143 10.0571429,3.65714286 10.0571429,5.94285714 C10.0571429,8.22857143 8.22857143,10.0571429 5.94285714,10.0571429 L5.94285714,10.0571429 Z" id="icon-search"></path>
                    </g>
                </g>
            </g>
        </g>
    </g>
</svg>