<?xml version="1.0" encoding="UTF-8"?>
<svg width="11px" height="10px" viewBox="0 0 11 10" version="1.1" 
    xmlns="http://www.w3.org/2000/svg" 
    xmlns:xlink="http://www.w3.org/1999/xlink">
    <!-- Generator: Sketch 63.1 (92452) - https://sketch.com -->
    <title>chevron</title>
    <desc>Created with Sketch.</desc>
    <g id="Home" stroke="none" stroke-width="1" fill="none" fill-rule="evenodd">
        <g id="appdb-web" transform="translate(-223.000000, -188.000000)" fill="#599A3E" fill-rule="nonzero">
            <g id="section" transform="translate(45.000000, 176.000000)">
                <g id="section-heading">
                    <g id="Stacked-Group">
                        <g>
                            <g id="section-name" transform="translate(42.000000, 0.000000)">
                                <g id="chevron" transform="translate(136.216516, 12.000000)">
                                    <path d="M1.77,0.59 L5.47289322,4.29289322 C5.86341751,4.68341751 5.86341751,5.31658249 5.47289322,5.70710678 L1.77,9.41 C1.444152,9.735848 0.915848002,9.735848 0.59,9.41 C0.265001665,9.08500166 0.265001665,8.55807525 0.59,8.23307692 C0.59051215,8.23256477 0.591024968,8.23205329 0.591538454,8.23154248 L3.12733762,5.7089506 C3.51888022,5.31944728 3.52053339,4.68628446 3.13103007,4.29474185 C3.12980247,4.29350783 3.12857165,4.292277 3.12733762,4.2910494 L0.591538454,1.76845752 C0.26569267,1.44430885 0.264316887,0.917384238 0.588465558,0.591538454 C0.588976369,0.591024968 0.58948785,0.59051215 0.59,0.59 C0.915848002,0.264151998 1.444152,0.264151998 1.77,0.59 Z" id="chev2"></path>
                                    <path d="M6.77,0.59 L10.4728932,4.29289322 C10.8634175,4.68341751 10.8634175,5.31658249 10.4728932,5.70710678 L6.77,9.41 C6.444152,9.735848 5.915848,9.735848 5.59,9.41 C5.26500166,9.08500166 5.26500166,8.55807525 5.59,8.23307692 C5.59051215,8.23256477 5.59102497,8.23205329 5.59153845,8.23154248 L8.12733762,5.7089506 C8.51888022,5.31944728 8.52053339,4.68628446 8.13103007,4.29474185 C8.12980247,4.29350783 8.12857165,4.292277 8.12733762,4.2910494 L5.59153845,1.76845752 C5.26569267,1.44430885 5.26431689,0.917384238 5.58846556,0.591538454 C5.58897637,0.591024968 5.58948785,0.59051215 5.59,0.59 C5.915848,0.264151998 6.444152,0.264151998 6.77,0.59 Z" id="chev"></path>
                                </g>
                            </g>
                        </g>
                    </g>
                </g>
            </g>
        </g>
    </g>
</svg>