<?xml version="1.0" encoding="UTF-8"?>
<svg width="12px" height="15px" viewBox="0 0 12 15" version="1.1" 
    xmlns="http://www.w3.org/2000/svg" 
    xmlns:xlink="http://www.w3.org/1999/xlink">
    <!-- Generator: Sketch 55.2 (78181) - https://sketchapp.com -->
    <title></title>
    <desc>Created with Sketch.</desc>
    <g id="Home" stroke="none" stroke-width="1" fill="none" fill-rule="evenodd">
        <g id="appdb-web" transform="translate(-502.000000, -107.000000)" fill="#ffffff" fill-rule="nonzero">
            <g id="main-nav" transform="translate(0.000000, 91.000000)">
                <g id="Stacked-Group-2" transform="translate(29.000000, 10.000000)">
                    <g id="cat-2-copy" transform="translate(468.000000, 0.000000)">
                        <g id="OSname">
                            <path d="M15.4511719,11.0556641 C15.3749996,11.1064456 15.3157554,11.146647 15.2734375,11.1762695 C15.2311196,11.2058921 15.1189788,11.3032218 14.9370117,11.4682617 C14.7550447,11.6333016 14.6111659,11.798339 14.5053711,11.9633789 C14.3995763,12.1284188 14.2958989,12.3548163 14.1943359,12.6425781 C14.0927729,12.93034 14.0462239,13.226561 14.0546875,13.53125 C14.0546875,13.8951841 14.1160476,14.2337224 14.2387695,14.546875 C14.3614915,14.8600276 14.4947909,15.1054679 14.6386719,15.2832031 C14.7825528,15.4609384 14.9539378,15.6238599 15.152832,15.7719727 C15.3517263,15.9200854 15.4913733,16.0152993 15.5717773,16.0576172 C15.6521814,16.0999351 15.7262366,16.1337889 15.7939453,16.1591797 C15.5654285,16.8531936 15.2649758,17.4710259 14.8925781,18.0126953 C14.7233064,18.2666028 14.5815435,18.4654941 14.4672852,18.609375 C14.3530268,18.7532559 14.209148,18.9119457 14.0356445,19.0854492 C13.8621411,19.2589527 13.6822926,19.3880204 13.4960937,19.4726562 C13.3098949,19.5572921 13.1110037,19.6038411 12.8994141,19.6123047 C12.6201158,19.6123047 12.2773458,19.5255543 11.8710937,19.3520508 C11.4648417,19.1785473 11.0924496,19.0917969 10.7539062,19.0917969 C10.4068993,19.0917969 10.0281596,19.1785473 9.61767578,19.3520508 C9.20719196,19.5255543 8.879233,19.6165364 8.63378906,19.625 C8.43066305,19.6334636 8.23177181,19.5932622 8.03710937,19.5043945 C7.84244694,19.4155269 7.65413502,19.2779957 7.47216797,19.0917969 C7.29020091,18.905598 7.13785869,18.7363289 7.01513672,18.5839844 C6.89241475,18.4316399 6.74642012,18.2285169 6.57714844,17.9746094 C6.28938658,17.5598938 6.03548287,17.0838243 5.81542969,16.5463867 C5.5953765,16.0089491 5.42822323,15.4440134 5.31396484,14.8515625 C5.19970646,14.2591116 5.17643195,13.6582062 5.24414062,13.0488281 C5.3118493,12.4394501 5.48111844,11.8977888 5.75195312,11.4238281 C6.03971498,10.9329403 6.42268641,10.5415054 6.90087891,10.2495117 C7.3790714,9.95751807 7.89322642,9.80729171 8.44335937,9.79882812 C8.7480484,9.79036454 9.14583088,9.8813467 9.63671875,10.0717773 C10.1276066,10.262208 10.4449863,10.3574219 10.5888672,10.3574219 C10.7158209,10.3574219 10.9189439,10.3002935 11.1982422,10.1860352 C11.4775405,10.0717768 11.7864566,9.96598356 12.125,9.86865234 C12.4635434,9.77132113 12.780923,9.73958316 13.0771484,9.7734375 C13.2210294,9.7734375 13.3733716,9.79036441 13.5341797,9.82421875 C13.6949878,9.85807309 13.8917632,9.91520142 14.1245117,9.99560547 C14.3572603,10.0760095 14.5921212,10.2071931 14.8291016,10.3891602 C15.0660819,10.5711272 15.2734366,10.793293 15.4511719,11.0556641 Z M13.0898437,6.625 C13.1321617,6.98893411 13.0898444,7.35286276 12.9628906,7.71679687 C12.8359369,8.08073099 12.6539725,8.40657408 12.4169922,8.69433594 C12.1715483,8.99056138 11.8816748,9.22542231 11.5473633,9.39892578 C11.2130517,9.57242925 10.8723976,9.6464845 10.5253906,9.62109375 C10.4830727,9.26562322 10.5232741,8.9059263 10.6459961,8.54199219 C10.7687181,8.17805808 10.9443348,7.86914189 11.1728516,7.61523437 C11.4098319,7.3359361 11.7060529,7.1053069 12.0615234,6.92333984 C12.416994,6.74137279 12.759764,6.64192717 13.0898437,6.625 Z" id=""></path>
                        </g>
                    </g>
                </g>
            </g>
        </g>
    </g>
</svg>