<?xml version="1.0" encoding="UTF-8"?>
<svg width="14px" height="15px" viewBox="0 0 14 15" version="1.1" xmlns="http://www.w3.org/2000/svg" xmlns:xlink="http://www.w3.org/1999/xlink">
    <!-- Generator: Sketch 63.1 (92452) - https://sketch.com -->
    <title>icon-support</title>
    <desc>Created with Sketch.</desc>
    <g id="Device-pages" stroke="none" stroke-width="1" fill="none" fill-rule="evenodd">
        <g id="MyDevice/PRO-status" transform="translate(-652.000000, -323.000000)" fill="#708090" fill-rule="nonzero">
            <path d="M659,323.875 C659.966151,323.875 660.875321,324.05729 661.727539,324.421875 C662.579757,324.78646 663.322588,325.285479 663.956055,325.918945 C664.589521,326.552412 665.08854,327.295243 665.453125,328.147461 C665.81771,328.999679 666,329.908849 666,330.875 C666,331.841151 665.81771,332.750321 665.453125,333.602539 C665.08854,334.454757 664.589521,335.197588 663.956055,335.831055 C663.322588,336.464521 662.579757,336.96354 661.727539,337.328125 C660.875321,337.69271 659.966151,337.875 659,337.875 C658.033849,337.875 657.124679,337.69271 656.272461,337.328125 C655.420243,336.96354 654.677412,336.464521 654.043945,335.831055 C653.410479,335.197588 652.91146,334.454757 652.546875,333.602539 C652.18229,332.750321 652,331.841151 652,330.875 C652,329.908849 652.18229,328.999679 652.546875,328.147461 C652.91146,327.295243 653.410479,326.552412 654.043945,325.918945 C654.677412,325.285479 655.420243,324.78646 656.272461,324.421875 C657.124679,324.05729 658.033849,323.875 659,323.875 Z M660.75,325.009766 L660.75,327.853516 C661.014324,328.008464 661.25358,328.193033 661.467773,328.407227 C661.681967,328.62142 661.866536,328.860676 662.021484,329.125 L664.865234,329.125 C664.7194,328.63281 664.514324,328.167971 664.25,327.730469 C663.985676,327.292967 663.675783,326.898765 663.320312,326.547852 C662.964842,326.196938 662.57064,325.889324 662.137695,325.625 C661.70475,325.360676 661.24219,325.1556 660.75,325.009766 Z M661.625,330.875 C661.625,330.154944 661.367516,329.537437 660.852539,329.022461 C660.337563,328.507484 659.720056,328.25 659,328.25 C658.279944,328.25 657.662437,328.507484 657.147461,329.022461 C656.632484,329.537437 656.375,330.154944 656.375,330.875 C656.375,331.60417 656.632484,332.223956 657.147461,332.734375 C657.662437,333.244794 658.279944,333.5 659,333.5 C659.720056,333.5 660.337563,333.244794 660.852539,332.734375 C661.367516,332.223956 661.625,331.60417 661.625,330.875 Z M658.125,324.818359 L658.125,327.498047 C658.261719,327.461588 658.402994,327.431966 658.548828,327.40918 C658.694662,327.386393 658.845051,327.375 659,327.375 C659.154949,327.375 659.305338,327.386393 659.451172,327.40918 C659.597006,327.431966 659.738281,327.461588 659.875,327.498047 L659.875,324.818359 C659.729166,324.80013 659.583334,324.78418 659.4375,324.770508 C659.291666,324.756836 659.145834,324.75 659,324.75 C658.854166,324.75 658.708334,324.756836 658.5625,324.770508 C658.416666,324.78418 658.270834,324.80013 658.125,324.818359 Z M657.25,325.009766 C656.75781,325.1556 656.29525,325.360676 655.862305,325.625 C655.42936,325.889324 655.035158,326.196938 654.679688,326.547852 C654.324217,326.898765 654.014324,327.292967 653.75,327.730469 C653.485676,328.167971 653.2806,328.63281 653.134766,329.125 L655.978516,329.125 C656.133464,328.860676 656.318033,328.62142 656.532227,328.407227 C656.74642,328.193033 656.985676,328.008464 657.25,327.853516 L657.25,325.009766 Z M652.875,330.875 C652.875,331.020834 652.881836,331.166666 652.895508,331.3125 C652.90918,331.458334 652.92513,331.604166 652.943359,331.75 L655.609375,331.75 C655.582031,331.613281 655.556966,331.472006 655.53418,331.326172 C655.511393,331.180338 655.5,331.029949 655.5,330.875 C655.5,330.729166 655.511393,330.581055 655.53418,330.430664 C655.556966,330.280273 655.586588,330.136719 655.623047,330 L652.943359,330 C652.92513,330.145834 652.90918,330.291666 652.895508,330.4375 C652.881836,330.583334 652.875,330.729166 652.875,330.875 Z M657.25,336.740234 L657.25,333.896484 C656.985676,333.75065 656.744142,333.56836 656.525391,333.349609 C656.30664,333.130858 656.12435,332.889324 655.978516,332.625 L653.134766,332.625 C653.2806,333.11719 653.485676,333.582029 653.75,334.019531 C654.014324,334.457033 654.321938,334.853514 654.672852,335.208984 C655.023765,335.564455 655.417967,335.872069 655.855469,336.131836 C656.292971,336.391603 656.75781,336.5944 657.25,336.740234 Z M659.875,336.931641 L659.875,334.265625 C659.738281,334.302084 659.597006,334.329427 659.451172,334.347656 C659.305338,334.365886 659.154949,334.375 659,334.375 C658.845051,334.375 658.694662,334.365886 658.548828,334.347656 C658.402994,334.329427 658.261719,334.302084 658.125,334.265625 L658.125,336.931641 C658.270834,336.958985 658.416666,336.977213 658.5625,336.986328 C658.708334,336.995443 658.854166,337 659,337 C659.145834,337 659.291666,336.995443 659.4375,336.986328 C659.583334,336.977213 659.729166,336.958985 659.875,336.931641 Z M660.75,336.740234 C661.24219,336.5944 661.707029,336.391603 662.144531,336.131836 C662.582033,335.872069 662.976235,335.564455 663.327148,335.208984 C663.678062,334.853514 663.985676,334.457033 664.25,334.019531 C664.514324,333.582029 664.7194,333.11719 664.865234,332.625 L662.021484,332.625 C661.866536,332.889324 661.681967,333.130858 661.467773,333.349609 C661.25358,333.56836 661.014324,333.75065 660.75,333.896484 L660.75,336.740234 Z M662.390625,331.75 L665.056641,331.75 C665.07487,331.604166 665.09082,331.458334 665.104492,331.3125 C665.118164,331.166666 665.125,331.020834 665.125,330.875 C665.125,330.729166 665.118164,330.583334 665.104492,330.4375 C665.09082,330.291666 665.07487,330.145834 665.056641,330 L662.376953,330 C662.413412,330.136719 662.443034,330.280273 662.46582,330.430664 C662.488607,330.581055 662.5,330.729166 662.5,330.875 C662.5,331.029949 662.488607,331.180338 662.46582,331.326172 C662.443034,331.472006 662.417969,331.613281 662.390625,331.75 Z" id="icon-support"></path>
        </g>
    </g>
</svg>