<?xml version="1.0" encoding="UTF-8"?>
<svg width="12px" height="13px" viewBox="0 0 12 13" version="1.1" xmlns="http://www.w3.org/2000/svg" xmlns:xlink="http://www.w3.org/1999/xlink">
    <!-- Generator: Sketch 63.1 (92452) - https://sketch.com -->
    <title>filter</title>
    <desc>Created with Sketch.</desc>
    <g id="App-Details-page" stroke="none" stroke-width="1" fill="none" fill-rule="evenodd">
        <g id="Browse/Search-Results" transform="translate(-36.000000, -223.000000)" fill="#016CFA" fill-rule="nonzero">
            <g id="filters" transform="translate(36.000000, 219.000000)">
                <g id="Stacked-Group">
                    <g id="Group-2">
                        <path d="M11.9787535,4.40439555 C12.064133,4.60930652 12.0214432,4.84836931 11.8592221,5.00205253 L7.65000933,9.21126526 L7.65000933,15.5464292 C7.65000933,15.7684161 7.51340202,15.9647891 7.31702902,16.0501687 C7.24872536,16.0757826 7.17188375,16.0928585 7.1035801,16.0928585 C6.95843483,16.0928585 6.82182752,16.0416307 6.71937204,15.9306373 L4.53365509,13.7449203 C4.4311996,13.6424649 4.37143391,13.5058576 4.37143391,13.3607123 L4.37143391,9.21126526 L0.16222118,5.00205253 C5.42101086e-20,4.84836931 -0.0426897842,4.60930652 0.0426897842,4.40439555 C0.128069353,4.20802255 0.32444236,4.07141524 0.546429238,4.07141524 L11.475014,4.07141524 C11.6970009,4.07141524 11.8933739,4.20802255 11.9787535,4.40439555 Z" id="filter"></path>
                    </g>
                </g>
            </g>
        </g>
    </g>
</svg>