<?xml version="1.0" encoding="UTF-8"?>
<svg width="80px" height="80px" viewBox="0 0 80 80" version="1.1" xmlns="http://www.w3.org/2000/svg" xmlns:xlink="http://www.w3.org/1999/xlink">
    <!-- Generator: Sketch 63.1 (92452) - https://sketch.com -->
    <title>icon-pro</title>
    <desc>Created with Sketch.</desc>
    <defs>
        <linearGradient x1="100%" y1="50%" x2="0%" y2="50%" id="linearGradient-1">
            <stop stop-color="#02A5FD" offset="0%"></stop>
            <stop stop-color="#016CFA" offset="100%"></stop>
        </linearGradient>
    </defs>
    <g id="Device-pages" stroke="none" stroke-width="1" fill="none" fill-rule="evenodd">
        <g id="My-Referrals" transform="translate(-857.000000, -445.000000)">
            <g id="funds-&amp;-reward" transform="translate(445.000000, 400.000000)">
                <g id="Available-Gifts" transform="translate(305.000000, 0.000000)">
                    <g id="icon-pro" transform="translate(107.000000, 45.000000)">
                        <path d="M78.2554517,35.1520546 L35.1995253,78.2554517 C32.8259902,80.5815161 28.9333927,80.5815161 26.6073283,78.2554517 L20.6260199,72.2741433 C24.1863225,68.7138407 24.1863225,62.9224151 20.6260199,59.3621124 C17.0657173,55.8018098 11.2742916,55.8018098 7.71398902,59.3621124 L1.78015131,53.380804 C-0.593383771,51.0547397 -0.593383771,47.1621421 1.78015131,44.788607 L44.8360777,1.78015131 C47.1621421,-0.593383771 51.0547397,-0.593383771 53.4282747,1.78015131 L59.3621124,7.71398902 C55.8018098,11.2742916 55.8018098,17.0657173 59.3621124,20.6260199 C62.9224151,24.1863225 68.7138407,24.1863225 72.2741433,20.6260199 L78.2554517,26.5598576 C80.5815161,28.9333927 80.5815161,32.8259902 78.2554517,35.1520546 Z" id="Path" fill="url(#linearGradient-1)" fill-rule="nonzero"></path>
                        <g id="pro-status" transform="translate(39.853612, 39.889215) rotate(-45.000000) translate(-39.853612, -39.889215) translate(21.353612, 28.889215)">
                            <rect id="Rectangle" stroke="#FFFFFF" stroke-width="0.825000018" x="0.412500009" y="0.412500009" width="35.4750008" height="21.1750005" rx="1.65000004"></rect>
                            <path d="M8.27090018,15.3000001 L6.43170014,15.3000001 L6.43170014,6.85419989 L10.4247002,6.85419989 C11.9977003,6.85419989 12.9899003,7.95529991 12.9899003,9.55249995 C12.9899003,11.1497 11.9977003,12.2508 10.4247002,12.2508 L8.27090018,12.2508 L8.27090018,15.3000001 Z M8.27090018,8.45139992 L8.27090018,10.6536 L10.2069002,10.6536 C10.7514002,10.6536 11.0902002,10.3632 11.0902002,9.81869995 L11.0902002,9.28629994 C11.0902002,8.74179993 10.7514002,8.45139992 10.2069002,8.45139992 L8.27090018,8.45139992 Z M16.2085004,12.2024 L16.2085004,15.3000001 L14.3693003,15.3000001 L14.3693003,6.85419989 L18.3744004,6.85419989 C19.9353004,6.85419989 20.9275005,7.94319991 20.9275005,9.55249995 C20.9275005,10.6899 20.4193004,11.5974 19.3908004,11.9846 L21.0485005,15.3000001 L19.0036004,15.3000001 L17.5274004,12.2024 L16.2085004,12.2024 Z M16.2085004,10.6536 L18.1445004,10.6536 C18.6890004,10.6536 19.0278004,10.3632 19.0278004,9.81869995 L19.0278004,9.28629994 C19.0278004,8.74179993 18.6890004,8.45139992 18.1445004,8.45139992 L16.2085004,8.45139992 L16.2085004,10.6536 Z M25.9127006,15.4452001 C23.6742005,15.4452001 22.1980005,13.9448 22.1980005,11.0771 C22.1980005,8.20939992 23.6742005,6.70899989 25.9127006,6.70899989 C28.1512006,6.70899989 29.6274006,8.20939992 29.6274006,11.0771 C29.6274006,13.9448 28.1512006,15.4452001 25.9127006,15.4452001 Z M25.9127006,13.8117 C27.0138006,13.8117 27.6793006,13.0494 27.6793006,11.7063 L27.6793006,10.4479 C27.6793006,9.10479994 27.0138006,8.34249992 25.9127006,8.34249992 C24.8116005,8.34249992 24.1461005,9.10479994 24.1461005,10.4479 L24.1461005,11.7063 C24.1461005,13.0494 24.8116005,13.8117 25.9127006,13.8117 Z" id="PRO" fill="#FFFFFF" fill-rule="nonzero"></path>
                        </g>
                    </g>
                </g>
            </g>
        </g>
    </g>
</svg>