<?xml version="1.0" encoding="UTF-8"?>
<svg width="15px" height="13px" viewBox="0 0 15 13" version="1.1" xmlns="http://www.w3.org/2000/svg" xmlns:xlink="http://www.w3.org/1999/xlink">
    <!-- Generator: Sketch 63.1 (92452) - https://sketch.com -->
    <title></title>
    <desc>Created with Sketch.</desc>
    <g id="App-Details-page" stroke="none" stroke-width="1" fill="none" fill-rule="evenodd">
        <g id="App-Desc.-page" transform="translate(-884.000000, -662.000000)" fill="#FFFFFF" fill-rule="nonzero">
            <g id="Stacked-Group-2" transform="translate(854.000000, 175.000000)">
                <g id="download-box" transform="translate(0.000000, 285.000000)">
                    <g id="History" transform="translate(20.000000, 170.000000)">
                        <g id="btn/sec" transform="translate(0.000000, 25.000000)">
                            <path d="M17.8685714,10.6226667 L18.9485714,10.6226667 L18.9485714,13.6733333 L21.4514286,15.1986667 L20.92,16.0653333 L17.8685714,14.2106667 L17.8685714,10.6226667 Z M18.5714286,7 C19.7371487,7 20.8171379,7.29466372 21.8114286,7.884 C22.782862,8.46178067 23.5542829,9.24177287 24.1257143,10.224 C24.7085743,11.2293384 25,12.3213274 25,13.5 C25,14.6786726 24.7085743,15.7706616 24.1257143,16.776 C23.5542829,17.7582271 22.782862,18.5382193 21.8114286,19.116 C20.8171379,19.7053363 19.7371487,20 18.5714286,20 C17.7028528,20 16.8742897,19.8324461 16.0857143,19.4973333 C15.3314248,19.1737762 14.6514316,18.7115586 14.0457143,18.1106667 L15.0571429,17.0533333 C15.5257166,17.5271135 16.0514257,17.8911098 16.6342857,18.1453333 C17.2514317,18.4111124 17.8971395,18.544 18.5714286,18.544 C19.4857189,18.544 20.3257105,18.3186689 21.0914286,17.868 C21.8571467,17.4173311 22.4628549,16.8106705 22.9085714,16.048 C23.3657166,15.2737739 23.5942857,14.4244491 23.5942857,13.5 C23.5942857,12.5755509 23.3657166,11.7262261 22.9085714,10.952 C22.4628549,10.1893295 21.8571467,9.58266892 21.0914286,9.132 C20.3257105,8.68133108 19.4857189,8.456 18.5714286,8.456 C17.6571383,8.456 16.8171467,8.68133108 16.0514286,9.132 C15.2971391,9.58266892 14.6971451,10.1893295 14.2514286,10.952 C13.8057121,11.7262261 13.5828571,12.5755509 13.5828571,13.5 L15.7257143,13.5 L12.8457143,16.412 L12.7771429,16.308 L10,13.5 L12.1428571,13.5 C12.1428571,12.3213274 12.4342828,11.2293384 13.0171429,10.224 C13.5885743,9.24177287 14.3599951,8.46178067 15.3314286,7.884 C16.3257193,7.29466372 17.4057085,7 18.5714286,7 Z" id=""></path>
                        </g>
                    </g>
                </g>
            </g>
        </g>
    </g>
</svg>