<?xml version="1.0" encoding="UTF-8"?>
<svg width="13px" height="11px" viewBox="0 0 13 11" version="1.1" xmlns="http://www.w3.org/2000/svg" xmlns:xlink="http://www.w3.org/1999/xlink">
    <!-- Generator: Sketch 63.1 (92452) - https://sketch.com -->
    <title></title>
    <desc>Created with Sketch.</desc>
    <g id="Device-pages" stroke="none" stroke-width="1" fill="none" fill-rule="evenodd">
        <g id="MyDevice/PRO_Roulette" transform="translate(-749.000000, -389.000000)" fill="#3D464D" fill-rule="nonzero">
            <g id="Stacked-Group" transform="translate(580.000000, 221.000000)">
                <g transform="translate(0.000000, 160.000000)" id="step-1">
                    <g>
                        <path d="M181.90625,9.7578125 C181.578123,10.2682317 181.140628,10.7239563 180.59375,11.125 L180.59375,11.453125 C180.59375,13.3671971 179.905606,15.1035078 178.529297,16.6621094 C177.152988,18.2207109 175.325532,19 173.046875,19 C171.588534,19 170.23959,18.5989623 169,17.796875 C169.291668,17.8333335 169.501301,17.8515625 169.628906,17.8515625 C170.850267,17.8515625 171.944006,17.4687538 172.910156,16.703125 C172.345049,16.6848957 171.834638,16.5071631 171.378906,16.1699219 C170.923175,15.8326806 170.613282,15.3997422 170.449219,14.8710938 C170.66797,14.9075523 170.832031,14.9257812 170.941406,14.9257812 C171.123699,14.9257812 171.360676,14.8893233 171.652344,14.8164062 C171.050778,14.6888014 170.544924,14.383466 170.134766,13.9003906 C169.724607,13.4173153 169.519531,12.856774 169.519531,12.21875 L169.519531,12.1914062 C169.920575,12.4101573 170.321613,12.5195312 170.722656,12.5195312 C169.938798,12.009112 169.546875,11.2708382 169.546875,10.3046875 C169.546875,9.84895605 169.665363,9.41146043 169.902344,8.9921875 C171.305997,10.723967 173.119781,11.6445307 175.34375,11.7539062 C175.307291,11.6263014 175.289062,11.4257826 175.289062,11.1523438 C175.289062,10.4049442 175.544268,9.77604422 176.054688,9.265625 C176.565107,8.75520578 177.194007,8.5 177.941406,8.5 C178.688806,8.5 179.32682,8.78254926 179.855469,9.34765625 C180.402346,9.25650996 180.967445,9.03776215 181.550781,8.69140625 C181.368489,9.32943027 180.976566,9.82161285 180.375,10.1679688 C180.940107,10.113281 181.450519,9.97656359 181.90625,9.7578125 Z" id=""></path>
                    </g>
                </g>
            </g>
        </g>
    </g>
</svg>