<?xml version="1.0" encoding="UTF-8"?>
<svg width="14px" height="14px" viewBox="0 0 14 14" version="1.1" xmlns="http://www.w3.org/2000/svg" xmlns:xlink="http://www.w3.org/1999/xlink">
    <!-- Generator: Sketch 63.1 (92452) - https://sketch.com -->
    <title>icon-trophy</title>
    <desc>Created with Sketch.</desc>
    <g id="Home" stroke="none" stroke-width="1" fill="none" fill-rule="evenodd">
        <g id="appdb-web" transform="translate(-746.000000, -185.000000)" fill="#525D66" fill-rule="nonzero">
            <g id="section" transform="translate(45.000000, 176.000000)">
                <g id="toggle" transform="translate(564.000000, 1.000000)">
                    <g transform="translate(0.000000, 4.000000)" id="Group-9">
                        <g transform="translate(137.000000, 0.000000)">
                            <path d="M14,6.21875 C14,7.82292469 13.7708356,9.09374531 13.3125,10.03125 C12.8541644,10.9687547 12.1979209,11.7499969 11.34375,12.375 C10.6145797,12.8958359 9.81250437,13.2604156 8.9375,13.46875 C8.45833094,13.9687525 7.97916906,14.2916659 7.5,14.4375 L7.5,15.46875 C7.5,15.5104169 7.50520828,15.567708 7.515625,15.640625 C7.52604172,15.713542 7.58854109,15.8333325 7.703125,16 C7.81770891,16.1666675 7.96874906,16.3177077 8.15625,16.453125 C8.34375094,16.5885423 8.65103953,16.7135411 9.078125,16.828125 C9.50521047,16.9427089 10.0104138,17 10.59375,17 L11,17 L11,18 L3,18 L3,17 L3.40625,17 C5.30209281,17 6.3333325,16.5208381 6.5,15.5625 L6.5,14.4375 C6.02083094,14.2916659 5.54166906,13.9687525 5.0625,13.46875 C4.14582875,13.2395822 3.34375344,12.8750025 2.65625,12.375 C1.80207906,11.7499969 1.14583562,10.9687547 0.6875,10.03125 C0.27083125,9.15624563 0.041666875,8.14583906 0,7 L0,6 L2.5,6 L2.5,4 L11.46875,4 C11.5104169,4.60416969 11.5104169,5.27082969 11.46875,6 L14,6 L14,6.21875 Z M1.59375,9.59375 C2.13541938,10.6979222 2.93749469,11.5104141 4,12.03125 C3.43749719,11.0104116 3,9.60417562 2.6875,7.8125 C2.66666656,7.6458325 2.63541687,7.37500188 2.59375,7 L1,7 C1.04166687,7.97917156 1.23958156,8.84374625 1.59375,9.59375 Z M12.40625,9.59375 C12.7604184,8.84374625 12.9583331,7.97917156 13,7 L11.40625,7 C11.3854166,7.10416719 11.3593752,7.24479078 11.328125,7.421875 C11.2968748,7.59895922 11.28125,7.72916625 11.28125,7.8125 C10.96875,9.60417562 10.5312528,11.0104116 9.96875,12.03125 C11.0729222,11.4895806 11.8854141,10.6770887 12.40625,9.59375 Z" id="icon-trophy"></path>
                        </g>
                    </g>
                </g>
            </g>
        </g>
    </g>
</svg>