<?xml version="1.0" encoding="UTF-8"?>
<svg width="6px" height="8px" viewBox="0 0 6 8" version="1.1" xmlns="http://www.w3.org/2000/svg" xmlns:xlink="http://www.w3.org/1999/xlink">
    <!-- Generator: Sketch 63.1 (92452) - https://sketch.com -->
    <title></title>
    <desc>Created with Sketch.</desc>
    <g id="Device-pages" stroke="none" stroke-width="1" fill="none" fill-rule="evenodd">
        <g id="upload-box--s1" transform="translate(-180.000000, -209.000000)" fill="#525D66" fill-rule="nonzero">
            <g id="Padding-Group-2-Copy" transform="translate(17.000000, 8.000000)">
                <g id="Group-3" transform="translate(15.000000, 148.000000)">
                    <path d="M152.38,53.41 L153.82,53.41 L153.82,54.25 L148,54.25 L148,53.41 L149.45,53.41 L149.88,53 L151.95,53 L152.38,53.41 Z M149.43,56.69 L150.32,57.59 L149.45,58.47 L150.03,59.05 L150.91,58.18 L151.79,59.05 L152.38,58.47 L151.5,57.59 L152.38,56.69 L151.79,56.1 L150.91,57 L150.03,56.1 L149.43,56.69 Z M148.41,59.66 L148.41,54.66 L153.41,54.66 L153.41,59.66 C153.41,59.8866678 153.326667,60.0833325 153.16,60.25 C152.993333,60.4166675 152.796668,60.5 152.57,60.5 L149.25,60.5 C149.023332,60.5 148.826667,60.4166675 148.66,60.25 C148.493333,60.0833325 148.41,59.8866678 148.41,59.66 Z" id=""></path>
                </g>
            </g>
        </g>
    </g>
</svg>