<?xml version="1.0" encoding="UTF-8"?>
<svg width="49px" height="41px" viewBox="0 0 49 41" version="1.1" xmlns="http://www.w3.org/2000/svg" xmlns:xlink="http://www.w3.org/1999/xlink">
    <!-- Generator: Sketch 55.2 (78181) - https://sketchapp.com -->
    <title>db-mark</title>
    <desc>Created with Sketch.</desc>
    <g id="Mobile-layouts-📱" stroke="none" stroke-width="1" fill="none" fill-rule="evenodd">
        <g id="m-LinkDevice" transform="translate(-8.000000, -13.000000)">
            <g id="header/mobile">
                <g id="db-mark" transform="translate(8.000000, 13.000000)">
                    <rect id="Rectangle" fill="#016CFA" x="0" y="0" width="48.3839997" height="40.3199998" rx="2.51999999"></rect>
                    <path d="M18.7799039,29.9039998 L18.7799039,27.5654398 L18.6416639,27.5654398 C18.1163519,29.1513598 16.5680639,30.2265598 14.6603519,30.2265598 C11.0384639,30.2265598 9.02015995,27.5654398 9.02015995,22.8614399 C9.02015995,18.1843199 11.0384639,15.5500799 14.6603519,15.5500799 C16.5680639,15.5500799 18.1439999,16.5715199 18.6416639,18.1843199 L18.7799039,18.1843199 L18.7799039,10.0127999 L22.3188479,10.0127999 L22.3188479,29.9039998 L18.7799039,29.9039998 Z M15.7939199,27.3772798 C17.4804479,27.3772798 18.7799039,26.5439998 18.7799039,25.0924799 L18.7799039,20.6303999 C18.7799039,19.2595199 17.4804479,18.3724799 15.7939199,18.3724799 C13.9691519,18.3724799 12.7249919,19.6895999 12.7249919,21.6787199 L12.7249919,24.0979199 C12.7249919,26.0870399 13.9691519,27.3772798 15.7939199,27.3772798 Z M25.5467519,29.9039998 L25.5467519,10.0127999 L29.0856958,10.0127999 L29.0856958,18.1843199 L29.1962878,18.1843199 C29.7215998,16.5715199 31.2698878,15.5500799 33.1775998,15.5500799 C36.8271358,15.5500799 38.8454398,18.1843199 38.8454398,22.8614399 C38.8454398,27.5654398 36.8271358,30.2265598 33.1775998,30.2265598 C31.2698878,30.2265598 29.7492478,29.1513598 29.1962878,27.5654398 L29.0856958,27.5654398 L29.0856958,29.9039998 L25.5467519,29.9039998 Z M32.0440318,27.3772798 C33.8687998,27.3772798 35.1406078,26.0870399 35.1406078,24.0979199 L35.1406078,21.6787199 C35.1406078,19.6895999 33.8687998,18.3724799 32.0440318,18.3724799 C30.3575038,18.3724799 29.0856958,19.2595199 29.0856958,20.6303999 L29.0856958,25.0924799 C29.0856958,26.5439998 30.3575038,27.3772798 32.0440318,27.3772798 Z" id="db" fill="#FFFFFF" fill-rule="nonzero"></path>
                </g>
            </g>
        </g>
    </g>
</svg>