<?xml version="1.0" encoding="UTF-8"?>
<svg width="344px" height="254px" viewBox="0 0 344 254" version="1.1" xmlns="http://www.w3.org/2000/svg" xmlns:xlink="http://www.w3.org/1999/xlink">
    <!-- Generator: Sketch 63.1 (92452) - https://sketch.com -->
    <title>undraw_moving_forward</title>
    <desc>Created with Sketch.</desc>
    <g id="Static-pages" stroke="none" stroke-width="1" fill="none" fill-rule="evenodd">
        <g id="Redirection-page" transform="translate(-468.000000, -175.000000)" fill-rule="nonzero">
            <g id="undraw_moving_forward" transform="translate(468.000000, 175.000000)">
                <path d="M341.710701,116.351192 L302.67245,206.504699 L289.315203,237.347556 C284.976952,247.360614 274.723177,253.895041 263.339775,253.895041 L77.7924156,253.895041 C66.409013,253.895041 56.1612468,247.360614 51.816987,237.347556 L49.954303,233.04425 L3.1468637,116.014712 C-2.22788088,103.599599 -0.815852814,89.6617001 11.4388052,82.9743329 L23.6964675,76.2929634 L30.7085714,72.4694687 L65.8652294,53.3010153 L76.1039827,47.7172137 L89.3050043,40.5200472 L104.34768,32.3182763 L115.085152,26.4675797 L141.222814,12.2111924 L147.219455,8.94847698 L156.346606,3.97043684 L156.601974,3.83548996 C165.314797,-0.885999465 175.829411,-0.885999465 184.542234,3.83548996 L230.953108,29.1485242 L245.848571,37.2723259 L261.134597,45.6060449 L271.736874,51.3847698 L296.273229,64.7565053 L315.921541,75.4712869 L329.681368,82.9683353 C341.948043,89.6527037 347.085446,103.93608 341.710701,116.351192 Z" id="Path" fill="#016CFA" opacity="0.1"></path>
                <path d="M93.6252294,41.5186541 C92.4986061,41.2487603 90.9964416,40.9188902 89.3050043,40.523046 L104.34768,32.3212751 C112.702719,34.4444392 120.739299,36.0038253 125.525195,35.7189374 C125.525195,35.7189374 126.961264,38.3339079 122.899411,38.3339079 C118.837558,38.3339079 122.776234,41.9744746 120.267619,42.2023849 C117.759004,42.4302952 115.728078,43.9057143 113.697152,42.2023849 C111.666225,40.4990555 110.353333,39.5874144 107.844719,39.926281 C105.336104,40.2651476 101.869108,42.0854309 100.673385,39.926281 C99.4776623,37.7671311 100.31587,43.1080283 93.6252294,41.5186541 Z" id="Path" fill="#016CFA" opacity="0.1"></path>
                <path d="M215.270511,31.2327037 C218.98987,31.4516175 224.686078,30.5579693 230.965126,29.1335301 L245.860589,37.2573318 C240.587991,37.8900826 241.230918,33.418843 240.12232,35.4250531 C238.920589,37.5842031 235.459602,35.7639197 232.950987,35.4250531 C230.442372,35.0861865 229.129481,35.99183 227.098554,37.701157 C225.067628,39.4104841 223.036701,37.9260685 220.528087,37.701157 C218.019472,37.4762456 221.958147,33.83268 217.896294,33.83268 C213.834442,33.83268 215.270511,31.2327037 215.270511,31.2327037 Z" id="Path" fill="#016CFA" opacity="0.1"></path>
                <path d="M319.926312,110.764392 C323.988165,110.764392 322.5551,108.146423 322.5551,108.146423 C311.469126,108.809162 282.870918,99.5428099 273.425307,96.3580638 L272.412848,69.161771 C277.547247,72.5444392 285.286398,73.9598819 288.969706,74.8595277 C295.660346,76.448902 294.825143,71.1050059 296.017861,73.2671547 C297.21058,75.4293034 300.677576,73.6060213 303.189195,73.2671547 C305.700814,72.9282881 307.010701,73.8339315 309.041628,75.5402597 C311.072554,77.246588 313.103481,75.7651712 315.612095,75.5402597 C315.722967,75.5329008 315.83274,75.513801 315.939567,75.4832822 L296.291255,64.7685006 L296.291255,64.7685006 C286.527186,62.1475325 276.874277,58.9987721 271.977221,57.3464227 L271.7549,51.3967651 L261.152623,45.6180401 L261.389965,58.2730579 C249.919437,62.0545691 225.362052,69.6685714 215.273515,69.0688076 C215.273515,69.0688076 213.837446,71.683778 217.899299,71.683778 C221.961152,71.683778 218.022476,75.3243447 220.531091,75.552255 C223.039706,75.7801653 225.070632,77.2585832 227.101558,75.552255 C229.132485,73.8459268 230.445377,72.9372845 232.953991,73.2791499 C235.462606,73.6210153 238.929602,75.4382999 240.125325,73.2791499 C241.321048,71.12 240.48284,76.4608973 247.173481,74.871523 C250.382104,74.1068241 256.658147,72.9252893 261.621299,70.4002834 L262.111004,96.5829752 C252.106589,99.9416529 224.454745,108.815159 213.588087,108.167414 C213.588087,108.167414 212.155022,110.785384 216.216874,110.785384 C220.278727,110.785384 216.337048,114.42595 218.845662,114.650862 C221.354277,114.875773 223.385203,116.35719 225.41613,114.650862 C227.447056,112.944534 228.762952,112.035891 231.271567,112.377757 C233.780182,112.719622 237.244173,114.536907 238.439896,112.377757 C239.635619,110.218607 238.797411,115.559504 245.491056,113.97013 C249.243463,113.070484 257.207939,111.610059 262.315299,108.092444 L262.841056,135.981464 C252.142641,139.544061 225.803688,147.880779 215.258494,147.254026 C215.258494,147.254026 213.822424,149.868996 217.884277,149.868996 C221.94613,149.868996 218.034494,153.49157 220.528087,153.731476 C223.02168,153.971381 225.067628,155.434805 227.098554,153.731476 C229.129481,152.028146 230.442372,151.113506 232.950987,151.455372 C235.459602,151.797237 238.926597,153.614522 240.12232,151.455372 C241.318043,149.296222 240.479835,154.637119 247.170476,153.047745 C250.700563,152.208076 257.956017,150.858607 263.075394,147.769823 L264.238069,209.311594 L264.238069,209.311594 C252.151654,213.243046 240.5249,218.805856 227.885688,220.506187 C206.777273,223.346068 185.224216,215.108312 164.208935,215.318229 L162.550545,170.78876 C167.357472,173.028878 173.113766,174.120449 176.136121,174.840165 C182.829766,176.42954 181.994563,171.088642 183.187281,173.247792 C184.38,175.406942 187.846996,173.586659 190.35561,173.247792 C192.864225,172.908926 194.180121,173.814569 196.211048,175.523896 C198.241974,177.233223 200.2729,175.748808 202.781515,175.523896 C205.29013,175.298985 201.351455,171.655419 205.413307,171.655419 C209.47516,171.655419 208.039091,169.040449 208.039091,169.040449 C197.998623,169.640213 173.627506,162.104179 162.072857,158.307674 L161.015333,129.89686 C166.149732,133.393483 174.069143,134.850909 177.809532,135.741558 C184.500173,137.330933 183.66497,131.990035 184.857688,134.149185 C186.050407,136.308335 189.520407,134.488052 192.029022,134.149185 C194.537636,133.810319 195.850528,134.715962 197.881455,136.425289 C199.912381,138.134616 201.943307,136.647202 204.454926,136.425289 C206.966545,136.203377 203.021861,132.556812 207.083714,132.556812 C211.145567,132.556812 209.709498,129.941842 209.709498,129.941842 C198.617515,130.601582 170.02832,121.33523 160.58271,118.150484 L159.567247,90.9541913 C164.704649,94.3368595 172.443801,95.7523022 176.124104,96.6519481 C182.817749,98.2413223 181.982545,92.8974262 183.175264,95.059575 C184.367983,97.2217237 187.834978,95.3984416 190.343593,95.059575 C192.852208,94.7207084 194.168104,95.6263518 196.19903,97.33268 C198.229957,99.0390083 200.260883,97.5575915 202.769498,97.33268 C205.278113,97.1077686 201.339437,93.4672019 205.40129,93.4672019 C209.463143,93.4672019 208.027074,90.8522314 208.027074,90.8522314 C197.034234,91.4999764 168.814571,82.3835655 159.149645,79.1208501 L158.14019,52.062503 C163.145403,56.2248642 172.095299,57.856222 176.14213,58.818843 C182.835775,60.4082172 182.000571,55.06732 183.19329,57.2264699 C184.386009,59.3856198 187.853004,57.5653365 190.361619,57.2264699 C192.870234,56.8876033 194.18613,57.7932468 196.217056,59.5025738 C198.247983,61.2119008 200.278909,59.7274852 202.787524,59.5025738 C205.296139,59.2776623 201.357463,55.6340968 205.419316,55.6340968 C209.481169,55.6340968 208.0451,53.0191263 208.0451,53.0191263 C196.433368,53.7118536 165.651013,43.5248642 157.722589,40.822928 L157.09168,23.8046281 C161.973714,26.179693 167.979368,27.3132468 171.091853,28.0539551 C177.782494,29.6433294 176.94729,24.2994333 178.140009,26.4615821 C179.332727,28.6237308 182.802727,26.8004486 185.311342,26.4615821 C187.819957,26.1227155 189.132848,27.0283589 191.163775,28.7346871 C193.194701,30.4410153 195.225628,28.9595986 197.734242,28.7346871 C200.242857,28.5097757 196.304182,24.8662102 200.366035,24.8662102 C204.427887,24.8662102 202.991818,22.2512397 202.991818,22.2512397 C192.828173,22.8510035 167.988381,15.1350413 156.626009,11.3835183 L156.34961,3.96743802 L147.219455,8.94847698 L147.243489,10.2199764 C145.783385,10.7147816 143.719411,11.4195041 141.234831,12.2111924 L115.097169,26.4675797 C117.605784,26.8094451 121.060762,28.620732 122.253481,26.4675797 C123.446199,24.3144274 122.610996,29.649327 129.304641,28.0599528 C133.390528,27.0853365 142.484632,25.4299882 147.459801,21.1626682 L147.862381,42.4542857 C136.103437,46.3197639 112.327177,53.6308855 102.439931,53.0311216 C102.439931,53.0311216 101.006866,55.6460921 105.068719,55.6460921 C109.130571,55.6460921 105.188892,59.2866588 107.697506,59.5145691 C110.206121,59.7424793 112.240052,61.2178985 114.270978,59.5145691 C116.301905,57.8112397 117.614797,56.8995986 120.123411,57.2384652 C122.632026,57.5773318 126.099022,59.3976151 127.294745,57.2384652 C128.490468,55.0793152 127.65226,60.4202125 134.3429,58.8308383 C137.398303,58.105124 143.244727,56.9955608 148.081697,54.7104604 L148.559385,80.0594805 C137.088857,83.8409917 112.531472,91.4549941 102.439931,90.8552302 C102.439931,90.8552302 101.006866,93.4702007 105.068719,93.4702007 C109.130571,93.4702007 105.188892,97.1107674 107.697506,97.3356789 C110.206121,97.5605903 112.240052,99.0420071 114.270978,97.3356789 C116.301905,95.6293506 117.614797,94.7207084 120.123411,95.0625738 C122.632026,95.4044392 126.099022,97.2217237 127.294745,95.0625738 C128.490468,92.9034238 127.65226,98.2443211 134.3429,96.6549469 C137.548519,95.8932468 143.827567,94.7087131 148.787714,92.1837072 L149.280424,118.366399 C139.273004,121.704085 111.62116,130.586588 100.757506,129.941842 C100.757506,129.941842 99.3214372,132.556812 103.38329,132.556812 C107.445143,132.556812 103.506468,136.197379 106.015082,136.425289 C108.523697,136.6532 110.554623,138.128619 112.58555,136.425289 C114.616476,134.72196 115.929368,133.810319 118.437983,134.149185 C120.946597,134.488052 124.413593,136.308335 125.609316,134.149185 C126.805039,131.990035 125.966831,137.330933 132.660476,135.741558 C136.409879,134.841913 144.377359,133.381488 149.49974,129.863872 L150.025498,157.767887 C139.321074,161.333483 112.98813,169.667202 102.439931,169.040449 C102.439931,169.040449 101.006866,171.655419 105.068719,171.655419 C109.130571,171.655419 105.188892,175.295986 107.697506,175.523896 C110.206121,175.751806 112.240052,177.227226 114.270978,175.523896 C116.301905,173.820567 117.614797,172.908926 120.123411,173.247792 C122.632026,173.586659 126.099022,175.406942 127.294745,173.247792 C128.490468,171.088642 127.65226,176.42954 134.3429,174.840165 C137.872987,174.000496 145.128442,172.651027 150.247818,169.562243 L151.149117,216.730673 L151.149117,216.730673 L150.767567,216.81464 C142.250294,218.754876 134.363931,222.764298 125.801593,224.428642 C111.831463,227.154569 96.8458701,223.59497 82.6293853,223.031192 L80.0366494,153.49157 C84.8435758,155.731688 90.5998701,156.823259 93.6252294,157.542975 C100.31587,159.132349 99.4806667,153.791452 100.673385,155.950602 C101.866104,158.109752 105.3331,156.289469 107.844719,155.950602 C110.356338,155.611736 111.666225,156.517379 113.697152,158.226706 C115.728078,159.936033 117.759004,158.451617 120.267619,158.226706 C122.776234,158.001795 118.837558,154.358229 122.899411,154.358229 C126.961264,154.358229 125.525195,151.743259 125.525195,151.743259 C115.484727,152.343022 91.1136104,144.806989 79.5739827,141.010484 L78.5164589,112.599669 C83.6478528,116.096293 91.5702684,117.553719 95.3076537,118.444368 C102.001299,120.033743 101.166095,114.692845 102.35581,116.851995 C103.545524,119.011145 107.018528,117.190862 109.527143,116.851995 C112.035758,116.513129 113.351654,117.418772 115.38258,119.128099 C117.413506,120.837426 119.444433,119.350012 121.953048,119.128099 C124.461662,118.906187 120.519983,115.259622 124.581835,115.259622 C128.643688,115.259622 127.210623,112.644652 127.210623,112.644652 C116.115636,113.304392 87.5264416,104.03804 78.0808312,100.853294 L77.065368,73.6570012 C82.2027706,77.0426682 89.9419221,78.4551122 93.6252294,79.354758 C100.31587,80.9441322 99.4806667,75.6002361 100.673385,77.7623849 C101.866104,79.9245336 105.3331,78.1012515 107.844719,77.7623849 C110.356338,77.4235183 111.681247,78.3111688 113.697152,80.0204959 C115.713056,81.7298229 117.759004,80.2424085 120.267619,80.0204959 C122.776234,79.7985832 118.837558,76.1520189 122.899411,76.1520189 C126.961264,76.1520189 125.525195,73.5370484 125.525195,73.5370484 C114.520338,74.1937898 86.297671,65.077379 76.6297403,61.8206612 L76.1039827,47.7262102 L65.8652294,53.3010153 L66.0424848,62.7472963 C57.6634113,65.5122078 42.3082857,70.3163164 30.6995584,72.4694687 L23.6874545,76.2929634 C25.7664502,76.9706966 22.9724242,79.8165762 25.189619,80.0204959 C27.6982338,80.2424085 29.7291602,81.7238253 31.7600866,80.0204959 C33.791013,78.3171665 35.1039048,77.4025266 37.6125195,77.744392 C40.1211342,78.0862574 43.5881299,79.9035419 44.7838528,77.744392 C45.9795758,75.585242 45.141368,80.9261393 51.8320087,79.3367651 C55.040632,78.5750649 61.3166753,77.3905313 66.2798268,74.8655254 L66.7695325,101.048217 C56.7651169,104.406895 29.1132727,113.2834 18.2466147,112.635655 C18.2466147,112.635655 16.8135498,115.250626 20.8754026,115.250626 C24.9372554,115.250626 20.9955758,118.891192 23.5041905,119.119103 C26.0128052,119.347013 28.0437316,120.822432 30.074658,119.119103 C32.1055844,117.415773 33.4214805,116.504132 35.9300952,116.842999 C38.43871,117.181865 41.9027013,119.002149 43.0984242,116.842999 C44.2941472,114.683849 43.4559394,120.024746 50.1495844,118.435372 C53.9019913,117.535726 61.8664675,116.075301 66.9888485,112.557686 L67.5176104,140.4617 C56.8191948,144.027296 30.4802424,152.361015 19.9350476,151.734262 C19.9350476,151.734262 18.4989784,154.349233 22.5608312,154.349233 C26.622684,154.349233 22.6810043,157.989799 25.1926234,158.21771 C27.7042424,158.44562 29.7321645,159.921039 31.7630909,158.21771 C33.7940173,156.51438 35.1069091,155.602739 37.6155238,155.941606 C40.1241385,156.280472 43.5911342,158.100756 44.7868571,155.941606 C45.9825801,153.782456 45.1443723,159.123353 51.835013,157.533979 C55.3650996,156.694309 62.6205541,155.344841 67.7399307,152.256057 L69.0888745,223.74791 L69.0888745,223.74791 C65.478015,224.35009 61.9710457,225.46073 58.6728658,227.046612 C55.4952508,228.617906 52.5609392,230.637858 49.9603117,233.04425 L51.8229957,237.347556 C56.1612468,247.360614 66.4150216,253.895041 77.7984242,253.895041 L263.339775,253.895041 C274.723177,253.895041 284.970944,247.360614 289.315203,237.347556 L302.67245,206.504699 C294.382166,204.813853 285.853921,204.633015 277.499177,205.970909 L277.499177,205.970909 L275.396147,148.993341 C280.203074,151.233459 285.959368,152.322031 288.984727,153.044746 C295.675368,154.63412 294.840165,149.290224 296.032883,151.452373 C297.225602,153.614522 300.692597,151.79124 303.204216,151.452373 C305.715835,151.113506 307.025723,152.01915 309.056649,153.728477 C311.087576,155.437804 313.118502,153.95039 315.627117,153.728477 C318.135732,153.506564 314.197056,149.86 318.258909,149.86 C322.320762,149.86 320.884693,147.24503 320.884693,147.24503 C310.844225,147.844793 286.473108,140.30876 274.933481,136.512255 L273.875957,108.10144 C279.007351,111.595065 286.929766,113.05549 290.667152,113.946139 C297.360797,115.535514 296.525593,110.191617 297.715307,112.353766 C298.905022,114.515915 302.378026,112.692633 304.886641,112.353766 C307.395255,112.0149 308.711152,112.920543 310.742078,114.626871 C312.773004,116.3332 314.803931,114.851783 317.312545,114.626871 C319.82116,114.40196 315.864459,110.764392 319.926312,110.764392 Z" id="Path" fill="#016CFA" opacity="0.1"></path>
                <path d="M269.815784,53.4691617 C271.84671,66.8319008 266.210589,78.7702007 266.210589,78.7702007 C266.210589,78.7702007 257.266701,69.0420307 255.235775,55.6792916 C253.204848,42.3165525 258.855991,30.3782527 258.855991,30.3782527 C258.855991,30.3782527 267.784857,40.1064227 269.815784,53.4691617 Z" id="Path" fill="#016CFA"></path>
                <path d="M307.580199,74.7667769 C314.949818,74.6858087 320.967489,78.6292562 320.967489,78.6292562 C320.967489,78.6292562 315.036944,82.7046517 307.667325,82.7856198 C300.297706,82.866588 294.280035,78.9201417 294.280035,78.9201417 C294.280035,78.9201417 300.21058,74.8447462 307.580199,74.7667769 Z" id="Path" fill="#016CFA"></path>
                <path d="M286.856338,54.4527745 C279.997455,61.9768123 278.546364,71.809941 278.546364,71.809941 C278.546364,71.809941 288.214294,69.4408737 295.070173,61.9138371 C301.926052,54.3868005 303.380147,44.5566706 303.380147,44.5566706 C303.380147,44.5566706 293.715221,46.9257379 286.856338,54.4527745 Z" id="Path" fill="#016CFA"></path>
                <rect id="Rectangle" fill="#464353" x="88.5599307" y="66.1749469" width="210.002597" height="187.726092" rx="4.9110002"></rect>
                <g id="Group" opacity="0.1" transform="translate(111.164502, 134.347107)" fill="#000000">
                    <path d="M163.309316,29.202503 L158.027706,31.7395041 L115.366234,52.2694215 L111.60181,54.0687131 C111.080306,54.3150278 110.480326,54.336671 109.94237,54.1285742 C109.404415,53.9204775 108.975732,53.5009176 108.75671,52.9681464 C108.656846,52.7213642 108.605833,52.4576051 108.606494,52.1914522 L108.606494,40.0642267 C108.606523,38.9107155 107.674086,37.9732925 106.518485,37.9650531 L2.38844156,37.9650531 C1.23281111,37.9650826 0.293665758,37.0343554 0.285411255,35.8808737 L0.285411255,18.7576151 C0.285411255,17.5982736 1.22696999,16.6584416 2.38844156,16.6584416 L106.518485,16.6584416 C107.668253,16.6502729 108.59831,15.721922 108.606494,14.5742621 L108.606494,2.17714286 C108.605833,1.91098996 108.656846,1.64723082 108.75671,1.40044864 C108.976786,0.867172056 109.406983,0.447769242 109.946279,0.240728249 C110.485575,0.0336872559 111.086456,0.0572486674 111.607818,0.305879575 L115.366234,2.13216057 L158.027706,22.8779929 L163.318329,25.4419835 C164.032941,25.7981885 164.483701,26.5277388 164.481796,27.3250323 C164.479879,28.1223257 164.025627,28.8497149 163.309316,29.202503 L163.309316,29.202503 Z" id="Path"></path>
                </g>
                <path d="M274.473818,170.050201 L269.192208,172.587202 L226.530736,193.117119 L222.766312,194.916411 C222.244808,195.162726 221.644828,195.184369 221.106872,194.976272 C220.568917,194.768175 220.140234,194.348615 219.921212,193.815844 C219.821348,193.569062 219.770335,193.305303 219.770996,193.03915 L219.770996,180.911924 C219.771025,179.758413 218.838588,178.82099 217.682987,178.812751 L113.552944,178.812751 C112.397313,178.81278 111.458168,177.882053 111.449913,176.728571 L111.449913,159.605313 C111.449913,158.445971 112.391472,157.506139 113.552944,157.506139 L217.682987,157.506139 C218.832755,157.497971 219.762812,156.56962 219.770996,155.42196 L219.770996,143.024841 C219.770335,142.758688 219.821348,142.494929 219.921212,142.248146 C220.141288,141.71487 220.571486,141.295467 221.110781,141.088426 C221.650077,140.881385 222.250958,140.904946 222.77232,141.153577 L226.530736,142.979858 L269.192208,163.725691 L274.482831,166.289681 C275.197443,166.645886 275.648203,167.375437 275.646298,168.17273 C275.644381,168.970023 275.190129,169.697413 274.473818,170.050201 L274.473818,170.050201 Z" id="Path" fill="#FAF865"></path>
                <path d="M49.8251169,203.011074 C49.9272641,205.518087 48.3229524,207.740213 46.8207879,209.737426 C46.1379637,210.673488 45.5206122,211.655431 44.9731255,212.676269 C43.3207446,215.615112 39.7696277,217.012562 37.8468571,219.783471 C37.3811861,220.455207 37.0206667,221.192916 36.6150823,221.903636 C35.222194,224.347753 33.4725212,226.57126 31.4236017,228.501039 L27.9475931,231.751759 C26.9591688,232.675396 25.9497143,233.626021 25.3638701,234.846541 C24.6939048,236.252987 24.6578528,237.84536 24.6969091,239.41974 C24.6969091,239.593672 24.6969091,239.764604 24.6969091,239.935537 C24.6969091,240.05549 24.6969091,240.172444 24.6969091,240.292397 C24.7569957,242.196647 24.8441212,244.109894 25.2977749,245.954168 C25.4479913,246.553932 25.6342597,247.183684 25.3999221,247.753459 C25.1505628,248.353223 24.4986234,248.686092 23.86471,248.896009 C23.1857316,249.120921 22.440658,249.273861 21.7616797,249.036954 C21.0827013,248.800047 20.614026,248.215277 20.1964242,247.639504 C18.1685022,244.850602 17.345316,241.407957 16.1375758,238.178229 C15.8852121,237.506494 16.1556017,236.738796 16.6002424,236.178017 C17.0828104,235.648004 17.6138745,235.164096 18.1865281,234.732586 C20.5899913,232.633412 21.6985887,229.484652 22.6179134,226.443849 C23.5372381,223.403046 24.4205108,220.221299 26.5085195,217.834238 C27.8664762,216.283849 29.6480433,215.174286 31.1622251,213.776836 C34.932658,210.292208 36.8163723,205.20621 37.8017922,200.168194 C38.962251,199.952352 40.1512361,199.937136 41.3168571,200.123211 L47.5147879,200.944888 C48.1847532,201.034852 48.9178095,201.157804 49.3534372,201.670602 C49.6529943,202.054079 49.8186457,202.524846 49.8251169,203.011074 Z" id="Path" fill="#EFB7B9"></path>
                <path d="M76.2812381,208.121063 C76.1504306,209.056094 75.8194649,209.952051 75.3108398,210.748028 C74.558904,211.894161 73.7084755,212.972806 72.7691775,213.971759 C70.4017662,216.670697 70.0021905,220.545171 68.4940173,223.810885 C68.0043117,224.872468 67.3974372,225.874073 66.9017229,226.929658 C65.6008485,229.706564 65.1231602,232.762361 64.8407532,235.833152 C64.8047013,236.228996 64.7716537,236.624841 64.7416104,237.017686 C64.6995498,237.506494 64.6665022,237.995301 64.6304502,238.48111 C64.537316,239.767603 64.4561991,241.120071 64.9999827,242.28961 C65.2793853,242.889374 65.7360433,243.387178 65.7540693,244.049917 C64.8227273,244.949563 63.2244242,244.847603 62.1488745,244.115891 C61.0733247,243.384179 60.4033593,242.196647 59.8595758,241.012113 C58.8608827,238.840666 58.1392097,236.552674 57.7114805,234.201795 C57.5462424,233.302149 57.4711342,232.261558 58.1110563,231.613813 C58.4325195,231.289941 58.8801645,231.128005 59.240684,230.846116 C60.0308225,230.228359 60.2591515,229.148784 60.4424156,228.147178 C61.0432814,224.748516 61.6511573,221.349854 62.2660433,217.951192 C62.401132,217.120024 62.5786181,216.296278 62.7978095,215.483164 C63.3115498,213.686871 64.0926753,211.668666 65.5708052,210.469138 C65.9577984,210.111316 66.1336399,209.58023 66.0364762,209.062692 C65.9324676,208.555913 65.7370118,208.072235 65.459645,207.635254 C64.3570563,205.668028 63.0411602,203.694805 61.058303,202.61523 C63.1161711,200.895873 65.4626994,199.553688 67.98929,198.650791 C68.434733,198.444149 68.9274676,198.360279 69.4163463,198.407887 C69.6776008,198.466426 69.927336,198.567758 70.1554113,198.707769 C71.5163723,199.469469 72.5588745,200.668996 73.5563117,201.868524 C75.0434545,203.673813 76.5305974,205.796978 76.2812381,208.121063 Z" id="Path" fill="#EFB7B9"></path>
                <path d="M28.0527446,248.281251 C27.4367546,247.699846 26.7254347,247.228193 25.9497143,246.8868 C25.7746715,246.78489 25.5802572,246.720545 25.3788918,246.697875 C24.8951948,246.673884 24.531671,247.108713 24.1170736,247.360614 C23.4284776,247.729548 22.6004921,247.729548 21.9118961,247.360614 C21.2384472,246.98578 20.6726162,246.444735 20.2685281,245.789233 C19.3852554,244.487745 19.2110043,243.189256 18.8444762,241.761818 L22.696026,241.036104 C23.3976206,240.874493 24.074535,240.62036 24.7089264,240.280401 C24.7089264,240.160449 24.7089264,240.043495 24.7089264,239.923542 C24.7089264,239.752609 24.7089264,239.581677 24.7089264,239.407745 C23.9969004,239.620661 22.4857229,240.307391 22.1282078,240.400354 C20.9682013,240.663984 19.7919149,240.850322 18.6071342,240.958135 C18.4238701,240.595277 18.1594892,240.280401 17.9461818,239.923542 C17.514979,239.206498 17.241541,238.406088 17.144026,237.575466 C17.1345733,237.247341 17.0706129,236.923059 16.9547532,236.615844 C16.8264868,236.289536 16.4916779,236.092733 16.1435844,236.139032 C16.018695,236.173869 15.9014893,236.231856 15.7980866,236.309965 C14.7204288,237.053515 13.8848121,238.09612 13.3946234,239.308784 C12.6705801,241.108076 12.7757316,243.12928 12.4933247,245.051523 C12.277013,246.490956 11.8323723,247.918394 11.9104848,249.372822 C11.8991801,249.458861 11.925768,249.54557 11.9833817,249.610554 C12.0409953,249.675538 12.1239853,249.712425 12.2109177,249.711688 C13.0130736,249.888619 13.9354026,250.041558 14.587342,249.543754 C15.2392814,249.04595 15.3324156,248.104321 15.4585974,247.285643 C15.6280508,246.192909 15.960194,245.131595 16.4440173,244.136883 C17.4395124,245.353489 17.961231,246.888085 17.9131342,248.458182 C17.9131342,249.324841 17.8049784,250.308453 18.3998355,250.941204 C18.6917337,251.22175 19.0473731,251.42754 19.436329,251.540968 C20.2268483,251.817064 21.0480348,251.996306 21.8818528,252.074758 C23.3840173,252.218701 24.9132208,252.029776 26.4183896,251.84085 C26.8930736,251.780874 27.3707619,251.720897 27.8424416,251.615939 C28.0828761,251.578995 28.3107248,251.484318 28.5063983,251.340047 C28.7237664,251.142265 28.8624284,250.872903 28.896961,250.581346 C28.9897266,249.72526 28.6776161,248.874905 28.0527446,248.281251 L28.0527446,248.281251 Z" id="Path" fill="#464353"></path>
                <path d="M67.7940087,243.456151 C67.4267336,243.124122 67.0114927,242.84915 66.5622338,242.640472 C66.1979522,242.415552 65.7868289,242.277052 65.3605022,242.235632 C64.8707965,242.235632 64.4231515,242.475537 63.9694978,242.661464 C63.5158442,242.847391 62.9840779,242.961346 62.5574632,242.72144 C62.2222127,242.475341 61.9764639,242.12687 61.8574545,241.728831 C61.3166753,240.439339 60.9080866,239.095868 60.4364069,237.782385 C60.5473894,237.608094 60.7102179,237.472827 60.9020779,237.395537 C61.0504952,237.35363 61.2046177,237.335413 61.3587359,237.341558 C61.9596017,237.341558 63.7862338,237.341558 64.756632,237.005691 C64.7866753,236.612845 64.8197229,236.217001 64.8557749,235.821157 C64.1046926,235.665218 62.8158355,235.935112 62.4763463,236.028076 C61.9205455,236.16902 61.3527273,236.375939 60.7909177,236.255986 C60.400355,236.175018 60.0308225,235.938111 59.6492727,235.887131 C59.469013,235.554262 59.2737316,235.233388 59.0874632,234.906517 C58.6127792,234.066848 58.4655671,233.089233 58.0029004,232.276553 C57.86151,231.989178 57.577767,231.798459 57.2578268,231.77575 C56.9209487,231.824371 56.6166894,232.003146 56.4106061,232.273554 C55.6445022,233.050248 54.857368,233.853932 54.4187359,234.852538 C54.2312599,235.303896 54.0864232,235.771744 53.9861126,236.249988 C53.3548361,238.934478 53.0521919,241.685504 53.0848139,244.442763 C53.7828546,244.66481 54.5205848,244.734357 55.2479307,244.646682 C55.6204675,242.791413 56.0761241,240.955136 56.6149004,239.137851 C56.6272239,239.069723 56.6647573,239.008709 56.7200519,238.966919 C56.8372208,238.903943 56.9603983,239.032893 57.0204848,239.146848 C57.6765714,240.121298 58.2074829,241.174122 58.6007619,242.280614 C58.8441126,243.069303 58.9552727,243.923967 59.4149351,244.610697 C59.9066912,245.285898 60.6200248,245.767655 61.4308398,245.972161 C62.2359408,246.172771 63.0616458,246.279443 63.8913853,246.290035 L65.1231602,246.350012 C65.7899578,246.428096 66.4656205,246.37512 67.112026,246.194073 C67.7429351,245.975159 68.3137576,245.438371 68.3618268,244.772633 C68.3701327,244.272894 68.1633978,243.793581 67.7940087,243.456151 L67.7940087,243.456151 Z" id="Path" fill="#464353"></path>
                <path d="M73.5713333,200.896907 C73.0666061,201.412704 72.3245368,201.607627 71.6215238,201.77856 L69.4854459,202.297355 C69.2470767,202.323284 69.0298387,202.445798 68.8845801,202.636222 C68.7614026,202.858135 68.8485281,203.137025 68.7884416,203.382928 C68.7649439,203.480337 68.7186078,203.570783 68.6532468,203.646824 C68.3517097,203.915293 67.9573846,204.056172 67.5536623,204.039669 C67.2016242,204.025527 66.8500509,204.077403 66.5171688,204.192609 C66.3775028,204.253225 66.2570211,204.350678 66.1686667,204.474498 C66.0605108,204.630437 66.0154459,204.822361 65.9012814,204.972302 C65.7067624,205.18165 65.4456057,205.317288 65.1622165,205.356151 C64.8654482,205.423447 64.5642523,205.469546 64.2609177,205.494097 C63.0715201,205.59252 61.8776167,205.367649 60.8059394,204.843353 C60.5533049,204.669453 60.2448475,204.595687 59.9406926,204.636434 C59.7625087,204.699538 59.6110465,204.82112 59.5110736,204.981299 C59.4012007,205.151773 59.2818418,205.315966 59.1535584,205.473105 C58.6007619,206.072869 57.6513939,205.910933 56.8552468,205.742999 C56.3655411,205.63804 55.8728312,205.548076 55.3801212,205.467107 C52.4358788,204.987296 49.4345541,204.891334 46.4362338,204.804368 C42.5606494,204.687414 38.6850649,204.582456 34.932658,203.667816 C34.1154805,203.469894 33.1300606,203.002078 33.1691169,202.168406 C33.1961558,201.691594 33.5747013,201.26876 33.571697,200.800945 C33.571697,199.985266 32.5712554,199.547438 31.7690996,199.412491 C32.0695325,194.956246 34.740381,191.054782 36.1373939,186.81745 C36.4858961,185.764864 36.7382597,184.685289 37.1318268,183.644699 C38.8322771,178.954545 42.566658,175.355962 45.6731342,171.451499 C46.1484528,170.903635 46.5393042,170.288112 46.8328052,169.625218 C47.0994539,168.829335 47.2383663,167.996377 47.2443983,167.15719 L47.415645,164.221346 C52.0212814,164.005431 56.4947273,164.092397 61.0012208,165.064014 C61.2468817,165.056761 61.4852832,165.147673 61.6635215,165.316577 C61.8417597,165.48548 61.9450923,165.718404 61.9505887,165.96366 C62.1248398,167.037237 62.2470159,168.115813 62.3171169,169.199386 C62.3192463,169.438796 62.3536029,169.676834 62.4192641,169.907107 C62.5375297,170.198278 62.7018538,170.468612 62.9059654,170.707792 C65.5137229,174.120449 67.112026,178.204841 68.3738442,182.29523 C69.6356623,186.38562 70.6391082,190.589965 72.2253939,194.59039 C72.7721818,195.969847 73.4872121,197.520236 73.6314199,198.998654 C74.2022424,199.421488 74.0760606,200.378111 73.5713333,200.896907 Z" id="Path" fill="#464353"></path>
                <path d="M55.3831255,205.467107 C52.4388831,204.987296 49.4375584,204.891334 46.4392381,204.804368 C46.5213564,202.045455 46.6044762,199.286541 46.6885974,196.527627 C46.7456797,194.692349 46.7997576,192.854073 47.0190736,191.03379 C47.3195065,188.44281 47.9624329,185.90281 48.2808918,183.314829 C48.4615974,181.832442 48.5448952,180.339837 48.5302511,178.846588 C48.5152294,177.326187 48.4070736,175.796789 48.6564329,174.297379 C48.8607273,173.064864 49.4015065,171.319551 50.5431515,170.644817 C51.3062511,171.688406 50.1345628,174.603259 49.9963636,175.850767 C49.7139567,178.447745 50.4169697,181.035726 51.0208398,183.575726 C51.7478874,186.625525 52.3427446,189.705313 52.9345974,192.7851 C53.7517749,197.011436 54.5679509,201.238772 55.3831255,205.467107 Z" id="Path" fill="#000000" opacity="0.1"></path>
                <path d="M64.2639221,205.494097 C63.0745245,205.59252 61.880621,205.367649 60.8089437,204.843353 C60.5563092,204.669453 60.2478519,204.595687 59.943697,204.636434 C59.765513,204.699538 59.6140508,204.82112 59.5140779,204.981299 C58.4986147,200.168194 58.5526926,195.160165 57.7505368,190.287084 C57.4501039,188.553766 57.0655498,186.784463 57.4020346,185.060142 C57.7625541,183.218867 58.9252294,181.620496 59.3788831,179.800213 C59.679316,178.600685 59.6552814,177.362172 59.6342511,176.135655 C59.6132208,174.909138 59.2527013,174.084463 58.8501212,172.989894 C59.9196623,173.166824 60.7909177,174.213412 61.2205368,175.15804 C61.7462944,176.309587 61.8454372,177.602078 61.9145368,178.86758 C62.0827792,181.923377 62.1098182,184.982172 62.0647532,188.040968 C62.0065815,189.468005 62.0386915,190.897284 62.1608918,192.320283 C62.3171169,193.720732 62.6626147,195.09719 62.7767792,196.500638 C62.9089697,198.185974 62.710684,199.910295 63.1222771,201.550649 C63.4527532,202.873129 64.1707879,204.192609 64.2639221,205.494097 Z" id="Path" fill="#000000" opacity="0.1"></path>
                <path d="M68.6472381,203.646824 C68.3457011,203.915293 67.9513759,204.056172 67.5476537,204.039669 C67.1956155,204.025527 66.8440422,204.077403 66.5111602,204.192609 C65.9102944,200.53405 65.3164387,196.877489 64.7295931,193.222928 C64.4825734,191.876969 64.3100636,190.518442 64.2128485,189.15353 C64.1347359,187.573152 64.2579134,185.989776 64.1467532,184.412397 C64.0115584,182.472161 63.5248571,180.582904 63.0591861,178.71464 C62.7827879,177.59608 61.514961,174.261393 62.2239827,173.316765 C63.3295758,174.030484 64.0025455,175.556883 64.3780866,176.774404 C64.7656006,178.181989 65.0121632,179.624497 65.1141472,181.080708 L65.961368,189.543377 C66.4300433,194.224534 66.9137403,198.965667 68.5510996,203.379929 C68.5841472,203.469894 68.6171948,203.571854 68.6472381,203.646824 Z" id="Path" fill="#000000" opacity="0.1"></path>
                <path d="M77.9486407,151.722267 C78.7417835,151.05353 79.5349264,150.381795 80.261974,149.644085 C81.2878769,148.55871 82.2356028,147.40228 83.0980606,146.183447 C84.0173853,144.93294 84.9307013,143.652444 85.5015238,142.207013 C86.1474545,140.551665 86.3457403,138.668406 87.4693593,137.294947 C87.5963933,137.11648 87.7728532,136.978906 87.9770909,136.899103 C88.617013,136.698182 89.0947013,137.498867 89.2178788,138.161606 C89.8187446,141.406328 88.3856797,144.645053 86.991671,147.637875 C86.5320087,148.624486 86.051316,149.638087 85.2551688,150.384793 C84.8345628,150.777639 84.3538701,151.080519 83.8881991,151.431381 C83.1843584,152.002491 82.5365138,152.639106 81.9534113,153.332633 C80.9519683,154.468186 79.999596,155.644723 79.0962944,156.862243 C77.9756797,158.361653 76.9241645,159.933034 75.5962511,161.255514 C74.2683377,162.577993 72.6069437,163.654569 70.7472641,163.915466 C71.2790303,163.843495 71.1047792,160.727721 71.047697,160.334876 C70.9665801,159.7651 70.5760173,159.093365 70.564,158.535584 C70.5489784,157.851854 70.828381,157.752893 71.3931948,157.273081 L77.9486407,151.722267 Z" id="Path" fill="#EFB7B9"></path>
                <path d="M77.9486407,151.722267 C78.7417835,151.05353 79.5349264,150.381795 80.261974,149.644085 C81.2878769,148.55871 82.2356028,147.40228 83.0980606,146.183447 C84.0173853,144.93294 84.9307013,143.652444 85.5015238,142.207013 C86.1474545,140.551665 86.3457403,138.668406 87.4693593,137.294947 C87.5963933,137.11648 87.7728532,136.978906 87.9770909,136.899103 C88.617013,136.698182 89.0947013,137.498867 89.2178788,138.161606 C89.8187446,141.406328 88.3856797,144.645053 86.991671,147.637875 C86.5320087,148.624486 86.051316,149.638087 85.2551688,150.384793 C84.8345628,150.777639 84.3538701,151.080519 83.8881991,151.431381 C83.1843584,152.002491 82.5365138,152.639106 81.9534113,153.332633 C80.9519683,154.468186 79.999596,155.644723 79.0962944,156.862243 C77.9756797,158.361653 76.9241645,159.933034 75.5962511,161.255514 C74.2683377,162.577993 72.6069437,163.654569 70.7472641,163.915466 C71.2790303,163.843495 71.1047792,160.727721 71.047697,160.334876 C70.9665801,159.7651 70.5760173,159.093365 70.564,158.535584 C70.5489784,157.851854 70.828381,157.752893 71.3931948,157.273081 L77.9486407,151.722267 Z" id="Path" fill="#000000" opacity="0.1"></path>
                <path d="M55.6505108,132.097993 C55.6505108,132.097993 53.8479134,141.094451 51.7448831,142.593861 C49.6418528,144.09327 63.1613333,145.892562 63.1613333,145.892562 C63.1613333,145.892562 63.4617662,138.695396 67.066961,135.396694 C70.6721558,132.097993 55.6505108,132.097993 55.6505108,132.097993 Z" id="Path" fill="#EFB7B9"></path>
                <path d="M52.063342,141.709209 C51.1718132,141.830859 50.3533465,142.266999 49.7560173,142.938725 C48.337974,144.462125 48.0555671,146.780213 48.5542857,148.801417 C49.0530043,150.822621 50.1976537,152.612916 51.387368,154.319244 C52.9376017,156.544368 54.6050043,158.736505 56.7591082,160.388855 C57.9244107,161.231249 59.1338665,162.011048 60.382329,162.724935 C62.4568755,164.000399 64.4505366,165.402516 66.3519307,166.923282 C66.768774,167.300031 67.246104,167.604151 67.7639654,167.822928 C68.2096901,167.9623 68.6763135,168.023185 69.1429524,168.002857 C70.7203129,167.985751 72.2748327,167.624445 73.6975152,166.944274 C73.8308166,166.892794 73.9487155,166.808145 74.0400087,166.698371 C74.1473284,166.466248 74.1527728,166.19996 74.0550303,165.96366 C73.2078095,162.545006 74.8421645,158.667532 73.2198268,155.542763 C71.4562857,156.115537 69.5214978,156.74229 67.7579567,157.300071 C67.4874971,157.409694 67.1962569,157.458827 66.9047273,157.444014 C66.5553843,157.371576 66.2354359,157.197284 65.9854026,156.943211 C64.0746494,155.293861 62.8699134,152.996765 61.779342,150.726659 C60.6887706,148.456553 59.6192294,146.114475 57.9007532,144.267202 C56.1822771,142.419929 54.574961,141.442314 52.063342,141.709209 Z" id="Path" fill="#016CFA"></path>
                <path d="M52.063342,141.709209 C51.1718132,141.830859 50.3533465,142.266999 49.7560173,142.938725 C48.337974,144.462125 48.0555671,146.780213 48.5542857,148.801417 C49.0530043,150.822621 50.1976537,152.612916 51.387368,154.319244 C52.9376017,156.544368 54.6050043,158.736505 56.7591082,160.388855 C57.9244107,161.231249 59.1338665,162.011048 60.382329,162.724935 C62.4568755,164.000399 64.4505366,165.402516 66.3519307,166.923282 C66.768774,167.300031 67.246104,167.604151 67.7639654,167.822928 C68.2096901,167.9623 68.6763135,168.023185 69.1429524,168.002857 C70.7203129,167.985751 72.2748327,167.624445 73.6975152,166.944274 C73.8308166,166.892794 73.9487155,166.808145 74.0400087,166.698371 C74.1473284,166.466248 74.1527728,166.19996 74.0550303,165.96366 C73.2078095,162.545006 74.8421645,158.667532 73.2198268,155.542763 C71.4562857,156.115537 69.5214978,156.74229 67.7579567,157.300071 C67.4874971,157.409694 67.1962569,157.458827 66.9047273,157.444014 C66.5553843,157.371576 66.2354359,157.197284 65.9854026,156.943211 C64.0746494,155.293861 62.8699134,152.996765 61.779342,150.726659 C60.6887706,148.456553 59.6192294,146.114475 57.9007532,144.267202 C56.1822771,142.419929 54.574961,141.442314 52.063342,141.709209 Z" id="Path" fill="#000000" opacity="0.1"></path>
                <path d="M62.710684,138.845336 C67.6884193,138.845336 70.563425,134.817485 70.563425,129.848878 C70.563425,124.880272 67.6884193,120.85242 62.710684,120.85242 C57.7329487,120.85242 53.697697,124.880272 53.697697,129.848878 C53.697697,134.817485 57.7329487,138.845336 62.710684,138.845336 Z" id="Oval" fill="#EFB7B9"></path>
                <path d="M66.3158788,155.740685 L66.2948485,155.779669 C65.7750996,156.74229 64.9969784,157.551972 64.4622078,158.511594 C63.861342,159.597166 63.5819394,160.835679 63.3415931,162.056198 C63.1753535,162.875876 63.0221328,163.696553 62.8819307,164.518229 C62.7377229,165.351901 62.6025281,166.185573 62.4793506,167.025242 C59.7574286,166.104604 56.7410823,167.648996 53.9230216,167.085218 C53.0788052,166.917285 52.2706407,166.563424 51.4114026,166.524439 C50.7834978,166.494451 50.1525887,166.635396 49.524684,166.575419 C48.4821818,166.476458 47.4486926,165.822715 46.4542597,166.155584 C46.009619,166.305525 45.4598268,166.6234 45.141368,166.278536 C45.0696335,166.189147 45.0146725,166.087554 44.9791342,165.978654 C44.7207619,165.267934 44.456381,164.503235 44.6426494,163.771523 C44.8018788,163.147769 45.2615411,162.652963 45.58,162.092184 C46.1297922,161.117568 46.2409524,159.963022 46.3130563,158.844463 C46.4963203,155.953601 46.4903117,153.041747 46.9649957,150.183872 C47.4396797,147.325998 48.4401212,144.486116 50.3749091,142.31497 C51.3242771,141.253388 52.5650649,140.350744 53.9801039,140.23379 C59.1866061,139.813955 63.3986753,142.680826 65.6729524,147.233034 C66.9948571,149.871995 67.6978701,153.128713 66.3158788,155.740685 Z" id="Path" fill="#016CFA"></path>
                <path d="M81.5538355,152.921795 C82.3469784,152.253058 83.1401212,151.581322 83.8671688,150.843613 C84.8930717,149.758237 85.8407976,148.601807 86.7032554,147.382975 C87.6225801,146.132468 88.5358961,144.851972 89.1067186,143.406541 C89.7526494,141.751192 89.9509351,139.867934 91.0745541,138.494475 C91.2015881,138.316008 91.378048,138.178434 91.5822857,138.09863 C92.2222078,137.89771 92.6998961,138.698394 92.8230736,139.361133 C93.4239394,142.605856 91.9908745,145.844581 90.5968658,148.837403 C90.1372035,149.824014 89.6565108,150.837615 88.8603636,151.584321 C88.4397576,151.977166 87.9590649,152.280047 87.4933939,152.630909 C86.7895532,153.202018 86.1417086,153.838634 85.5586061,154.532161 C84.5571631,155.667713 83.6047908,156.84425 82.7014892,158.061771 C81.5808745,159.561181 80.5293593,161.132562 79.2014459,162.455041 C77.8735325,163.777521 76.2121385,164.854097 74.3524589,165.114994 C74.8842251,165.043022 74.709974,161.927249 74.6528918,161.534404 C74.5717749,160.964628 74.1812121,160.292893 74.1691948,159.735112 C74.1541732,159.051381 74.4335758,158.95242 74.9983896,158.472609 L81.5538355,152.921795 Z" id="Path" fill="#EFB7B9"></path>
                <path d="M65.4145801,156.040567 L65.3935498,156.079551 C64.8738009,157.042172 64.0956797,157.851854 63.5609091,158.811476 C62.9600433,159.897048 62.6806407,161.135561 62.4402944,162.35608 C62.2740548,163.175758 62.1208341,163.996434 61.980632,164.818111 C60.9017849,164.200445 59.8586334,163.522639 58.8561299,162.78791 C56.702026,161.135561 55.0346234,158.943424 53.4843896,156.715301 C52.282658,155.008973 51.141013,153.218678 50.6513074,151.200472 C50.1616017,149.182267 50.447013,146.861181 51.853039,145.33778 C52.45023,144.665366 53.2685861,144.228221 54.1603636,144.105266 C56.6719827,143.838371 58.2582684,144.806989 59.9767446,146.651263 C61.6952208,148.495537 62.7587532,150.84961 63.8553333,153.11072 C64.3420346,154.091334 64.8407532,155.095939 65.4145801,156.040567 Z" id="Path" fill="#000000" opacity="0.1"></path>
                <path d="M55.6685368,142.908737 C54.777008,143.030387 53.9585413,143.466527 53.3612121,144.138253 C51.9431688,145.661653 51.6607619,147.97974 52.1594805,150.000945 C52.6581991,152.022149 53.8028485,153.812444 54.9925628,155.518772 C56.5427965,157.743896 58.2101991,159.936033 60.364303,161.588383 C61.5296055,162.430777 62.7390613,163.210576 63.9875238,163.924463 C66.0620703,165.199927 68.0557314,166.602044 69.9571255,168.12281 C70.3739688,168.499559 70.8512988,168.803679 71.3691602,169.022456 C71.8148849,169.161828 72.2815083,169.222713 72.7481472,169.202385 C74.3255077,169.185279 75.8800275,168.823973 77.30271,168.143802 C77.4360114,168.092322 77.5539104,168.007673 77.6452035,167.897898 C77.7525232,167.665776 77.7579676,167.399488 77.6602251,167.163188 C76.8130043,163.744534 78.4473593,159.86706 76.8250216,156.74229 C75.0614805,157.315065 73.1266926,157.941818 71.3631515,158.499599 C71.0926919,158.609221 70.8014517,158.658355 70.5099221,158.643542 C70.1605791,158.571104 69.8406307,158.396812 69.5905974,158.142739 C67.6798442,156.493388 66.4751082,154.196293 65.3845368,151.926187 C64.2939654,149.65608 63.2244242,147.314002 61.5059481,145.46673 C59.7874719,143.619457 58.1801558,142.641842 55.6685368,142.908737 Z" id="Path" fill="#016CFA"></path>
                <path d="M68.5390823,123.566352 C69.413342,122.573743 69.2270736,120.972373 68.463974,119.892798 C67.7008745,118.813223 66.4991429,118.13549 65.3304589,117.517733 C63.4707792,116.531122 61.331697,115.577497 59.3218009,116.228241 C58.537671,116.48314 57.852684,116.96595 57.131645,117.367792 C55.8037316,118.105502 54.3406234,118.56732 52.9886753,119.257048 C51.6367273,119.946777 50.3448658,120.93039 49.762026,122.330838 C49.1791861,123.731287 49.3714632,125.239693 49.5216797,126.712113 C49.7500087,128.991216 49.8821991,131.303306 49.5637403,133.573412 C49.2452814,135.843518 48.4551429,138.089634 47.0040519,139.870933 C45.9885887,141.118442 44.6426494,142.156033 44.0327706,143.643447 C43.7326274,144.499796 43.5644719,145.396666 43.5340519,146.3034 L43.2065801,150.168878 C43.0773939,151.710272 42.8821126,153.395608 41.7675065,154.469185 C43.1975671,154.139315 44.666684,153.791452 45.8744242,152.969776 C46.5922898,152.434165 47.2464717,151.81841 47.8242338,151.134498 C48.9658788,149.877993 50.1525887,148.537521 50.4950823,146.876175 C50.7504502,145.634664 50.5371429,144.225218 51.2942338,143.208619 C52.1955325,142.009091 54.0792468,142.009091 55.3440693,142.791783 C56.6088918,143.574475 57.3810043,144.947934 58.0479654,146.273412 C58.7149264,147.59889 59.4059221,148.993341 60.5716017,149.922975 C61.5284613,150.647301 62.6525489,151.119624 63.8403117,151.296434 C64.6394632,151.443377 65.5467706,151.48536 66.1776797,150.975561 C67.0399221,150.279835 66.9527965,148.954357 66.6733939,147.883778 C66.3038615,146.465336 65.7300346,144.986919 66.1296104,143.574475 C66.2618009,143.10366 66.4991429,142.674829 66.646355,142.201015 C66.8221707,141.523652 66.9040511,140.825414 66.8897056,140.125832 C66.9738268,136.608217 67.1330563,132.820708 65.9884069,129.43804 C65.6218788,128.355466 64.6394632,127.323872 65.1441905,126.139339 C65.7720952,124.702904 67.5837056,124.651924 68.5390823,123.566352 Z" id="Path" fill="#464353"></path>
                <g id="Group" opacity="0.1" transform="translate(41.764502, 120.552538)" fill="#000000">
                    <path d="M7.97048485,9.0294451 C8.01856375,7.37029207 7.94929215,5.70982052 7.76318615,4.06040142 C7.73013853,3.73652893 7.69408658,3.40965762 7.66704762,3.07978749 C7.58376718,4.1067456 7.61601448,5.13978427 7.76318615,6.15957497 C7.85932468,7.11319953 7.9344329,8.07282172 7.97048485,9.0294451 Z" id="Path"></path>
                    <path d="M24.4131775,28.3238489 C23.7822684,28.8336482 22.874961,28.7916647 22.0758095,28.6447226 C20.8880468,28.4679123 19.7639591,27.9955888 18.8070996,27.2712633 C17.6504329,26.329634 16.9804675,24.9381818 16.3014892,23.6097048 C15.6225108,22.2812279 14.8503983,20.9107674 13.5975931,20.1280756 C12.3447879,19.3453837 10.4310303,19.3483825 9.5297316,20.5449115 C8.77264069,21.5615112 8.98594805,22.9709563 8.73058009,24.2124675 C8.38808658,25.8738135 7.20137662,27.2112869 6.0597316,28.470791 C5.48196957,29.1547028 4.82778761,29.770458 4.10992208,30.3060685 C3.21460825,30.8785116 2.22653872,31.2914816 1.18971429,31.526588 C1.04616812,32.4276184 0.632412565,33.2640675 0.003004329,33.9256434 C1.43306494,33.5957733 2.90218182,33.2479103 4.10992208,32.4262338 C4.82778761,31.8906233 5.48196957,31.2748681 6.0597316,30.5909563 C7.20137662,29.334451 8.38808658,27.9939787 8.73058009,26.3326328 C8.98594805,25.0911216 8.77264069,23.6816765 9.5297316,22.6650767 C10.4310303,21.465549 12.3147446,21.465549 13.5795671,22.2482409 C14.8443896,23.0309327 15.6165022,24.404392 16.2834632,25.7298701 C16.9504242,27.0553483 17.6414199,28.4408028 18.8070996,29.3704368 C19.7639591,30.0947623 20.8880468,30.5670859 22.0758095,30.7438961 C22.874961,30.8908383 23.7822684,30.9328217 24.4131775,30.4230224 C25.221342,29.7722786 25.194303,28.5637544 24.956961,27.5351594 C24.8552769,27.8446947 24.6665047,28.1184849 24.4131775,28.3238489 L24.4131775,28.3238489 Z" id="Path"></path>
                    <path d="M26.7745801,0.914639906 C25.8192035,2.00021251 24.0075931,2.05419126 23.385697,3.4996222 C23.112303,4.13237308 23.2745368,4.72613932 23.5389177,5.29891381 C24.2659654,4.13237308 25.888303,4.01242031 26.7745801,3.004817 C27.4205108,2.27010626 27.4866061,1.20552538 27.1681472,0.260897285 C27.0760136,0.499984057 26.9428311,0.721209566 26.7745801,0.914639906 Z" id="Path"></path>
                    <path d="M25.1252035,17.4741204 C25.1395489,18.1737017 25.0576686,18.8719401 24.8818528,19.5493034 C24.7346407,20.0171192 24.4972987,20.4489492 24.3651082,20.9227627 C24.1938183,21.6333388 24.1938183,22.3743354 24.3651082,23.0849115 C24.3651082,23.0639197 24.3651082,23.042928 24.3651082,23.0219362 C24.4972987,22.5511216 24.7346407,22.1222904 24.8818528,21.648477 C25.0576686,20.9711136 25.1395489,20.2728753 25.1252035,19.573294 C25.1582511,18.1728453 25.203316,16.733412 25.1732727,15.2909799 C25.1522424,16.0256907 25.1522424,16.7454073 25.1252035,17.4741204 Z" id="Path"></path>
                </g>
            </g>
        </g>
    </g>
</svg>